G04 #@! TF.GenerationSoftware,KiCad,Pcbnew,(5.1.5-0-10_14)*
G04 #@! TF.CreationDate,2020-05-15T23:00:51+01:00*
G04 #@! TF.ProjectId,Solenoid_Array,536f6c65-6e6f-4696-945f-41727261792e,1*
G04 #@! TF.SameCoordinates,Original*
G04 #@! TF.FileFunction,Copper,L1,Top*
G04 #@! TF.FilePolarity,Positive*
%FSLAX46Y46*%
G04 Gerber Fmt 4.6, Leading zero omitted, Abs format (unit mm)*
G04 Created by KiCad (PCBNEW (5.1.5-0-10_14)) date 2020-05-15 23:00:51*
%MOMM*%
%LPD*%
G04 APERTURE LIST*
%ADD10C,2.100000*%
%ADD11R,2.100000X2.100000*%
%ADD12C,0.152400*%
%ADD13O,1.200000X1.750000*%
%ADD14R,1.727200X1.727200*%
%ADD15O,1.727200X1.727200*%
%ADD16C,0.800000*%
%ADD17C,0.250000*%
%ADD18C,1.500000*%
%ADD19C,0.254000*%
G04 APERTURE END LIST*
D10*
X373920000Y-173820000D03*
D11*
X376460000Y-173820000D03*
G04 #@! TA.AperFunction,ComponentPad*
D12*
G36*
X151874505Y-182626204D02*
G01*
X151898773Y-182629804D01*
X151922572Y-182635765D01*
X151945671Y-182644030D01*
X151967850Y-182654520D01*
X151988893Y-182667132D01*
X152008599Y-182681747D01*
X152026777Y-182698223D01*
X152043253Y-182716401D01*
X152057868Y-182736107D01*
X152070480Y-182757150D01*
X152080970Y-182779329D01*
X152089235Y-182802428D01*
X152095196Y-182826227D01*
X152098796Y-182850495D01*
X152100000Y-182874999D01*
X152100000Y-184125001D01*
X152098796Y-184149505D01*
X152095196Y-184173773D01*
X152089235Y-184197572D01*
X152080970Y-184220671D01*
X152070480Y-184242850D01*
X152057868Y-184263893D01*
X152043253Y-184283599D01*
X152026777Y-184301777D01*
X152008599Y-184318253D01*
X151988893Y-184332868D01*
X151967850Y-184345480D01*
X151945671Y-184355970D01*
X151922572Y-184364235D01*
X151898773Y-184370196D01*
X151874505Y-184373796D01*
X151850001Y-184375000D01*
X151149999Y-184375000D01*
X151125495Y-184373796D01*
X151101227Y-184370196D01*
X151077428Y-184364235D01*
X151054329Y-184355970D01*
X151032150Y-184345480D01*
X151011107Y-184332868D01*
X150991401Y-184318253D01*
X150973223Y-184301777D01*
X150956747Y-184283599D01*
X150942132Y-184263893D01*
X150929520Y-184242850D01*
X150919030Y-184220671D01*
X150910765Y-184197572D01*
X150904804Y-184173773D01*
X150901204Y-184149505D01*
X150900000Y-184125001D01*
X150900000Y-182874999D01*
X150901204Y-182850495D01*
X150904804Y-182826227D01*
X150910765Y-182802428D01*
X150919030Y-182779329D01*
X150929520Y-182757150D01*
X150942132Y-182736107D01*
X150956747Y-182716401D01*
X150973223Y-182698223D01*
X150991401Y-182681747D01*
X151011107Y-182667132D01*
X151032150Y-182654520D01*
X151054329Y-182644030D01*
X151077428Y-182635765D01*
X151101227Y-182629804D01*
X151125495Y-182626204D01*
X151149999Y-182625000D01*
X151850001Y-182625000D01*
X151874505Y-182626204D01*
G37*
G04 #@! TD.AperFunction*
D13*
X149500000Y-183500000D03*
G04 #@! TA.AperFunction,ComponentPad*
D12*
G36*
X166870933Y-182626204D02*
G01*
X166895201Y-182629804D01*
X166919000Y-182635765D01*
X166942099Y-182644030D01*
X166964278Y-182654520D01*
X166985321Y-182667132D01*
X167005027Y-182681747D01*
X167023205Y-182698223D01*
X167039681Y-182716401D01*
X167054296Y-182736107D01*
X167066908Y-182757150D01*
X167077398Y-182779329D01*
X167085663Y-182802428D01*
X167091624Y-182826227D01*
X167095224Y-182850495D01*
X167096428Y-182874999D01*
X167096428Y-184125001D01*
X167095224Y-184149505D01*
X167091624Y-184173773D01*
X167085663Y-184197572D01*
X167077398Y-184220671D01*
X167066908Y-184242850D01*
X167054296Y-184263893D01*
X167039681Y-184283599D01*
X167023205Y-184301777D01*
X167005027Y-184318253D01*
X166985321Y-184332868D01*
X166964278Y-184345480D01*
X166942099Y-184355970D01*
X166919000Y-184364235D01*
X166895201Y-184370196D01*
X166870933Y-184373796D01*
X166846429Y-184375000D01*
X166146427Y-184375000D01*
X166121923Y-184373796D01*
X166097655Y-184370196D01*
X166073856Y-184364235D01*
X166050757Y-184355970D01*
X166028578Y-184345480D01*
X166007535Y-184332868D01*
X165987829Y-184318253D01*
X165969651Y-184301777D01*
X165953175Y-184283599D01*
X165938560Y-184263893D01*
X165925948Y-184242850D01*
X165915458Y-184220671D01*
X165907193Y-184197572D01*
X165901232Y-184173773D01*
X165897632Y-184149505D01*
X165896428Y-184125001D01*
X165896428Y-182874999D01*
X165897632Y-182850495D01*
X165901232Y-182826227D01*
X165907193Y-182802428D01*
X165915458Y-182779329D01*
X165925948Y-182757150D01*
X165938560Y-182736107D01*
X165953175Y-182716401D01*
X165969651Y-182698223D01*
X165987829Y-182681747D01*
X166007535Y-182667132D01*
X166028578Y-182654520D01*
X166050757Y-182644030D01*
X166073856Y-182635765D01*
X166097655Y-182629804D01*
X166121923Y-182626204D01*
X166146427Y-182625000D01*
X166846429Y-182625000D01*
X166870933Y-182626204D01*
G37*
G04 #@! TD.AperFunction*
D13*
X164496428Y-183500000D03*
G04 #@! TA.AperFunction,ComponentPad*
D12*
G36*
X181867361Y-182626204D02*
G01*
X181891629Y-182629804D01*
X181915428Y-182635765D01*
X181938527Y-182644030D01*
X181960706Y-182654520D01*
X181981749Y-182667132D01*
X182001455Y-182681747D01*
X182019633Y-182698223D01*
X182036109Y-182716401D01*
X182050724Y-182736107D01*
X182063336Y-182757150D01*
X182073826Y-182779329D01*
X182082091Y-182802428D01*
X182088052Y-182826227D01*
X182091652Y-182850495D01*
X182092856Y-182874999D01*
X182092856Y-184125001D01*
X182091652Y-184149505D01*
X182088052Y-184173773D01*
X182082091Y-184197572D01*
X182073826Y-184220671D01*
X182063336Y-184242850D01*
X182050724Y-184263893D01*
X182036109Y-184283599D01*
X182019633Y-184301777D01*
X182001455Y-184318253D01*
X181981749Y-184332868D01*
X181960706Y-184345480D01*
X181938527Y-184355970D01*
X181915428Y-184364235D01*
X181891629Y-184370196D01*
X181867361Y-184373796D01*
X181842857Y-184375000D01*
X181142855Y-184375000D01*
X181118351Y-184373796D01*
X181094083Y-184370196D01*
X181070284Y-184364235D01*
X181047185Y-184355970D01*
X181025006Y-184345480D01*
X181003963Y-184332868D01*
X180984257Y-184318253D01*
X180966079Y-184301777D01*
X180949603Y-184283599D01*
X180934988Y-184263893D01*
X180922376Y-184242850D01*
X180911886Y-184220671D01*
X180903621Y-184197572D01*
X180897660Y-184173773D01*
X180894060Y-184149505D01*
X180892856Y-184125001D01*
X180892856Y-182874999D01*
X180894060Y-182850495D01*
X180897660Y-182826227D01*
X180903621Y-182802428D01*
X180911886Y-182779329D01*
X180922376Y-182757150D01*
X180934988Y-182736107D01*
X180949603Y-182716401D01*
X180966079Y-182698223D01*
X180984257Y-182681747D01*
X181003963Y-182667132D01*
X181025006Y-182654520D01*
X181047185Y-182644030D01*
X181070284Y-182635765D01*
X181094083Y-182629804D01*
X181118351Y-182626204D01*
X181142855Y-182625000D01*
X181842857Y-182625000D01*
X181867361Y-182626204D01*
G37*
G04 #@! TD.AperFunction*
D13*
X179492856Y-183500000D03*
G04 #@! TA.AperFunction,ComponentPad*
D12*
G36*
X196863789Y-182626204D02*
G01*
X196888057Y-182629804D01*
X196911856Y-182635765D01*
X196934955Y-182644030D01*
X196957134Y-182654520D01*
X196978177Y-182667132D01*
X196997883Y-182681747D01*
X197016061Y-182698223D01*
X197032537Y-182716401D01*
X197047152Y-182736107D01*
X197059764Y-182757150D01*
X197070254Y-182779329D01*
X197078519Y-182802428D01*
X197084480Y-182826227D01*
X197088080Y-182850495D01*
X197089284Y-182874999D01*
X197089284Y-184125001D01*
X197088080Y-184149505D01*
X197084480Y-184173773D01*
X197078519Y-184197572D01*
X197070254Y-184220671D01*
X197059764Y-184242850D01*
X197047152Y-184263893D01*
X197032537Y-184283599D01*
X197016061Y-184301777D01*
X196997883Y-184318253D01*
X196978177Y-184332868D01*
X196957134Y-184345480D01*
X196934955Y-184355970D01*
X196911856Y-184364235D01*
X196888057Y-184370196D01*
X196863789Y-184373796D01*
X196839285Y-184375000D01*
X196139283Y-184375000D01*
X196114779Y-184373796D01*
X196090511Y-184370196D01*
X196066712Y-184364235D01*
X196043613Y-184355970D01*
X196021434Y-184345480D01*
X196000391Y-184332868D01*
X195980685Y-184318253D01*
X195962507Y-184301777D01*
X195946031Y-184283599D01*
X195931416Y-184263893D01*
X195918804Y-184242850D01*
X195908314Y-184220671D01*
X195900049Y-184197572D01*
X195894088Y-184173773D01*
X195890488Y-184149505D01*
X195889284Y-184125001D01*
X195889284Y-182874999D01*
X195890488Y-182850495D01*
X195894088Y-182826227D01*
X195900049Y-182802428D01*
X195908314Y-182779329D01*
X195918804Y-182757150D01*
X195931416Y-182736107D01*
X195946031Y-182716401D01*
X195962507Y-182698223D01*
X195980685Y-182681747D01*
X196000391Y-182667132D01*
X196021434Y-182654520D01*
X196043613Y-182644030D01*
X196066712Y-182635765D01*
X196090511Y-182629804D01*
X196114779Y-182626204D01*
X196139283Y-182625000D01*
X196839285Y-182625000D01*
X196863789Y-182626204D01*
G37*
G04 #@! TD.AperFunction*
D13*
X194489284Y-183500000D03*
G04 #@! TA.AperFunction,ComponentPad*
D12*
G36*
X211860217Y-182626204D02*
G01*
X211884485Y-182629804D01*
X211908284Y-182635765D01*
X211931383Y-182644030D01*
X211953562Y-182654520D01*
X211974605Y-182667132D01*
X211994311Y-182681747D01*
X212012489Y-182698223D01*
X212028965Y-182716401D01*
X212043580Y-182736107D01*
X212056192Y-182757150D01*
X212066682Y-182779329D01*
X212074947Y-182802428D01*
X212080908Y-182826227D01*
X212084508Y-182850495D01*
X212085712Y-182874999D01*
X212085712Y-184125001D01*
X212084508Y-184149505D01*
X212080908Y-184173773D01*
X212074947Y-184197572D01*
X212066682Y-184220671D01*
X212056192Y-184242850D01*
X212043580Y-184263893D01*
X212028965Y-184283599D01*
X212012489Y-184301777D01*
X211994311Y-184318253D01*
X211974605Y-184332868D01*
X211953562Y-184345480D01*
X211931383Y-184355970D01*
X211908284Y-184364235D01*
X211884485Y-184370196D01*
X211860217Y-184373796D01*
X211835713Y-184375000D01*
X211135711Y-184375000D01*
X211111207Y-184373796D01*
X211086939Y-184370196D01*
X211063140Y-184364235D01*
X211040041Y-184355970D01*
X211017862Y-184345480D01*
X210996819Y-184332868D01*
X210977113Y-184318253D01*
X210958935Y-184301777D01*
X210942459Y-184283599D01*
X210927844Y-184263893D01*
X210915232Y-184242850D01*
X210904742Y-184220671D01*
X210896477Y-184197572D01*
X210890516Y-184173773D01*
X210886916Y-184149505D01*
X210885712Y-184125001D01*
X210885712Y-182874999D01*
X210886916Y-182850495D01*
X210890516Y-182826227D01*
X210896477Y-182802428D01*
X210904742Y-182779329D01*
X210915232Y-182757150D01*
X210927844Y-182736107D01*
X210942459Y-182716401D01*
X210958935Y-182698223D01*
X210977113Y-182681747D01*
X210996819Y-182667132D01*
X211017862Y-182654520D01*
X211040041Y-182644030D01*
X211063140Y-182635765D01*
X211086939Y-182629804D01*
X211111207Y-182626204D01*
X211135711Y-182625000D01*
X211835713Y-182625000D01*
X211860217Y-182626204D01*
G37*
G04 #@! TD.AperFunction*
D13*
X209485712Y-183500000D03*
G04 #@! TA.AperFunction,ComponentPad*
D12*
G36*
X226856645Y-182626204D02*
G01*
X226880913Y-182629804D01*
X226904712Y-182635765D01*
X226927811Y-182644030D01*
X226949990Y-182654520D01*
X226971033Y-182667132D01*
X226990739Y-182681747D01*
X227008917Y-182698223D01*
X227025393Y-182716401D01*
X227040008Y-182736107D01*
X227052620Y-182757150D01*
X227063110Y-182779329D01*
X227071375Y-182802428D01*
X227077336Y-182826227D01*
X227080936Y-182850495D01*
X227082140Y-182874999D01*
X227082140Y-184125001D01*
X227080936Y-184149505D01*
X227077336Y-184173773D01*
X227071375Y-184197572D01*
X227063110Y-184220671D01*
X227052620Y-184242850D01*
X227040008Y-184263893D01*
X227025393Y-184283599D01*
X227008917Y-184301777D01*
X226990739Y-184318253D01*
X226971033Y-184332868D01*
X226949990Y-184345480D01*
X226927811Y-184355970D01*
X226904712Y-184364235D01*
X226880913Y-184370196D01*
X226856645Y-184373796D01*
X226832141Y-184375000D01*
X226132139Y-184375000D01*
X226107635Y-184373796D01*
X226083367Y-184370196D01*
X226059568Y-184364235D01*
X226036469Y-184355970D01*
X226014290Y-184345480D01*
X225993247Y-184332868D01*
X225973541Y-184318253D01*
X225955363Y-184301777D01*
X225938887Y-184283599D01*
X225924272Y-184263893D01*
X225911660Y-184242850D01*
X225901170Y-184220671D01*
X225892905Y-184197572D01*
X225886944Y-184173773D01*
X225883344Y-184149505D01*
X225882140Y-184125001D01*
X225882140Y-182874999D01*
X225883344Y-182850495D01*
X225886944Y-182826227D01*
X225892905Y-182802428D01*
X225901170Y-182779329D01*
X225911660Y-182757150D01*
X225924272Y-182736107D01*
X225938887Y-182716401D01*
X225955363Y-182698223D01*
X225973541Y-182681747D01*
X225993247Y-182667132D01*
X226014290Y-182654520D01*
X226036469Y-182644030D01*
X226059568Y-182635765D01*
X226083367Y-182629804D01*
X226107635Y-182626204D01*
X226132139Y-182625000D01*
X226832141Y-182625000D01*
X226856645Y-182626204D01*
G37*
G04 #@! TD.AperFunction*
D13*
X224482140Y-183500000D03*
G04 #@! TA.AperFunction,ComponentPad*
D12*
G36*
X241853073Y-182626204D02*
G01*
X241877341Y-182629804D01*
X241901140Y-182635765D01*
X241924239Y-182644030D01*
X241946418Y-182654520D01*
X241967461Y-182667132D01*
X241987167Y-182681747D01*
X242005345Y-182698223D01*
X242021821Y-182716401D01*
X242036436Y-182736107D01*
X242049048Y-182757150D01*
X242059538Y-182779329D01*
X242067803Y-182802428D01*
X242073764Y-182826227D01*
X242077364Y-182850495D01*
X242078568Y-182874999D01*
X242078568Y-184125001D01*
X242077364Y-184149505D01*
X242073764Y-184173773D01*
X242067803Y-184197572D01*
X242059538Y-184220671D01*
X242049048Y-184242850D01*
X242036436Y-184263893D01*
X242021821Y-184283599D01*
X242005345Y-184301777D01*
X241987167Y-184318253D01*
X241967461Y-184332868D01*
X241946418Y-184345480D01*
X241924239Y-184355970D01*
X241901140Y-184364235D01*
X241877341Y-184370196D01*
X241853073Y-184373796D01*
X241828569Y-184375000D01*
X241128567Y-184375000D01*
X241104063Y-184373796D01*
X241079795Y-184370196D01*
X241055996Y-184364235D01*
X241032897Y-184355970D01*
X241010718Y-184345480D01*
X240989675Y-184332868D01*
X240969969Y-184318253D01*
X240951791Y-184301777D01*
X240935315Y-184283599D01*
X240920700Y-184263893D01*
X240908088Y-184242850D01*
X240897598Y-184220671D01*
X240889333Y-184197572D01*
X240883372Y-184173773D01*
X240879772Y-184149505D01*
X240878568Y-184125001D01*
X240878568Y-182874999D01*
X240879772Y-182850495D01*
X240883372Y-182826227D01*
X240889333Y-182802428D01*
X240897598Y-182779329D01*
X240908088Y-182757150D01*
X240920700Y-182736107D01*
X240935315Y-182716401D01*
X240951791Y-182698223D01*
X240969969Y-182681747D01*
X240989675Y-182667132D01*
X241010718Y-182654520D01*
X241032897Y-182644030D01*
X241055996Y-182635765D01*
X241079795Y-182629804D01*
X241104063Y-182626204D01*
X241128567Y-182625000D01*
X241828569Y-182625000D01*
X241853073Y-182626204D01*
G37*
G04 #@! TD.AperFunction*
D13*
X239478568Y-183500000D03*
G04 #@! TA.AperFunction,ComponentPad*
D12*
G36*
X256849501Y-182626204D02*
G01*
X256873769Y-182629804D01*
X256897568Y-182635765D01*
X256920667Y-182644030D01*
X256942846Y-182654520D01*
X256963889Y-182667132D01*
X256983595Y-182681747D01*
X257001773Y-182698223D01*
X257018249Y-182716401D01*
X257032864Y-182736107D01*
X257045476Y-182757150D01*
X257055966Y-182779329D01*
X257064231Y-182802428D01*
X257070192Y-182826227D01*
X257073792Y-182850495D01*
X257074996Y-182874999D01*
X257074996Y-184125001D01*
X257073792Y-184149505D01*
X257070192Y-184173773D01*
X257064231Y-184197572D01*
X257055966Y-184220671D01*
X257045476Y-184242850D01*
X257032864Y-184263893D01*
X257018249Y-184283599D01*
X257001773Y-184301777D01*
X256983595Y-184318253D01*
X256963889Y-184332868D01*
X256942846Y-184345480D01*
X256920667Y-184355970D01*
X256897568Y-184364235D01*
X256873769Y-184370196D01*
X256849501Y-184373796D01*
X256824997Y-184375000D01*
X256124995Y-184375000D01*
X256100491Y-184373796D01*
X256076223Y-184370196D01*
X256052424Y-184364235D01*
X256029325Y-184355970D01*
X256007146Y-184345480D01*
X255986103Y-184332868D01*
X255966397Y-184318253D01*
X255948219Y-184301777D01*
X255931743Y-184283599D01*
X255917128Y-184263893D01*
X255904516Y-184242850D01*
X255894026Y-184220671D01*
X255885761Y-184197572D01*
X255879800Y-184173773D01*
X255876200Y-184149505D01*
X255874996Y-184125001D01*
X255874996Y-182874999D01*
X255876200Y-182850495D01*
X255879800Y-182826227D01*
X255885761Y-182802428D01*
X255894026Y-182779329D01*
X255904516Y-182757150D01*
X255917128Y-182736107D01*
X255931743Y-182716401D01*
X255948219Y-182698223D01*
X255966397Y-182681747D01*
X255986103Y-182667132D01*
X256007146Y-182654520D01*
X256029325Y-182644030D01*
X256052424Y-182635765D01*
X256076223Y-182629804D01*
X256100491Y-182626204D01*
X256124995Y-182625000D01*
X256824997Y-182625000D01*
X256849501Y-182626204D01*
G37*
G04 #@! TD.AperFunction*
D13*
X254474996Y-183500000D03*
G04 #@! TA.AperFunction,ComponentPad*
D12*
G36*
X271845929Y-182626204D02*
G01*
X271870197Y-182629804D01*
X271893996Y-182635765D01*
X271917095Y-182644030D01*
X271939274Y-182654520D01*
X271960317Y-182667132D01*
X271980023Y-182681747D01*
X271998201Y-182698223D01*
X272014677Y-182716401D01*
X272029292Y-182736107D01*
X272041904Y-182757150D01*
X272052394Y-182779329D01*
X272060659Y-182802428D01*
X272066620Y-182826227D01*
X272070220Y-182850495D01*
X272071424Y-182874999D01*
X272071424Y-184125001D01*
X272070220Y-184149505D01*
X272066620Y-184173773D01*
X272060659Y-184197572D01*
X272052394Y-184220671D01*
X272041904Y-184242850D01*
X272029292Y-184263893D01*
X272014677Y-184283599D01*
X271998201Y-184301777D01*
X271980023Y-184318253D01*
X271960317Y-184332868D01*
X271939274Y-184345480D01*
X271917095Y-184355970D01*
X271893996Y-184364235D01*
X271870197Y-184370196D01*
X271845929Y-184373796D01*
X271821425Y-184375000D01*
X271121423Y-184375000D01*
X271096919Y-184373796D01*
X271072651Y-184370196D01*
X271048852Y-184364235D01*
X271025753Y-184355970D01*
X271003574Y-184345480D01*
X270982531Y-184332868D01*
X270962825Y-184318253D01*
X270944647Y-184301777D01*
X270928171Y-184283599D01*
X270913556Y-184263893D01*
X270900944Y-184242850D01*
X270890454Y-184220671D01*
X270882189Y-184197572D01*
X270876228Y-184173773D01*
X270872628Y-184149505D01*
X270871424Y-184125001D01*
X270871424Y-182874999D01*
X270872628Y-182850495D01*
X270876228Y-182826227D01*
X270882189Y-182802428D01*
X270890454Y-182779329D01*
X270900944Y-182757150D01*
X270913556Y-182736107D01*
X270928171Y-182716401D01*
X270944647Y-182698223D01*
X270962825Y-182681747D01*
X270982531Y-182667132D01*
X271003574Y-182654520D01*
X271025753Y-182644030D01*
X271048852Y-182635765D01*
X271072651Y-182629804D01*
X271096919Y-182626204D01*
X271121423Y-182625000D01*
X271821425Y-182625000D01*
X271845929Y-182626204D01*
G37*
G04 #@! TD.AperFunction*
D13*
X269471424Y-183500000D03*
G04 #@! TA.AperFunction,ComponentPad*
D12*
G36*
X286842357Y-182626204D02*
G01*
X286866625Y-182629804D01*
X286890424Y-182635765D01*
X286913523Y-182644030D01*
X286935702Y-182654520D01*
X286956745Y-182667132D01*
X286976451Y-182681747D01*
X286994629Y-182698223D01*
X287011105Y-182716401D01*
X287025720Y-182736107D01*
X287038332Y-182757150D01*
X287048822Y-182779329D01*
X287057087Y-182802428D01*
X287063048Y-182826227D01*
X287066648Y-182850495D01*
X287067852Y-182874999D01*
X287067852Y-184125001D01*
X287066648Y-184149505D01*
X287063048Y-184173773D01*
X287057087Y-184197572D01*
X287048822Y-184220671D01*
X287038332Y-184242850D01*
X287025720Y-184263893D01*
X287011105Y-184283599D01*
X286994629Y-184301777D01*
X286976451Y-184318253D01*
X286956745Y-184332868D01*
X286935702Y-184345480D01*
X286913523Y-184355970D01*
X286890424Y-184364235D01*
X286866625Y-184370196D01*
X286842357Y-184373796D01*
X286817853Y-184375000D01*
X286117851Y-184375000D01*
X286093347Y-184373796D01*
X286069079Y-184370196D01*
X286045280Y-184364235D01*
X286022181Y-184355970D01*
X286000002Y-184345480D01*
X285978959Y-184332868D01*
X285959253Y-184318253D01*
X285941075Y-184301777D01*
X285924599Y-184283599D01*
X285909984Y-184263893D01*
X285897372Y-184242850D01*
X285886882Y-184220671D01*
X285878617Y-184197572D01*
X285872656Y-184173773D01*
X285869056Y-184149505D01*
X285867852Y-184125001D01*
X285867852Y-182874999D01*
X285869056Y-182850495D01*
X285872656Y-182826227D01*
X285878617Y-182802428D01*
X285886882Y-182779329D01*
X285897372Y-182757150D01*
X285909984Y-182736107D01*
X285924599Y-182716401D01*
X285941075Y-182698223D01*
X285959253Y-182681747D01*
X285978959Y-182667132D01*
X286000002Y-182654520D01*
X286022181Y-182644030D01*
X286045280Y-182635765D01*
X286069079Y-182629804D01*
X286093347Y-182626204D01*
X286117851Y-182625000D01*
X286817853Y-182625000D01*
X286842357Y-182626204D01*
G37*
G04 #@! TD.AperFunction*
D13*
X284467852Y-183500000D03*
G04 #@! TA.AperFunction,ComponentPad*
D12*
G36*
X301838785Y-182626204D02*
G01*
X301863053Y-182629804D01*
X301886852Y-182635765D01*
X301909951Y-182644030D01*
X301932130Y-182654520D01*
X301953173Y-182667132D01*
X301972879Y-182681747D01*
X301991057Y-182698223D01*
X302007533Y-182716401D01*
X302022148Y-182736107D01*
X302034760Y-182757150D01*
X302045250Y-182779329D01*
X302053515Y-182802428D01*
X302059476Y-182826227D01*
X302063076Y-182850495D01*
X302064280Y-182874999D01*
X302064280Y-184125001D01*
X302063076Y-184149505D01*
X302059476Y-184173773D01*
X302053515Y-184197572D01*
X302045250Y-184220671D01*
X302034760Y-184242850D01*
X302022148Y-184263893D01*
X302007533Y-184283599D01*
X301991057Y-184301777D01*
X301972879Y-184318253D01*
X301953173Y-184332868D01*
X301932130Y-184345480D01*
X301909951Y-184355970D01*
X301886852Y-184364235D01*
X301863053Y-184370196D01*
X301838785Y-184373796D01*
X301814281Y-184375000D01*
X301114279Y-184375000D01*
X301089775Y-184373796D01*
X301065507Y-184370196D01*
X301041708Y-184364235D01*
X301018609Y-184355970D01*
X300996430Y-184345480D01*
X300975387Y-184332868D01*
X300955681Y-184318253D01*
X300937503Y-184301777D01*
X300921027Y-184283599D01*
X300906412Y-184263893D01*
X300893800Y-184242850D01*
X300883310Y-184220671D01*
X300875045Y-184197572D01*
X300869084Y-184173773D01*
X300865484Y-184149505D01*
X300864280Y-184125001D01*
X300864280Y-182874999D01*
X300865484Y-182850495D01*
X300869084Y-182826227D01*
X300875045Y-182802428D01*
X300883310Y-182779329D01*
X300893800Y-182757150D01*
X300906412Y-182736107D01*
X300921027Y-182716401D01*
X300937503Y-182698223D01*
X300955681Y-182681747D01*
X300975387Y-182667132D01*
X300996430Y-182654520D01*
X301018609Y-182644030D01*
X301041708Y-182635765D01*
X301065507Y-182629804D01*
X301089775Y-182626204D01*
X301114279Y-182625000D01*
X301814281Y-182625000D01*
X301838785Y-182626204D01*
G37*
G04 #@! TD.AperFunction*
D13*
X299464280Y-183500000D03*
G04 #@! TA.AperFunction,ComponentPad*
D12*
G36*
X316835213Y-182626204D02*
G01*
X316859481Y-182629804D01*
X316883280Y-182635765D01*
X316906379Y-182644030D01*
X316928558Y-182654520D01*
X316949601Y-182667132D01*
X316969307Y-182681747D01*
X316987485Y-182698223D01*
X317003961Y-182716401D01*
X317018576Y-182736107D01*
X317031188Y-182757150D01*
X317041678Y-182779329D01*
X317049943Y-182802428D01*
X317055904Y-182826227D01*
X317059504Y-182850495D01*
X317060708Y-182874999D01*
X317060708Y-184125001D01*
X317059504Y-184149505D01*
X317055904Y-184173773D01*
X317049943Y-184197572D01*
X317041678Y-184220671D01*
X317031188Y-184242850D01*
X317018576Y-184263893D01*
X317003961Y-184283599D01*
X316987485Y-184301777D01*
X316969307Y-184318253D01*
X316949601Y-184332868D01*
X316928558Y-184345480D01*
X316906379Y-184355970D01*
X316883280Y-184364235D01*
X316859481Y-184370196D01*
X316835213Y-184373796D01*
X316810709Y-184375000D01*
X316110707Y-184375000D01*
X316086203Y-184373796D01*
X316061935Y-184370196D01*
X316038136Y-184364235D01*
X316015037Y-184355970D01*
X315992858Y-184345480D01*
X315971815Y-184332868D01*
X315952109Y-184318253D01*
X315933931Y-184301777D01*
X315917455Y-184283599D01*
X315902840Y-184263893D01*
X315890228Y-184242850D01*
X315879738Y-184220671D01*
X315871473Y-184197572D01*
X315865512Y-184173773D01*
X315861912Y-184149505D01*
X315860708Y-184125001D01*
X315860708Y-182874999D01*
X315861912Y-182850495D01*
X315865512Y-182826227D01*
X315871473Y-182802428D01*
X315879738Y-182779329D01*
X315890228Y-182757150D01*
X315902840Y-182736107D01*
X315917455Y-182716401D01*
X315933931Y-182698223D01*
X315952109Y-182681747D01*
X315971815Y-182667132D01*
X315992858Y-182654520D01*
X316015037Y-182644030D01*
X316038136Y-182635765D01*
X316061935Y-182629804D01*
X316086203Y-182626204D01*
X316110707Y-182625000D01*
X316810709Y-182625000D01*
X316835213Y-182626204D01*
G37*
G04 #@! TD.AperFunction*
D13*
X314460708Y-183500000D03*
G04 #@! TA.AperFunction,ComponentPad*
D12*
G36*
X331831641Y-182626204D02*
G01*
X331855909Y-182629804D01*
X331879708Y-182635765D01*
X331902807Y-182644030D01*
X331924986Y-182654520D01*
X331946029Y-182667132D01*
X331965735Y-182681747D01*
X331983913Y-182698223D01*
X332000389Y-182716401D01*
X332015004Y-182736107D01*
X332027616Y-182757150D01*
X332038106Y-182779329D01*
X332046371Y-182802428D01*
X332052332Y-182826227D01*
X332055932Y-182850495D01*
X332057136Y-182874999D01*
X332057136Y-184125001D01*
X332055932Y-184149505D01*
X332052332Y-184173773D01*
X332046371Y-184197572D01*
X332038106Y-184220671D01*
X332027616Y-184242850D01*
X332015004Y-184263893D01*
X332000389Y-184283599D01*
X331983913Y-184301777D01*
X331965735Y-184318253D01*
X331946029Y-184332868D01*
X331924986Y-184345480D01*
X331902807Y-184355970D01*
X331879708Y-184364235D01*
X331855909Y-184370196D01*
X331831641Y-184373796D01*
X331807137Y-184375000D01*
X331107135Y-184375000D01*
X331082631Y-184373796D01*
X331058363Y-184370196D01*
X331034564Y-184364235D01*
X331011465Y-184355970D01*
X330989286Y-184345480D01*
X330968243Y-184332868D01*
X330948537Y-184318253D01*
X330930359Y-184301777D01*
X330913883Y-184283599D01*
X330899268Y-184263893D01*
X330886656Y-184242850D01*
X330876166Y-184220671D01*
X330867901Y-184197572D01*
X330861940Y-184173773D01*
X330858340Y-184149505D01*
X330857136Y-184125001D01*
X330857136Y-182874999D01*
X330858340Y-182850495D01*
X330861940Y-182826227D01*
X330867901Y-182802428D01*
X330876166Y-182779329D01*
X330886656Y-182757150D01*
X330899268Y-182736107D01*
X330913883Y-182716401D01*
X330930359Y-182698223D01*
X330948537Y-182681747D01*
X330968243Y-182667132D01*
X330989286Y-182654520D01*
X331011465Y-182644030D01*
X331034564Y-182635765D01*
X331058363Y-182629804D01*
X331082631Y-182626204D01*
X331107135Y-182625000D01*
X331807137Y-182625000D01*
X331831641Y-182626204D01*
G37*
G04 #@! TD.AperFunction*
D13*
X329457136Y-183500000D03*
G04 #@! TA.AperFunction,ComponentPad*
D12*
G36*
X346828069Y-182626204D02*
G01*
X346852337Y-182629804D01*
X346876136Y-182635765D01*
X346899235Y-182644030D01*
X346921414Y-182654520D01*
X346942457Y-182667132D01*
X346962163Y-182681747D01*
X346980341Y-182698223D01*
X346996817Y-182716401D01*
X347011432Y-182736107D01*
X347024044Y-182757150D01*
X347034534Y-182779329D01*
X347042799Y-182802428D01*
X347048760Y-182826227D01*
X347052360Y-182850495D01*
X347053564Y-182874999D01*
X347053564Y-184125001D01*
X347052360Y-184149505D01*
X347048760Y-184173773D01*
X347042799Y-184197572D01*
X347034534Y-184220671D01*
X347024044Y-184242850D01*
X347011432Y-184263893D01*
X346996817Y-184283599D01*
X346980341Y-184301777D01*
X346962163Y-184318253D01*
X346942457Y-184332868D01*
X346921414Y-184345480D01*
X346899235Y-184355970D01*
X346876136Y-184364235D01*
X346852337Y-184370196D01*
X346828069Y-184373796D01*
X346803565Y-184375000D01*
X346103563Y-184375000D01*
X346079059Y-184373796D01*
X346054791Y-184370196D01*
X346030992Y-184364235D01*
X346007893Y-184355970D01*
X345985714Y-184345480D01*
X345964671Y-184332868D01*
X345944965Y-184318253D01*
X345926787Y-184301777D01*
X345910311Y-184283599D01*
X345895696Y-184263893D01*
X345883084Y-184242850D01*
X345872594Y-184220671D01*
X345864329Y-184197572D01*
X345858368Y-184173773D01*
X345854768Y-184149505D01*
X345853564Y-184125001D01*
X345853564Y-182874999D01*
X345854768Y-182850495D01*
X345858368Y-182826227D01*
X345864329Y-182802428D01*
X345872594Y-182779329D01*
X345883084Y-182757150D01*
X345895696Y-182736107D01*
X345910311Y-182716401D01*
X345926787Y-182698223D01*
X345944965Y-182681747D01*
X345964671Y-182667132D01*
X345985714Y-182654520D01*
X346007893Y-182644030D01*
X346030992Y-182635765D01*
X346054791Y-182629804D01*
X346079059Y-182626204D01*
X346103563Y-182625000D01*
X346803565Y-182625000D01*
X346828069Y-182626204D01*
G37*
G04 #@! TD.AperFunction*
D13*
X344453564Y-183500000D03*
G04 #@! TA.AperFunction,ComponentPad*
D12*
G36*
X361824505Y-182626204D02*
G01*
X361848773Y-182629804D01*
X361872572Y-182635765D01*
X361895671Y-182644030D01*
X361917850Y-182654520D01*
X361938893Y-182667132D01*
X361958599Y-182681747D01*
X361976777Y-182698223D01*
X361993253Y-182716401D01*
X362007868Y-182736107D01*
X362020480Y-182757150D01*
X362030970Y-182779329D01*
X362039235Y-182802428D01*
X362045196Y-182826227D01*
X362048796Y-182850495D01*
X362050000Y-182874999D01*
X362050000Y-184125001D01*
X362048796Y-184149505D01*
X362045196Y-184173773D01*
X362039235Y-184197572D01*
X362030970Y-184220671D01*
X362020480Y-184242850D01*
X362007868Y-184263893D01*
X361993253Y-184283599D01*
X361976777Y-184301777D01*
X361958599Y-184318253D01*
X361938893Y-184332868D01*
X361917850Y-184345480D01*
X361895671Y-184355970D01*
X361872572Y-184364235D01*
X361848773Y-184370196D01*
X361824505Y-184373796D01*
X361800001Y-184375000D01*
X361099999Y-184375000D01*
X361075495Y-184373796D01*
X361051227Y-184370196D01*
X361027428Y-184364235D01*
X361004329Y-184355970D01*
X360982150Y-184345480D01*
X360961107Y-184332868D01*
X360941401Y-184318253D01*
X360923223Y-184301777D01*
X360906747Y-184283599D01*
X360892132Y-184263893D01*
X360879520Y-184242850D01*
X360869030Y-184220671D01*
X360860765Y-184197572D01*
X360854804Y-184173773D01*
X360851204Y-184149505D01*
X360850000Y-184125001D01*
X360850000Y-182874999D01*
X360851204Y-182850495D01*
X360854804Y-182826227D01*
X360860765Y-182802428D01*
X360869030Y-182779329D01*
X360879520Y-182757150D01*
X360892132Y-182736107D01*
X360906747Y-182716401D01*
X360923223Y-182698223D01*
X360941401Y-182681747D01*
X360961107Y-182667132D01*
X360982150Y-182654520D01*
X361004329Y-182644030D01*
X361027428Y-182635765D01*
X361051227Y-182629804D01*
X361075495Y-182626204D01*
X361099999Y-182625000D01*
X361800001Y-182625000D01*
X361824505Y-182626204D01*
G37*
G04 #@! TD.AperFunction*
D13*
X359450000Y-183500000D03*
G04 #@! TA.AperFunction,ComponentPad*
D12*
G36*
X390104505Y-182156204D02*
G01*
X390128773Y-182159804D01*
X390152572Y-182165765D01*
X390175671Y-182174030D01*
X390197850Y-182184520D01*
X390218893Y-182197132D01*
X390238599Y-182211747D01*
X390256777Y-182228223D01*
X390273253Y-182246401D01*
X390287868Y-182266107D01*
X390300480Y-182287150D01*
X390310970Y-182309329D01*
X390319235Y-182332428D01*
X390325196Y-182356227D01*
X390328796Y-182380495D01*
X390330000Y-182404999D01*
X390330000Y-183655001D01*
X390328796Y-183679505D01*
X390325196Y-183703773D01*
X390319235Y-183727572D01*
X390310970Y-183750671D01*
X390300480Y-183772850D01*
X390287868Y-183793893D01*
X390273253Y-183813599D01*
X390256777Y-183831777D01*
X390238599Y-183848253D01*
X390218893Y-183862868D01*
X390197850Y-183875480D01*
X390175671Y-183885970D01*
X390152572Y-183894235D01*
X390128773Y-183900196D01*
X390104505Y-183903796D01*
X390080001Y-183905000D01*
X389379999Y-183905000D01*
X389355495Y-183903796D01*
X389331227Y-183900196D01*
X389307428Y-183894235D01*
X389284329Y-183885970D01*
X389262150Y-183875480D01*
X389241107Y-183862868D01*
X389221401Y-183848253D01*
X389203223Y-183831777D01*
X389186747Y-183813599D01*
X389172132Y-183793893D01*
X389159520Y-183772850D01*
X389149030Y-183750671D01*
X389140765Y-183727572D01*
X389134804Y-183703773D01*
X389131204Y-183679505D01*
X389130000Y-183655001D01*
X389130000Y-182404999D01*
X389131204Y-182380495D01*
X389134804Y-182356227D01*
X389140765Y-182332428D01*
X389149030Y-182309329D01*
X389159520Y-182287150D01*
X389172132Y-182266107D01*
X389186747Y-182246401D01*
X389203223Y-182228223D01*
X389221401Y-182211747D01*
X389241107Y-182197132D01*
X389262150Y-182184520D01*
X389284329Y-182174030D01*
X389307428Y-182165765D01*
X389331227Y-182159804D01*
X389355495Y-182156204D01*
X389379999Y-182155000D01*
X390080001Y-182155000D01*
X390104505Y-182156204D01*
G37*
G04 #@! TD.AperFunction*
D13*
X387730000Y-183030000D03*
G04 #@! TA.AperFunction,ComponentPad*
D12*
G36*
X388104505Y-176156204D02*
G01*
X388128773Y-176159804D01*
X388152572Y-176165765D01*
X388175671Y-176174030D01*
X388197850Y-176184520D01*
X388218893Y-176197132D01*
X388238599Y-176211747D01*
X388256777Y-176228223D01*
X388273253Y-176246401D01*
X388287868Y-176266107D01*
X388300480Y-176287150D01*
X388310970Y-176309329D01*
X388319235Y-176332428D01*
X388325196Y-176356227D01*
X388328796Y-176380495D01*
X388330000Y-176404999D01*
X388330000Y-177655001D01*
X388328796Y-177679505D01*
X388325196Y-177703773D01*
X388319235Y-177727572D01*
X388310970Y-177750671D01*
X388300480Y-177772850D01*
X388287868Y-177793893D01*
X388273253Y-177813599D01*
X388256777Y-177831777D01*
X388238599Y-177848253D01*
X388218893Y-177862868D01*
X388197850Y-177875480D01*
X388175671Y-177885970D01*
X388152572Y-177894235D01*
X388128773Y-177900196D01*
X388104505Y-177903796D01*
X388080001Y-177905000D01*
X387379999Y-177905000D01*
X387355495Y-177903796D01*
X387331227Y-177900196D01*
X387307428Y-177894235D01*
X387284329Y-177885970D01*
X387262150Y-177875480D01*
X387241107Y-177862868D01*
X387221401Y-177848253D01*
X387203223Y-177831777D01*
X387186747Y-177813599D01*
X387172132Y-177793893D01*
X387159520Y-177772850D01*
X387149030Y-177750671D01*
X387140765Y-177727572D01*
X387134804Y-177703773D01*
X387131204Y-177679505D01*
X387130000Y-177655001D01*
X387130000Y-176404999D01*
X387131204Y-176380495D01*
X387134804Y-176356227D01*
X387140765Y-176332428D01*
X387149030Y-176309329D01*
X387159520Y-176287150D01*
X387172132Y-176266107D01*
X387186747Y-176246401D01*
X387203223Y-176228223D01*
X387221401Y-176211747D01*
X387241107Y-176197132D01*
X387262150Y-176184520D01*
X387284329Y-176174030D01*
X387307428Y-176165765D01*
X387331227Y-176159804D01*
X387355495Y-176156204D01*
X387379999Y-176155000D01*
X388080001Y-176155000D01*
X388104505Y-176156204D01*
G37*
G04 #@! TD.AperFunction*
D13*
X389730000Y-177030000D03*
D14*
X141000000Y-181300000D03*
D15*
X141000000Y-178760000D03*
X138460000Y-181300000D03*
X138460000Y-178760000D03*
X135920000Y-181300000D03*
X135920000Y-178760000D03*
X133380000Y-181300000D03*
X133380000Y-178760000D03*
X130840000Y-181300000D03*
X130840000Y-178760000D03*
X128300000Y-181300000D03*
X128300000Y-178760000D03*
X125760000Y-181300000D03*
X125760000Y-178760000D03*
X123220000Y-181300000D03*
X123220000Y-178760000D03*
D16*
X167455000Y-179425000D03*
X182423928Y-179443928D03*
X197437142Y-179427142D03*
X212395356Y-179465356D03*
X227525000Y-179425000D03*
X242435000Y-179425000D03*
X257409998Y-179439998D03*
X272495000Y-179425000D03*
X287366426Y-179476426D03*
X302414280Y-179425000D03*
X317402854Y-179432854D03*
X332396068Y-179436068D03*
X347339282Y-179489282D03*
X362397500Y-179427500D03*
X117250000Y-181500000D03*
X376800000Y-178250000D03*
X103610000Y-188890000D03*
X150870000Y-179420000D03*
X103500000Y-171160000D03*
X163000000Y-177330000D03*
X109906000Y-188857000D03*
X177018000Y-179488000D03*
X109845000Y-171160000D03*
X192750000Y-177330000D03*
X116256000Y-188857000D03*
X207128000Y-179378000D03*
X116190000Y-171160000D03*
X222990000Y-177300000D03*
X122733000Y-188857000D03*
X237750000Y-179340000D03*
X122535000Y-171160000D03*
X252940000Y-177360000D03*
X128956000Y-188857000D03*
X267098000Y-179408000D03*
X128880000Y-171160000D03*
X282650000Y-177340000D03*
X135306000Y-188857000D03*
X297183000Y-179323000D03*
X135225000Y-171160000D03*
X312630000Y-177330000D03*
X141656000Y-188857000D03*
X327008000Y-179498000D03*
X141570000Y-171160000D03*
X342630000Y-177320000D03*
X357683000Y-177300000D03*
X147750000Y-173154990D03*
X145276404Y-183706990D03*
X107620000Y-181500000D03*
X152575000Y-179425000D03*
D17*
X167455000Y-179425000D02*
X164935000Y-179425000D01*
X164496428Y-179863572D02*
X164496428Y-183500000D01*
X164935000Y-179425000D02*
X164496428Y-179863572D01*
X179492856Y-182375000D02*
X182423928Y-179443928D01*
X179492856Y-183500000D02*
X179492856Y-182375000D01*
X194489284Y-182375000D02*
X197437142Y-179427142D01*
X194489284Y-183500000D02*
X194489284Y-182375000D01*
X209485712Y-182375000D02*
X212395356Y-179465356D01*
X209485712Y-183500000D02*
X209485712Y-182375000D01*
X227432140Y-179425000D02*
X227525000Y-179425000D01*
X224482140Y-182375000D02*
X227432140Y-179425000D01*
X224482140Y-183500000D02*
X224482140Y-182375000D01*
X239478568Y-182381432D02*
X239478568Y-183500000D01*
X242435000Y-179425000D02*
X239478568Y-182381432D01*
X254474996Y-182375000D02*
X257409998Y-179439998D01*
X254474996Y-183500000D02*
X254474996Y-182375000D01*
X272421424Y-179425000D02*
X272495000Y-179425000D01*
X269471424Y-182375000D02*
X272421424Y-179425000D01*
X269471424Y-183500000D02*
X269471424Y-182375000D01*
X284467852Y-182375000D02*
X287366426Y-179476426D01*
X284467852Y-183500000D02*
X284467852Y-182375000D01*
X299464280Y-182375000D02*
X302414280Y-179425000D01*
X299464280Y-183500000D02*
X299464280Y-182375000D01*
X314460708Y-182375000D02*
X317402854Y-179432854D01*
X314460708Y-183500000D02*
X314460708Y-182375000D01*
X329457136Y-182375000D02*
X332396068Y-179436068D01*
X329457136Y-183500000D02*
X329457136Y-182375000D01*
X344453564Y-182375000D02*
X347339282Y-179489282D01*
X344453564Y-183500000D02*
X344453564Y-182375000D01*
X359450000Y-182375000D02*
X362397500Y-179427500D01*
X359450000Y-183500000D02*
X359450000Y-182375000D01*
D18*
X373920000Y-175304924D02*
X373920000Y-173820000D01*
X389730000Y-179405000D02*
X389730000Y-177030000D01*
X387730000Y-181405000D02*
X389730000Y-179405000D01*
X387730000Y-183030000D02*
X387730000Y-181405000D01*
X382945001Y-176620001D02*
X387730000Y-181405000D01*
X374485077Y-175870001D02*
X382195001Y-175870001D01*
X382195001Y-175870001D02*
X382945001Y-176620001D01*
X373920000Y-175304924D02*
X374485077Y-175870001D01*
D17*
X117250000Y-181500000D02*
X119959990Y-184209990D01*
X141000000Y-182413600D02*
X141000000Y-181300000D01*
X139203610Y-184209990D02*
X141000000Y-182413600D01*
X119959990Y-184209990D02*
X139203610Y-184209990D01*
X147030002Y-178760000D02*
X141000000Y-178760000D01*
X147655001Y-178135001D02*
X147030002Y-178760000D01*
X368550000Y-178250000D02*
X147655001Y-178135001D01*
X368850000Y-178250000D02*
X368550000Y-178250000D01*
X368850000Y-178250000D02*
X376800000Y-178250000D01*
X144920030Y-185369970D02*
X150870000Y-179420000D01*
X107130030Y-185369970D02*
X144920030Y-185369970D01*
X103610000Y-188890000D02*
X107130030Y-185369970D01*
X163000000Y-177330000D02*
X106310000Y-177330000D01*
X103500000Y-174520000D02*
X103500000Y-171160000D01*
X106310000Y-177330000D02*
X103500000Y-174520000D01*
X112893020Y-185869980D02*
X174210020Y-185869980D01*
X109906000Y-188857000D02*
X112893020Y-185869980D01*
X177018000Y-183062000D02*
X177018000Y-179488000D01*
X174210020Y-185869980D02*
X177018000Y-183062000D01*
X109845000Y-171725685D02*
X114679315Y-176560000D01*
X109845000Y-171160000D02*
X109845000Y-171725685D01*
X114684316Y-176554999D02*
X191974999Y-176554999D01*
X191974999Y-176554999D02*
X192750000Y-177330000D01*
X114679315Y-176560000D02*
X114684316Y-176554999D01*
X116256000Y-188857000D02*
X118743010Y-186369990D01*
X118743010Y-186369990D02*
X204950010Y-186369990D01*
X207128000Y-184192000D02*
X207128000Y-179378000D01*
X204950010Y-186369990D02*
X207128000Y-184192000D01*
X116190000Y-171470000D02*
X120680000Y-175960000D01*
X116190000Y-171160000D02*
X116190000Y-171470000D01*
X221650000Y-175960000D02*
X222990000Y-177300000D01*
X120680000Y-175960000D02*
X221650000Y-175960000D01*
X122733000Y-188857000D02*
X124720000Y-186870000D01*
X124720000Y-186870000D02*
X236350000Y-186870000D01*
X237750000Y-185470000D02*
X237750000Y-179340000D01*
X236350000Y-186870000D02*
X237750000Y-185470000D01*
X122535000Y-171160000D02*
X126834990Y-175459990D01*
X251039990Y-175459990D02*
X252940000Y-177360000D01*
X126834990Y-175459990D02*
X251039990Y-175459990D01*
X267098000Y-179408000D02*
X267098000Y-184273989D01*
X129355999Y-188457001D02*
X128956000Y-188857000D01*
X130231011Y-187581989D02*
X129355999Y-188457001D01*
X263790000Y-187581989D02*
X130231011Y-187581989D01*
X267098000Y-184273989D02*
X263790000Y-187581989D01*
X128880000Y-171725685D02*
X132114295Y-174959980D01*
X128880000Y-171160000D02*
X128880000Y-171725685D01*
X280269980Y-174959980D02*
X282650000Y-177340000D01*
X132114295Y-174959980D02*
X280269980Y-174959980D01*
X136081001Y-188081999D02*
X293808001Y-188081999D01*
X135306000Y-188857000D02*
X136081001Y-188081999D01*
X297183000Y-184707000D02*
X297183000Y-179323000D01*
X293808001Y-188081999D02*
X297183000Y-184707000D01*
X135225000Y-171160000D02*
X138495000Y-174430000D01*
X309730000Y-174430000D02*
X312630000Y-177330000D01*
X138495000Y-174430000D02*
X309730000Y-174430000D01*
X141656000Y-188857000D02*
X326695000Y-188857000D01*
X327008000Y-188544000D02*
X327008000Y-179498000D01*
X326695000Y-188857000D02*
X327008000Y-188544000D01*
X141570000Y-171160000D02*
X144339990Y-173929990D01*
X339239990Y-173929990D02*
X342630000Y-177320000D01*
X144339990Y-173929990D02*
X339239990Y-173929990D01*
X357683000Y-177300000D02*
X353812980Y-173429980D01*
X353812980Y-173429980D02*
X339447100Y-173429980D01*
X148024990Y-173429980D02*
X147750000Y-173154990D01*
X339447100Y-173429980D02*
X148024990Y-173429980D01*
X144710719Y-183706990D02*
X143707709Y-184710000D01*
X145276404Y-183706990D02*
X144710719Y-183706990D01*
X110830000Y-184710000D02*
X107620000Y-181500000D01*
X143707709Y-184710000D02*
X110830000Y-184710000D01*
X152450000Y-179425000D02*
X152575000Y-179425000D01*
X149500000Y-182375000D02*
X152450000Y-179425000D01*
X149500000Y-183500000D02*
X149500000Y-182375000D01*
D19*
G36*
X394315000Y-189315000D02*
G01*
X327311801Y-189315000D01*
X327518998Y-189107803D01*
X327548001Y-189084001D01*
X327642974Y-188968276D01*
X327713546Y-188836247D01*
X327757003Y-188692986D01*
X327768000Y-188581333D01*
X327768000Y-188581323D01*
X327771676Y-188544000D01*
X327768000Y-188506677D01*
X327768000Y-180201711D01*
X327811937Y-180157774D01*
X327925205Y-179988256D01*
X328003226Y-179799898D01*
X328043000Y-179599939D01*
X328043000Y-179396061D01*
X328003226Y-179196102D01*
X327925205Y-179007744D01*
X327912576Y-178988844D01*
X331460274Y-178990691D01*
X331400842Y-179134170D01*
X331361068Y-179334129D01*
X331361068Y-179396265D01*
X328946134Y-181811201D01*
X328917136Y-181834999D01*
X328893338Y-181863997D01*
X328893337Y-181863998D01*
X328822162Y-181950724D01*
X328751590Y-182082754D01*
X328731571Y-182148750D01*
X328708134Y-182226014D01*
X328707500Y-182232447D01*
X328706417Y-182243451D01*
X328579635Y-182347498D01*
X328425304Y-182535551D01*
X328310625Y-182750099D01*
X328240006Y-182982898D01*
X328222136Y-183164335D01*
X328222136Y-183835664D01*
X328240006Y-184017101D01*
X328310625Y-184249900D01*
X328425303Y-184464448D01*
X328579634Y-184652502D01*
X328767687Y-184806833D01*
X328982235Y-184921511D01*
X329215034Y-184992130D01*
X329457136Y-185015975D01*
X329699237Y-184992130D01*
X329932036Y-184921511D01*
X330146584Y-184806833D01*
X330300445Y-184680564D01*
X330326599Y-184729494D01*
X330405951Y-184826185D01*
X330502642Y-184905537D01*
X330612956Y-184964502D01*
X330732654Y-185000812D01*
X330857136Y-185013072D01*
X331171386Y-185010000D01*
X331330136Y-184851250D01*
X331330136Y-183627000D01*
X331584136Y-183627000D01*
X331584136Y-184851250D01*
X331742886Y-185010000D01*
X332057136Y-185013072D01*
X332181618Y-185000812D01*
X332301316Y-184964502D01*
X332411630Y-184905537D01*
X332508321Y-184826185D01*
X332587673Y-184729494D01*
X332646638Y-184619180D01*
X332682948Y-184499482D01*
X332695208Y-184375000D01*
X332692136Y-183785750D01*
X332533386Y-183627000D01*
X331584136Y-183627000D01*
X331330136Y-183627000D01*
X331310136Y-183627000D01*
X331310136Y-183373000D01*
X331330136Y-183373000D01*
X331330136Y-182148750D01*
X331584136Y-182148750D01*
X331584136Y-183373000D01*
X332533386Y-183373000D01*
X332692136Y-183214250D01*
X332695208Y-182625000D01*
X332682948Y-182500518D01*
X332646638Y-182380820D01*
X332587673Y-182270506D01*
X332508321Y-182173815D01*
X332411630Y-182094463D01*
X332301316Y-182035498D01*
X332181618Y-181999188D01*
X332057136Y-181986928D01*
X331742886Y-181990000D01*
X331584136Y-182148750D01*
X331330136Y-182148750D01*
X331171386Y-181990000D01*
X330919401Y-181987537D01*
X332435871Y-180471068D01*
X332498007Y-180471068D01*
X332697966Y-180431294D01*
X332886324Y-180353273D01*
X333055842Y-180240005D01*
X333200005Y-180095842D01*
X333313273Y-179926324D01*
X333391294Y-179737966D01*
X333431068Y-179538007D01*
X333431068Y-179334129D01*
X333391294Y-179134170D01*
X333332266Y-178991665D01*
X346422442Y-178998480D01*
X346422077Y-178999026D01*
X346344056Y-179187384D01*
X346304282Y-179387343D01*
X346304282Y-179449480D01*
X343942562Y-181811201D01*
X343913564Y-181834999D01*
X343889766Y-181863997D01*
X343889765Y-181863998D01*
X343818590Y-181950724D01*
X343748018Y-182082754D01*
X343727999Y-182148750D01*
X343704562Y-182226014D01*
X343703928Y-182232447D01*
X343702845Y-182243451D01*
X343576063Y-182347498D01*
X343421732Y-182535551D01*
X343307053Y-182750099D01*
X343236434Y-182982898D01*
X343218564Y-183164335D01*
X343218564Y-183835664D01*
X343236434Y-184017101D01*
X343307053Y-184249900D01*
X343421731Y-184464448D01*
X343576062Y-184652502D01*
X343764115Y-184806833D01*
X343978663Y-184921511D01*
X344211462Y-184992130D01*
X344453564Y-185015975D01*
X344695665Y-184992130D01*
X344928464Y-184921511D01*
X345143012Y-184806833D01*
X345296873Y-184680564D01*
X345323027Y-184729494D01*
X345402379Y-184826185D01*
X345499070Y-184905537D01*
X345609384Y-184964502D01*
X345729082Y-185000812D01*
X345853564Y-185013072D01*
X346167814Y-185010000D01*
X346326564Y-184851250D01*
X346326564Y-183627000D01*
X346580564Y-183627000D01*
X346580564Y-184851250D01*
X346739314Y-185010000D01*
X347053564Y-185013072D01*
X347178046Y-185000812D01*
X347297744Y-184964502D01*
X347408058Y-184905537D01*
X347504749Y-184826185D01*
X347584101Y-184729494D01*
X347643066Y-184619180D01*
X347679376Y-184499482D01*
X347691636Y-184375000D01*
X347688564Y-183785750D01*
X347529814Y-183627000D01*
X346580564Y-183627000D01*
X346326564Y-183627000D01*
X346306564Y-183627000D01*
X346306564Y-183373000D01*
X346326564Y-183373000D01*
X346326564Y-182148750D01*
X346580564Y-182148750D01*
X346580564Y-183373000D01*
X347529814Y-183373000D01*
X347688564Y-183214250D01*
X347691636Y-182625000D01*
X347679376Y-182500518D01*
X347643066Y-182380820D01*
X347584101Y-182270506D01*
X347504749Y-182173815D01*
X347408058Y-182094463D01*
X347297744Y-182035498D01*
X347178046Y-181999188D01*
X347053564Y-181986928D01*
X346739314Y-181990000D01*
X346580564Y-182148750D01*
X346326564Y-182148750D01*
X346167814Y-181990000D01*
X345915829Y-181987537D01*
X347379084Y-180524282D01*
X347441221Y-180524282D01*
X347641180Y-180484508D01*
X347829538Y-180406487D01*
X347999056Y-180293219D01*
X348143219Y-180149056D01*
X348256487Y-179979538D01*
X348334508Y-179791180D01*
X348374282Y-179591221D01*
X348374282Y-179387343D01*
X348334508Y-179187384D01*
X348256656Y-178999435D01*
X361451689Y-179006304D01*
X361402274Y-179125602D01*
X361362500Y-179325561D01*
X361362500Y-179387697D01*
X358938998Y-181811201D01*
X358910000Y-181834999D01*
X358886202Y-181863997D01*
X358886201Y-181863998D01*
X358815026Y-181950724D01*
X358744454Y-182082754D01*
X358724435Y-182148750D01*
X358700998Y-182226014D01*
X358700364Y-182232447D01*
X358699281Y-182243451D01*
X358572499Y-182347498D01*
X358418168Y-182535551D01*
X358303489Y-182750099D01*
X358232870Y-182982898D01*
X358215000Y-183164335D01*
X358215000Y-183835664D01*
X358232870Y-184017101D01*
X358303489Y-184249900D01*
X358418167Y-184464448D01*
X358572498Y-184652502D01*
X358760551Y-184806833D01*
X358975099Y-184921511D01*
X359207898Y-184992130D01*
X359450000Y-185015975D01*
X359692101Y-184992130D01*
X359924900Y-184921511D01*
X360139448Y-184806833D01*
X360293309Y-184680564D01*
X360319463Y-184729494D01*
X360398815Y-184826185D01*
X360495506Y-184905537D01*
X360605820Y-184964502D01*
X360725518Y-185000812D01*
X360850000Y-185013072D01*
X361164250Y-185010000D01*
X361323000Y-184851250D01*
X361323000Y-183627000D01*
X361577000Y-183627000D01*
X361577000Y-184851250D01*
X361735750Y-185010000D01*
X362050000Y-185013072D01*
X362174482Y-185000812D01*
X362294180Y-184964502D01*
X362404494Y-184905537D01*
X362501185Y-184826185D01*
X362580537Y-184729494D01*
X362639502Y-184619180D01*
X362675812Y-184499482D01*
X362688072Y-184375000D01*
X362685000Y-183785750D01*
X362526250Y-183627000D01*
X361577000Y-183627000D01*
X361323000Y-183627000D01*
X361303000Y-183627000D01*
X361303000Y-183373000D01*
X361323000Y-183373000D01*
X361323000Y-182148750D01*
X361577000Y-182148750D01*
X361577000Y-183373000D01*
X362526250Y-183373000D01*
X362685000Y-183214250D01*
X362688072Y-182625000D01*
X362675812Y-182500518D01*
X362639502Y-182380820D01*
X362580537Y-182270506D01*
X362501185Y-182173815D01*
X362404494Y-182094463D01*
X362294180Y-182035498D01*
X362174482Y-181999188D01*
X362050000Y-181986928D01*
X361735750Y-181990000D01*
X361577000Y-182148750D01*
X361323000Y-182148750D01*
X361164250Y-181990000D01*
X360912265Y-181987537D01*
X362437303Y-180462500D01*
X362499439Y-180462500D01*
X362699398Y-180422726D01*
X362887756Y-180344705D01*
X363057274Y-180231437D01*
X363201437Y-180087274D01*
X363314705Y-179917756D01*
X363370161Y-179783872D01*
X377805618Y-179783872D01*
X377805618Y-180216128D01*
X377889947Y-180640078D01*
X378055364Y-181039430D01*
X378295512Y-181398837D01*
X378601163Y-181704488D01*
X378960570Y-181944636D01*
X379359922Y-182110053D01*
X379783872Y-182194382D01*
X380216128Y-182194382D01*
X380640078Y-182110053D01*
X381039430Y-181944636D01*
X381398837Y-181704488D01*
X381704488Y-181398837D01*
X381944636Y-181039430D01*
X382110053Y-180640078D01*
X382194382Y-180216128D01*
X382194382Y-179783872D01*
X382110053Y-179359922D01*
X381944636Y-178960570D01*
X381704488Y-178601163D01*
X381398837Y-178295512D01*
X381039430Y-178055364D01*
X380640078Y-177889947D01*
X380216128Y-177805618D01*
X379783872Y-177805618D01*
X379359922Y-177889947D01*
X378960570Y-178055364D01*
X378601163Y-178295512D01*
X378295512Y-178601163D01*
X378055364Y-178960570D01*
X377889947Y-179359922D01*
X377805618Y-179783872D01*
X363370161Y-179783872D01*
X363392726Y-179729398D01*
X363432500Y-179529439D01*
X363432500Y-179325561D01*
X363392726Y-179125602D01*
X363343719Y-179007289D01*
X368512466Y-179009980D01*
X368512667Y-179010000D01*
X368550441Y-179010000D01*
X368586937Y-179010019D01*
X368587131Y-179010000D01*
X376096289Y-179010000D01*
X376140226Y-179053937D01*
X376309744Y-179167205D01*
X376498102Y-179245226D01*
X376698061Y-179285000D01*
X376901939Y-179285000D01*
X377101898Y-179245226D01*
X377290256Y-179167205D01*
X377459774Y-179053937D01*
X377603937Y-178909774D01*
X377717205Y-178740256D01*
X377795226Y-178551898D01*
X377835000Y-178351939D01*
X377835000Y-178148061D01*
X377795226Y-177948102D01*
X377717205Y-177759744D01*
X377603937Y-177590226D01*
X377459774Y-177446063D01*
X377290256Y-177332795D01*
X377102446Y-177255001D01*
X381621316Y-177255001D01*
X386345000Y-181978685D01*
X386345000Y-183098036D01*
X386365040Y-183301506D01*
X386444236Y-183562580D01*
X386572843Y-183803187D01*
X386639069Y-183883884D01*
X386698167Y-183994448D01*
X386852498Y-184182502D01*
X387040551Y-184336833D01*
X387255099Y-184451511D01*
X387487898Y-184522130D01*
X387730000Y-184545975D01*
X387972101Y-184522130D01*
X388204900Y-184451511D01*
X388419448Y-184336833D01*
X388573309Y-184210564D01*
X388599463Y-184259494D01*
X388678815Y-184356185D01*
X388775506Y-184435537D01*
X388885820Y-184494502D01*
X389005518Y-184530812D01*
X389130000Y-184543072D01*
X389444250Y-184540000D01*
X389603000Y-184381250D01*
X389603000Y-183157000D01*
X389857000Y-183157000D01*
X389857000Y-184381250D01*
X390015750Y-184540000D01*
X390330000Y-184543072D01*
X390454482Y-184530812D01*
X390574180Y-184494502D01*
X390684494Y-184435537D01*
X390781185Y-184356185D01*
X390860537Y-184259494D01*
X390919502Y-184149180D01*
X390955812Y-184029482D01*
X390968072Y-183905000D01*
X390965000Y-183315750D01*
X390806250Y-183157000D01*
X389857000Y-183157000D01*
X389603000Y-183157000D01*
X389583000Y-183157000D01*
X389583000Y-182903000D01*
X389603000Y-182903000D01*
X389603000Y-181678750D01*
X389857000Y-181678750D01*
X389857000Y-182903000D01*
X390806250Y-182903000D01*
X390965000Y-182744250D01*
X390968072Y-182155000D01*
X390955812Y-182030518D01*
X390919502Y-181910820D01*
X390860537Y-181800506D01*
X390781185Y-181703815D01*
X390684494Y-181624463D01*
X390574180Y-181565498D01*
X390454482Y-181529188D01*
X390330000Y-181516928D01*
X390015750Y-181520000D01*
X389857000Y-181678750D01*
X389603000Y-181678750D01*
X389508968Y-181584718D01*
X390661241Y-180432445D01*
X390714080Y-180389081D01*
X390757445Y-180336241D01*
X390757452Y-180336234D01*
X390887156Y-180178189D01*
X390887157Y-180178188D01*
X391015764Y-179937581D01*
X391094960Y-179676507D01*
X391115000Y-179473037D01*
X391115000Y-179473028D01*
X391121700Y-179405001D01*
X391115000Y-179336974D01*
X391115000Y-176961963D01*
X391094960Y-176758493D01*
X391015764Y-176497419D01*
X390887157Y-176256812D01*
X390820931Y-176176115D01*
X390761833Y-176065551D01*
X390607502Y-175877498D01*
X390419448Y-175723167D01*
X390204900Y-175608489D01*
X389972101Y-175537870D01*
X389730000Y-175514025D01*
X389487898Y-175537870D01*
X389255099Y-175608489D01*
X389040551Y-175723167D01*
X388886691Y-175849436D01*
X388860537Y-175800506D01*
X388781185Y-175703815D01*
X388684494Y-175624463D01*
X388574180Y-175565498D01*
X388454482Y-175529188D01*
X388330000Y-175516928D01*
X388015750Y-175520000D01*
X387857000Y-175678750D01*
X387857000Y-176903000D01*
X387877000Y-176903000D01*
X387877000Y-177157000D01*
X387857000Y-177157000D01*
X387857000Y-178381250D01*
X388015750Y-178540000D01*
X388330000Y-178543072D01*
X388345000Y-178541595D01*
X388345000Y-178831314D01*
X387730000Y-179446315D01*
X386188685Y-177905000D01*
X386491928Y-177905000D01*
X386504188Y-178029482D01*
X386540498Y-178149180D01*
X386599463Y-178259494D01*
X386678815Y-178356185D01*
X386775506Y-178435537D01*
X386885820Y-178494502D01*
X387005518Y-178530812D01*
X387130000Y-178543072D01*
X387444250Y-178540000D01*
X387603000Y-178381250D01*
X387603000Y-177157000D01*
X386653750Y-177157000D01*
X386495000Y-177315750D01*
X386491928Y-177905000D01*
X386188685Y-177905000D01*
X384438685Y-176155000D01*
X386491928Y-176155000D01*
X386495000Y-176744250D01*
X386653750Y-176903000D01*
X387603000Y-176903000D01*
X387603000Y-175678750D01*
X387444250Y-175520000D01*
X387130000Y-175516928D01*
X387005518Y-175529188D01*
X386885820Y-175565498D01*
X386775506Y-175624463D01*
X386678815Y-175703815D01*
X386599463Y-175800506D01*
X386540498Y-175910820D01*
X386504188Y-176030518D01*
X386491928Y-176155000D01*
X384438685Y-176155000D01*
X383222453Y-174938768D01*
X383179082Y-174885920D01*
X382968189Y-174712844D01*
X382727582Y-174584237D01*
X382466508Y-174505041D01*
X382263038Y-174485001D01*
X382263030Y-174485001D01*
X382195001Y-174478301D01*
X382126972Y-174485001D01*
X378148072Y-174485001D01*
X378148072Y-172770000D01*
X378135812Y-172645518D01*
X378099502Y-172525820D01*
X378040537Y-172415506D01*
X377961185Y-172318815D01*
X377864494Y-172239463D01*
X377754180Y-172180498D01*
X377634482Y-172144188D01*
X377510000Y-172131928D01*
X375410000Y-172131928D01*
X375285518Y-172144188D01*
X375165820Y-172180498D01*
X375055506Y-172239463D01*
X374958815Y-172318815D01*
X374879463Y-172415506D01*
X374871958Y-172429546D01*
X374718147Y-172326772D01*
X374411496Y-172199754D01*
X374085958Y-172135000D01*
X373754042Y-172135000D01*
X373428504Y-172199754D01*
X373121853Y-172326772D01*
X372845875Y-172511175D01*
X372611175Y-172745875D01*
X372426772Y-173021853D01*
X372299754Y-173328504D01*
X372235000Y-173654042D01*
X372235000Y-173985958D01*
X372299754Y-174311496D01*
X372426772Y-174618147D01*
X372535000Y-174780121D01*
X372535000Y-175236895D01*
X372528300Y-175304924D01*
X372535000Y-175372953D01*
X372535000Y-175372960D01*
X372548894Y-175514025D01*
X372555040Y-175576431D01*
X372620227Y-175791323D01*
X372634236Y-175837504D01*
X372756131Y-176065552D01*
X372762844Y-176078112D01*
X372870255Y-176208992D01*
X372935919Y-176289004D01*
X372988765Y-176332374D01*
X373457623Y-176801232D01*
X373500996Y-176854082D01*
X373711889Y-177027158D01*
X373952496Y-177155765D01*
X374213570Y-177234961D01*
X374414736Y-177254774D01*
X374485077Y-177261702D01*
X374553114Y-177255001D01*
X376497554Y-177255001D01*
X376309744Y-177332795D01*
X376140226Y-177446063D01*
X376096289Y-177490000D01*
X368549311Y-177490000D01*
X358701503Y-177484873D01*
X358718000Y-177401939D01*
X358718000Y-177198061D01*
X358678226Y-176998102D01*
X358600205Y-176809744D01*
X358486937Y-176640226D01*
X358342774Y-176496063D01*
X358173256Y-176382795D01*
X357984898Y-176304774D01*
X357784939Y-176265000D01*
X357722802Y-176265000D01*
X354376784Y-172918983D01*
X354352981Y-172889979D01*
X354237256Y-172795006D01*
X354105227Y-172724434D01*
X353961966Y-172680977D01*
X353850313Y-172669980D01*
X353850302Y-172669980D01*
X353812980Y-172666304D01*
X353775658Y-172669980D01*
X148669378Y-172669980D01*
X148667205Y-172664734D01*
X148553937Y-172495216D01*
X148409774Y-172351053D01*
X148240256Y-172237785D01*
X148051898Y-172159764D01*
X147851939Y-172119990D01*
X147648061Y-172119990D01*
X147448102Y-172159764D01*
X147259744Y-172237785D01*
X147090226Y-172351053D01*
X146946063Y-172495216D01*
X146832795Y-172664734D01*
X146754774Y-172853092D01*
X146715000Y-173053051D01*
X146715000Y-173169990D01*
X144654793Y-173169990D01*
X142605000Y-171120199D01*
X142605000Y-171058061D01*
X142565226Y-170858102D01*
X142493524Y-170685000D01*
X394315001Y-170685000D01*
X394315000Y-189315000D01*
G37*
X394315000Y-189315000D02*
X327311801Y-189315000D01*
X327518998Y-189107803D01*
X327548001Y-189084001D01*
X327642974Y-188968276D01*
X327713546Y-188836247D01*
X327757003Y-188692986D01*
X327768000Y-188581333D01*
X327768000Y-188581323D01*
X327771676Y-188544000D01*
X327768000Y-188506677D01*
X327768000Y-180201711D01*
X327811937Y-180157774D01*
X327925205Y-179988256D01*
X328003226Y-179799898D01*
X328043000Y-179599939D01*
X328043000Y-179396061D01*
X328003226Y-179196102D01*
X327925205Y-179007744D01*
X327912576Y-178988844D01*
X331460274Y-178990691D01*
X331400842Y-179134170D01*
X331361068Y-179334129D01*
X331361068Y-179396265D01*
X328946134Y-181811201D01*
X328917136Y-181834999D01*
X328893338Y-181863997D01*
X328893337Y-181863998D01*
X328822162Y-181950724D01*
X328751590Y-182082754D01*
X328731571Y-182148750D01*
X328708134Y-182226014D01*
X328707500Y-182232447D01*
X328706417Y-182243451D01*
X328579635Y-182347498D01*
X328425304Y-182535551D01*
X328310625Y-182750099D01*
X328240006Y-182982898D01*
X328222136Y-183164335D01*
X328222136Y-183835664D01*
X328240006Y-184017101D01*
X328310625Y-184249900D01*
X328425303Y-184464448D01*
X328579634Y-184652502D01*
X328767687Y-184806833D01*
X328982235Y-184921511D01*
X329215034Y-184992130D01*
X329457136Y-185015975D01*
X329699237Y-184992130D01*
X329932036Y-184921511D01*
X330146584Y-184806833D01*
X330300445Y-184680564D01*
X330326599Y-184729494D01*
X330405951Y-184826185D01*
X330502642Y-184905537D01*
X330612956Y-184964502D01*
X330732654Y-185000812D01*
X330857136Y-185013072D01*
X331171386Y-185010000D01*
X331330136Y-184851250D01*
X331330136Y-183627000D01*
X331584136Y-183627000D01*
X331584136Y-184851250D01*
X331742886Y-185010000D01*
X332057136Y-185013072D01*
X332181618Y-185000812D01*
X332301316Y-184964502D01*
X332411630Y-184905537D01*
X332508321Y-184826185D01*
X332587673Y-184729494D01*
X332646638Y-184619180D01*
X332682948Y-184499482D01*
X332695208Y-184375000D01*
X332692136Y-183785750D01*
X332533386Y-183627000D01*
X331584136Y-183627000D01*
X331330136Y-183627000D01*
X331310136Y-183627000D01*
X331310136Y-183373000D01*
X331330136Y-183373000D01*
X331330136Y-182148750D01*
X331584136Y-182148750D01*
X331584136Y-183373000D01*
X332533386Y-183373000D01*
X332692136Y-183214250D01*
X332695208Y-182625000D01*
X332682948Y-182500518D01*
X332646638Y-182380820D01*
X332587673Y-182270506D01*
X332508321Y-182173815D01*
X332411630Y-182094463D01*
X332301316Y-182035498D01*
X332181618Y-181999188D01*
X332057136Y-181986928D01*
X331742886Y-181990000D01*
X331584136Y-182148750D01*
X331330136Y-182148750D01*
X331171386Y-181990000D01*
X330919401Y-181987537D01*
X332435871Y-180471068D01*
X332498007Y-180471068D01*
X332697966Y-180431294D01*
X332886324Y-180353273D01*
X333055842Y-180240005D01*
X333200005Y-180095842D01*
X333313273Y-179926324D01*
X333391294Y-179737966D01*
X333431068Y-179538007D01*
X333431068Y-179334129D01*
X333391294Y-179134170D01*
X333332266Y-178991665D01*
X346422442Y-178998480D01*
X346422077Y-178999026D01*
X346344056Y-179187384D01*
X346304282Y-179387343D01*
X346304282Y-179449480D01*
X343942562Y-181811201D01*
X343913564Y-181834999D01*
X343889766Y-181863997D01*
X343889765Y-181863998D01*
X343818590Y-181950724D01*
X343748018Y-182082754D01*
X343727999Y-182148750D01*
X343704562Y-182226014D01*
X343703928Y-182232447D01*
X343702845Y-182243451D01*
X343576063Y-182347498D01*
X343421732Y-182535551D01*
X343307053Y-182750099D01*
X343236434Y-182982898D01*
X343218564Y-183164335D01*
X343218564Y-183835664D01*
X343236434Y-184017101D01*
X343307053Y-184249900D01*
X343421731Y-184464448D01*
X343576062Y-184652502D01*
X343764115Y-184806833D01*
X343978663Y-184921511D01*
X344211462Y-184992130D01*
X344453564Y-185015975D01*
X344695665Y-184992130D01*
X344928464Y-184921511D01*
X345143012Y-184806833D01*
X345296873Y-184680564D01*
X345323027Y-184729494D01*
X345402379Y-184826185D01*
X345499070Y-184905537D01*
X345609384Y-184964502D01*
X345729082Y-185000812D01*
X345853564Y-185013072D01*
X346167814Y-185010000D01*
X346326564Y-184851250D01*
X346326564Y-183627000D01*
X346580564Y-183627000D01*
X346580564Y-184851250D01*
X346739314Y-185010000D01*
X347053564Y-185013072D01*
X347178046Y-185000812D01*
X347297744Y-184964502D01*
X347408058Y-184905537D01*
X347504749Y-184826185D01*
X347584101Y-184729494D01*
X347643066Y-184619180D01*
X347679376Y-184499482D01*
X347691636Y-184375000D01*
X347688564Y-183785750D01*
X347529814Y-183627000D01*
X346580564Y-183627000D01*
X346326564Y-183627000D01*
X346306564Y-183627000D01*
X346306564Y-183373000D01*
X346326564Y-183373000D01*
X346326564Y-182148750D01*
X346580564Y-182148750D01*
X346580564Y-183373000D01*
X347529814Y-183373000D01*
X347688564Y-183214250D01*
X347691636Y-182625000D01*
X347679376Y-182500518D01*
X347643066Y-182380820D01*
X347584101Y-182270506D01*
X347504749Y-182173815D01*
X347408058Y-182094463D01*
X347297744Y-182035498D01*
X347178046Y-181999188D01*
X347053564Y-181986928D01*
X346739314Y-181990000D01*
X346580564Y-182148750D01*
X346326564Y-182148750D01*
X346167814Y-181990000D01*
X345915829Y-181987537D01*
X347379084Y-180524282D01*
X347441221Y-180524282D01*
X347641180Y-180484508D01*
X347829538Y-180406487D01*
X347999056Y-180293219D01*
X348143219Y-180149056D01*
X348256487Y-179979538D01*
X348334508Y-179791180D01*
X348374282Y-179591221D01*
X348374282Y-179387343D01*
X348334508Y-179187384D01*
X348256656Y-178999435D01*
X361451689Y-179006304D01*
X361402274Y-179125602D01*
X361362500Y-179325561D01*
X361362500Y-179387697D01*
X358938998Y-181811201D01*
X358910000Y-181834999D01*
X358886202Y-181863997D01*
X358886201Y-181863998D01*
X358815026Y-181950724D01*
X358744454Y-182082754D01*
X358724435Y-182148750D01*
X358700998Y-182226014D01*
X358700364Y-182232447D01*
X358699281Y-182243451D01*
X358572499Y-182347498D01*
X358418168Y-182535551D01*
X358303489Y-182750099D01*
X358232870Y-182982898D01*
X358215000Y-183164335D01*
X358215000Y-183835664D01*
X358232870Y-184017101D01*
X358303489Y-184249900D01*
X358418167Y-184464448D01*
X358572498Y-184652502D01*
X358760551Y-184806833D01*
X358975099Y-184921511D01*
X359207898Y-184992130D01*
X359450000Y-185015975D01*
X359692101Y-184992130D01*
X359924900Y-184921511D01*
X360139448Y-184806833D01*
X360293309Y-184680564D01*
X360319463Y-184729494D01*
X360398815Y-184826185D01*
X360495506Y-184905537D01*
X360605820Y-184964502D01*
X360725518Y-185000812D01*
X360850000Y-185013072D01*
X361164250Y-185010000D01*
X361323000Y-184851250D01*
X361323000Y-183627000D01*
X361577000Y-183627000D01*
X361577000Y-184851250D01*
X361735750Y-185010000D01*
X362050000Y-185013072D01*
X362174482Y-185000812D01*
X362294180Y-184964502D01*
X362404494Y-184905537D01*
X362501185Y-184826185D01*
X362580537Y-184729494D01*
X362639502Y-184619180D01*
X362675812Y-184499482D01*
X362688072Y-184375000D01*
X362685000Y-183785750D01*
X362526250Y-183627000D01*
X361577000Y-183627000D01*
X361323000Y-183627000D01*
X361303000Y-183627000D01*
X361303000Y-183373000D01*
X361323000Y-183373000D01*
X361323000Y-182148750D01*
X361577000Y-182148750D01*
X361577000Y-183373000D01*
X362526250Y-183373000D01*
X362685000Y-183214250D01*
X362688072Y-182625000D01*
X362675812Y-182500518D01*
X362639502Y-182380820D01*
X362580537Y-182270506D01*
X362501185Y-182173815D01*
X362404494Y-182094463D01*
X362294180Y-182035498D01*
X362174482Y-181999188D01*
X362050000Y-181986928D01*
X361735750Y-181990000D01*
X361577000Y-182148750D01*
X361323000Y-182148750D01*
X361164250Y-181990000D01*
X360912265Y-181987537D01*
X362437303Y-180462500D01*
X362499439Y-180462500D01*
X362699398Y-180422726D01*
X362887756Y-180344705D01*
X363057274Y-180231437D01*
X363201437Y-180087274D01*
X363314705Y-179917756D01*
X363370161Y-179783872D01*
X377805618Y-179783872D01*
X377805618Y-180216128D01*
X377889947Y-180640078D01*
X378055364Y-181039430D01*
X378295512Y-181398837D01*
X378601163Y-181704488D01*
X378960570Y-181944636D01*
X379359922Y-182110053D01*
X379783872Y-182194382D01*
X380216128Y-182194382D01*
X380640078Y-182110053D01*
X381039430Y-181944636D01*
X381398837Y-181704488D01*
X381704488Y-181398837D01*
X381944636Y-181039430D01*
X382110053Y-180640078D01*
X382194382Y-180216128D01*
X382194382Y-179783872D01*
X382110053Y-179359922D01*
X381944636Y-178960570D01*
X381704488Y-178601163D01*
X381398837Y-178295512D01*
X381039430Y-178055364D01*
X380640078Y-177889947D01*
X380216128Y-177805618D01*
X379783872Y-177805618D01*
X379359922Y-177889947D01*
X378960570Y-178055364D01*
X378601163Y-178295512D01*
X378295512Y-178601163D01*
X378055364Y-178960570D01*
X377889947Y-179359922D01*
X377805618Y-179783872D01*
X363370161Y-179783872D01*
X363392726Y-179729398D01*
X363432500Y-179529439D01*
X363432500Y-179325561D01*
X363392726Y-179125602D01*
X363343719Y-179007289D01*
X368512466Y-179009980D01*
X368512667Y-179010000D01*
X368550441Y-179010000D01*
X368586937Y-179010019D01*
X368587131Y-179010000D01*
X376096289Y-179010000D01*
X376140226Y-179053937D01*
X376309744Y-179167205D01*
X376498102Y-179245226D01*
X376698061Y-179285000D01*
X376901939Y-179285000D01*
X377101898Y-179245226D01*
X377290256Y-179167205D01*
X377459774Y-179053937D01*
X377603937Y-178909774D01*
X377717205Y-178740256D01*
X377795226Y-178551898D01*
X377835000Y-178351939D01*
X377835000Y-178148061D01*
X377795226Y-177948102D01*
X377717205Y-177759744D01*
X377603937Y-177590226D01*
X377459774Y-177446063D01*
X377290256Y-177332795D01*
X377102446Y-177255001D01*
X381621316Y-177255001D01*
X386345000Y-181978685D01*
X386345000Y-183098036D01*
X386365040Y-183301506D01*
X386444236Y-183562580D01*
X386572843Y-183803187D01*
X386639069Y-183883884D01*
X386698167Y-183994448D01*
X386852498Y-184182502D01*
X387040551Y-184336833D01*
X387255099Y-184451511D01*
X387487898Y-184522130D01*
X387730000Y-184545975D01*
X387972101Y-184522130D01*
X388204900Y-184451511D01*
X388419448Y-184336833D01*
X388573309Y-184210564D01*
X388599463Y-184259494D01*
X388678815Y-184356185D01*
X388775506Y-184435537D01*
X388885820Y-184494502D01*
X389005518Y-184530812D01*
X389130000Y-184543072D01*
X389444250Y-184540000D01*
X389603000Y-184381250D01*
X389603000Y-183157000D01*
X389857000Y-183157000D01*
X389857000Y-184381250D01*
X390015750Y-184540000D01*
X390330000Y-184543072D01*
X390454482Y-184530812D01*
X390574180Y-184494502D01*
X390684494Y-184435537D01*
X390781185Y-184356185D01*
X390860537Y-184259494D01*
X390919502Y-184149180D01*
X390955812Y-184029482D01*
X390968072Y-183905000D01*
X390965000Y-183315750D01*
X390806250Y-183157000D01*
X389857000Y-183157000D01*
X389603000Y-183157000D01*
X389583000Y-183157000D01*
X389583000Y-182903000D01*
X389603000Y-182903000D01*
X389603000Y-181678750D01*
X389857000Y-181678750D01*
X389857000Y-182903000D01*
X390806250Y-182903000D01*
X390965000Y-182744250D01*
X390968072Y-182155000D01*
X390955812Y-182030518D01*
X390919502Y-181910820D01*
X390860537Y-181800506D01*
X390781185Y-181703815D01*
X390684494Y-181624463D01*
X390574180Y-181565498D01*
X390454482Y-181529188D01*
X390330000Y-181516928D01*
X390015750Y-181520000D01*
X389857000Y-181678750D01*
X389603000Y-181678750D01*
X389508968Y-181584718D01*
X390661241Y-180432445D01*
X390714080Y-180389081D01*
X390757445Y-180336241D01*
X390757452Y-180336234D01*
X390887156Y-180178189D01*
X390887157Y-180178188D01*
X391015764Y-179937581D01*
X391094960Y-179676507D01*
X391115000Y-179473037D01*
X391115000Y-179473028D01*
X391121700Y-179405001D01*
X391115000Y-179336974D01*
X391115000Y-176961963D01*
X391094960Y-176758493D01*
X391015764Y-176497419D01*
X390887157Y-176256812D01*
X390820931Y-176176115D01*
X390761833Y-176065551D01*
X390607502Y-175877498D01*
X390419448Y-175723167D01*
X390204900Y-175608489D01*
X389972101Y-175537870D01*
X389730000Y-175514025D01*
X389487898Y-175537870D01*
X389255099Y-175608489D01*
X389040551Y-175723167D01*
X388886691Y-175849436D01*
X388860537Y-175800506D01*
X388781185Y-175703815D01*
X388684494Y-175624463D01*
X388574180Y-175565498D01*
X388454482Y-175529188D01*
X388330000Y-175516928D01*
X388015750Y-175520000D01*
X387857000Y-175678750D01*
X387857000Y-176903000D01*
X387877000Y-176903000D01*
X387877000Y-177157000D01*
X387857000Y-177157000D01*
X387857000Y-178381250D01*
X388015750Y-178540000D01*
X388330000Y-178543072D01*
X388345000Y-178541595D01*
X388345000Y-178831314D01*
X387730000Y-179446315D01*
X386188685Y-177905000D01*
X386491928Y-177905000D01*
X386504188Y-178029482D01*
X386540498Y-178149180D01*
X386599463Y-178259494D01*
X386678815Y-178356185D01*
X386775506Y-178435537D01*
X386885820Y-178494502D01*
X387005518Y-178530812D01*
X387130000Y-178543072D01*
X387444250Y-178540000D01*
X387603000Y-178381250D01*
X387603000Y-177157000D01*
X386653750Y-177157000D01*
X386495000Y-177315750D01*
X386491928Y-177905000D01*
X386188685Y-177905000D01*
X384438685Y-176155000D01*
X386491928Y-176155000D01*
X386495000Y-176744250D01*
X386653750Y-176903000D01*
X387603000Y-176903000D01*
X387603000Y-175678750D01*
X387444250Y-175520000D01*
X387130000Y-175516928D01*
X387005518Y-175529188D01*
X386885820Y-175565498D01*
X386775506Y-175624463D01*
X386678815Y-175703815D01*
X386599463Y-175800506D01*
X386540498Y-175910820D01*
X386504188Y-176030518D01*
X386491928Y-176155000D01*
X384438685Y-176155000D01*
X383222453Y-174938768D01*
X383179082Y-174885920D01*
X382968189Y-174712844D01*
X382727582Y-174584237D01*
X382466508Y-174505041D01*
X382263038Y-174485001D01*
X382263030Y-174485001D01*
X382195001Y-174478301D01*
X382126972Y-174485001D01*
X378148072Y-174485001D01*
X378148072Y-172770000D01*
X378135812Y-172645518D01*
X378099502Y-172525820D01*
X378040537Y-172415506D01*
X377961185Y-172318815D01*
X377864494Y-172239463D01*
X377754180Y-172180498D01*
X377634482Y-172144188D01*
X377510000Y-172131928D01*
X375410000Y-172131928D01*
X375285518Y-172144188D01*
X375165820Y-172180498D01*
X375055506Y-172239463D01*
X374958815Y-172318815D01*
X374879463Y-172415506D01*
X374871958Y-172429546D01*
X374718147Y-172326772D01*
X374411496Y-172199754D01*
X374085958Y-172135000D01*
X373754042Y-172135000D01*
X373428504Y-172199754D01*
X373121853Y-172326772D01*
X372845875Y-172511175D01*
X372611175Y-172745875D01*
X372426772Y-173021853D01*
X372299754Y-173328504D01*
X372235000Y-173654042D01*
X372235000Y-173985958D01*
X372299754Y-174311496D01*
X372426772Y-174618147D01*
X372535000Y-174780121D01*
X372535000Y-175236895D01*
X372528300Y-175304924D01*
X372535000Y-175372953D01*
X372535000Y-175372960D01*
X372548894Y-175514025D01*
X372555040Y-175576431D01*
X372620227Y-175791323D01*
X372634236Y-175837504D01*
X372756131Y-176065552D01*
X372762844Y-176078112D01*
X372870255Y-176208992D01*
X372935919Y-176289004D01*
X372988765Y-176332374D01*
X373457623Y-176801232D01*
X373500996Y-176854082D01*
X373711889Y-177027158D01*
X373952496Y-177155765D01*
X374213570Y-177234961D01*
X374414736Y-177254774D01*
X374485077Y-177261702D01*
X374553114Y-177255001D01*
X376497554Y-177255001D01*
X376309744Y-177332795D01*
X376140226Y-177446063D01*
X376096289Y-177490000D01*
X368549311Y-177490000D01*
X358701503Y-177484873D01*
X358718000Y-177401939D01*
X358718000Y-177198061D01*
X358678226Y-176998102D01*
X358600205Y-176809744D01*
X358486937Y-176640226D01*
X358342774Y-176496063D01*
X358173256Y-176382795D01*
X357984898Y-176304774D01*
X357784939Y-176265000D01*
X357722802Y-176265000D01*
X354376784Y-172918983D01*
X354352981Y-172889979D01*
X354237256Y-172795006D01*
X354105227Y-172724434D01*
X353961966Y-172680977D01*
X353850313Y-172669980D01*
X353850302Y-172669980D01*
X353812980Y-172666304D01*
X353775658Y-172669980D01*
X148669378Y-172669980D01*
X148667205Y-172664734D01*
X148553937Y-172495216D01*
X148409774Y-172351053D01*
X148240256Y-172237785D01*
X148051898Y-172159764D01*
X147851939Y-172119990D01*
X147648061Y-172119990D01*
X147448102Y-172159764D01*
X147259744Y-172237785D01*
X147090226Y-172351053D01*
X146946063Y-172495216D01*
X146832795Y-172664734D01*
X146754774Y-172853092D01*
X146715000Y-173053051D01*
X146715000Y-173169990D01*
X144654793Y-173169990D01*
X142605000Y-171120199D01*
X142605000Y-171058061D01*
X142565226Y-170858102D01*
X142493524Y-170685000D01*
X394315001Y-170685000D01*
X394315000Y-189315000D01*
G36*
X301480366Y-178975083D02*
G01*
X301419054Y-179123102D01*
X301379280Y-179323061D01*
X301379280Y-179385198D01*
X298953278Y-181811201D01*
X298924280Y-181834999D01*
X298900482Y-181863997D01*
X298900481Y-181863998D01*
X298829306Y-181950724D01*
X298758734Y-182082754D01*
X298738715Y-182148750D01*
X298715278Y-182226014D01*
X298714644Y-182232447D01*
X298713561Y-182243451D01*
X298586779Y-182347498D01*
X298432448Y-182535551D01*
X298317769Y-182750099D01*
X298247150Y-182982898D01*
X298229280Y-183164335D01*
X298229280Y-183835664D01*
X298247150Y-184017101D01*
X298317769Y-184249900D01*
X298432447Y-184464448D01*
X298586778Y-184652502D01*
X298774831Y-184806833D01*
X298989379Y-184921511D01*
X299222178Y-184992130D01*
X299464280Y-185015975D01*
X299706381Y-184992130D01*
X299939180Y-184921511D01*
X300153728Y-184806833D01*
X300307589Y-184680564D01*
X300333743Y-184729494D01*
X300413095Y-184826185D01*
X300509786Y-184905537D01*
X300620100Y-184964502D01*
X300739798Y-185000812D01*
X300864280Y-185013072D01*
X301178530Y-185010000D01*
X301337280Y-184851250D01*
X301337280Y-183627000D01*
X301591280Y-183627000D01*
X301591280Y-184851250D01*
X301750030Y-185010000D01*
X302064280Y-185013072D01*
X302188762Y-185000812D01*
X302308460Y-184964502D01*
X302418774Y-184905537D01*
X302515465Y-184826185D01*
X302594817Y-184729494D01*
X302653782Y-184619180D01*
X302690092Y-184499482D01*
X302702352Y-184375000D01*
X302699280Y-183785750D01*
X302540530Y-183627000D01*
X301591280Y-183627000D01*
X301337280Y-183627000D01*
X301317280Y-183627000D01*
X301317280Y-183373000D01*
X301337280Y-183373000D01*
X301337280Y-182148750D01*
X301591280Y-182148750D01*
X301591280Y-183373000D01*
X302540530Y-183373000D01*
X302699280Y-183214250D01*
X302702352Y-182625000D01*
X302690092Y-182500518D01*
X302653782Y-182380820D01*
X302594817Y-182270506D01*
X302515465Y-182173815D01*
X302418774Y-182094463D01*
X302308460Y-182035498D01*
X302188762Y-181999188D01*
X302064280Y-181986928D01*
X301750030Y-181990000D01*
X301591280Y-182148750D01*
X301337280Y-182148750D01*
X301178530Y-181990000D01*
X300926545Y-181987537D01*
X302454082Y-180460000D01*
X302516219Y-180460000D01*
X302716178Y-180420226D01*
X302904536Y-180342205D01*
X303074054Y-180228937D01*
X303218217Y-180084774D01*
X303331485Y-179915256D01*
X303409506Y-179726898D01*
X303449280Y-179526939D01*
X303449280Y-179323061D01*
X303409506Y-179123102D01*
X303348597Y-178976056D01*
X316468961Y-178982886D01*
X316407628Y-179130956D01*
X316367854Y-179330915D01*
X316367854Y-179393052D01*
X313949706Y-181811201D01*
X313920708Y-181834999D01*
X313896910Y-181863997D01*
X313896909Y-181863998D01*
X313825734Y-181950724D01*
X313755162Y-182082754D01*
X313735143Y-182148750D01*
X313711706Y-182226014D01*
X313711072Y-182232447D01*
X313709989Y-182243451D01*
X313583207Y-182347498D01*
X313428876Y-182535551D01*
X313314197Y-182750099D01*
X313243578Y-182982898D01*
X313225708Y-183164335D01*
X313225708Y-183835664D01*
X313243578Y-184017101D01*
X313314197Y-184249900D01*
X313428875Y-184464448D01*
X313583206Y-184652502D01*
X313771259Y-184806833D01*
X313985807Y-184921511D01*
X314218606Y-184992130D01*
X314460708Y-185015975D01*
X314702809Y-184992130D01*
X314935608Y-184921511D01*
X315150156Y-184806833D01*
X315304017Y-184680564D01*
X315330171Y-184729494D01*
X315409523Y-184826185D01*
X315506214Y-184905537D01*
X315616528Y-184964502D01*
X315736226Y-185000812D01*
X315860708Y-185013072D01*
X316174958Y-185010000D01*
X316333708Y-184851250D01*
X316333708Y-183627000D01*
X316587708Y-183627000D01*
X316587708Y-184851250D01*
X316746458Y-185010000D01*
X317060708Y-185013072D01*
X317185190Y-185000812D01*
X317304888Y-184964502D01*
X317415202Y-184905537D01*
X317511893Y-184826185D01*
X317591245Y-184729494D01*
X317650210Y-184619180D01*
X317686520Y-184499482D01*
X317698780Y-184375000D01*
X317695708Y-183785750D01*
X317536958Y-183627000D01*
X316587708Y-183627000D01*
X316333708Y-183627000D01*
X316313708Y-183627000D01*
X316313708Y-183373000D01*
X316333708Y-183373000D01*
X316333708Y-182148750D01*
X316587708Y-182148750D01*
X316587708Y-183373000D01*
X317536958Y-183373000D01*
X317695708Y-183214250D01*
X317698780Y-182625000D01*
X317686520Y-182500518D01*
X317650210Y-182380820D01*
X317591245Y-182270506D01*
X317511893Y-182173815D01*
X317415202Y-182094463D01*
X317304888Y-182035498D01*
X317185190Y-181999188D01*
X317060708Y-181986928D01*
X316746458Y-181990000D01*
X316587708Y-182148750D01*
X316333708Y-182148750D01*
X316174958Y-181990000D01*
X315922973Y-181987537D01*
X317442656Y-180467854D01*
X317504793Y-180467854D01*
X317704752Y-180428080D01*
X317893110Y-180350059D01*
X318062628Y-180236791D01*
X318206791Y-180092628D01*
X318320059Y-179923110D01*
X318398080Y-179734752D01*
X318437854Y-179534793D01*
X318437854Y-179330915D01*
X318398080Y-179130956D01*
X318337150Y-178983859D01*
X326104053Y-178987902D01*
X326090795Y-179007744D01*
X326012774Y-179196102D01*
X325973000Y-179396061D01*
X325973000Y-179599939D01*
X326012774Y-179799898D01*
X326090795Y-179988256D01*
X326204063Y-180157774D01*
X326248001Y-180201712D01*
X326248000Y-188097000D01*
X294867801Y-188097000D01*
X297694004Y-185270798D01*
X297723001Y-185247001D01*
X297817974Y-185131276D01*
X297888546Y-184999247D01*
X297932003Y-184855986D01*
X297943000Y-184744333D01*
X297943000Y-184744324D01*
X297946676Y-184707001D01*
X297943000Y-184669678D01*
X297943000Y-180026711D01*
X297986937Y-179982774D01*
X298100205Y-179813256D01*
X298178226Y-179624898D01*
X298218000Y-179424939D01*
X298218000Y-179221061D01*
X298178226Y-179021102D01*
X298158448Y-178973354D01*
X301480366Y-178975083D01*
G37*
X301480366Y-178975083D02*
X301419054Y-179123102D01*
X301379280Y-179323061D01*
X301379280Y-179385198D01*
X298953278Y-181811201D01*
X298924280Y-181834999D01*
X298900482Y-181863997D01*
X298900481Y-181863998D01*
X298829306Y-181950724D01*
X298758734Y-182082754D01*
X298738715Y-182148750D01*
X298715278Y-182226014D01*
X298714644Y-182232447D01*
X298713561Y-182243451D01*
X298586779Y-182347498D01*
X298432448Y-182535551D01*
X298317769Y-182750099D01*
X298247150Y-182982898D01*
X298229280Y-183164335D01*
X298229280Y-183835664D01*
X298247150Y-184017101D01*
X298317769Y-184249900D01*
X298432447Y-184464448D01*
X298586778Y-184652502D01*
X298774831Y-184806833D01*
X298989379Y-184921511D01*
X299222178Y-184992130D01*
X299464280Y-185015975D01*
X299706381Y-184992130D01*
X299939180Y-184921511D01*
X300153728Y-184806833D01*
X300307589Y-184680564D01*
X300333743Y-184729494D01*
X300413095Y-184826185D01*
X300509786Y-184905537D01*
X300620100Y-184964502D01*
X300739798Y-185000812D01*
X300864280Y-185013072D01*
X301178530Y-185010000D01*
X301337280Y-184851250D01*
X301337280Y-183627000D01*
X301591280Y-183627000D01*
X301591280Y-184851250D01*
X301750030Y-185010000D01*
X302064280Y-185013072D01*
X302188762Y-185000812D01*
X302308460Y-184964502D01*
X302418774Y-184905537D01*
X302515465Y-184826185D01*
X302594817Y-184729494D01*
X302653782Y-184619180D01*
X302690092Y-184499482D01*
X302702352Y-184375000D01*
X302699280Y-183785750D01*
X302540530Y-183627000D01*
X301591280Y-183627000D01*
X301337280Y-183627000D01*
X301317280Y-183627000D01*
X301317280Y-183373000D01*
X301337280Y-183373000D01*
X301337280Y-182148750D01*
X301591280Y-182148750D01*
X301591280Y-183373000D01*
X302540530Y-183373000D01*
X302699280Y-183214250D01*
X302702352Y-182625000D01*
X302690092Y-182500518D01*
X302653782Y-182380820D01*
X302594817Y-182270506D01*
X302515465Y-182173815D01*
X302418774Y-182094463D01*
X302308460Y-182035498D01*
X302188762Y-181999188D01*
X302064280Y-181986928D01*
X301750030Y-181990000D01*
X301591280Y-182148750D01*
X301337280Y-182148750D01*
X301178530Y-181990000D01*
X300926545Y-181987537D01*
X302454082Y-180460000D01*
X302516219Y-180460000D01*
X302716178Y-180420226D01*
X302904536Y-180342205D01*
X303074054Y-180228937D01*
X303218217Y-180084774D01*
X303331485Y-179915256D01*
X303409506Y-179726898D01*
X303449280Y-179526939D01*
X303449280Y-179323061D01*
X303409506Y-179123102D01*
X303348597Y-178976056D01*
X316468961Y-178982886D01*
X316407628Y-179130956D01*
X316367854Y-179330915D01*
X316367854Y-179393052D01*
X313949706Y-181811201D01*
X313920708Y-181834999D01*
X313896910Y-181863997D01*
X313896909Y-181863998D01*
X313825734Y-181950724D01*
X313755162Y-182082754D01*
X313735143Y-182148750D01*
X313711706Y-182226014D01*
X313711072Y-182232447D01*
X313709989Y-182243451D01*
X313583207Y-182347498D01*
X313428876Y-182535551D01*
X313314197Y-182750099D01*
X313243578Y-182982898D01*
X313225708Y-183164335D01*
X313225708Y-183835664D01*
X313243578Y-184017101D01*
X313314197Y-184249900D01*
X313428875Y-184464448D01*
X313583206Y-184652502D01*
X313771259Y-184806833D01*
X313985807Y-184921511D01*
X314218606Y-184992130D01*
X314460708Y-185015975D01*
X314702809Y-184992130D01*
X314935608Y-184921511D01*
X315150156Y-184806833D01*
X315304017Y-184680564D01*
X315330171Y-184729494D01*
X315409523Y-184826185D01*
X315506214Y-184905537D01*
X315616528Y-184964502D01*
X315736226Y-185000812D01*
X315860708Y-185013072D01*
X316174958Y-185010000D01*
X316333708Y-184851250D01*
X316333708Y-183627000D01*
X316587708Y-183627000D01*
X316587708Y-184851250D01*
X316746458Y-185010000D01*
X317060708Y-185013072D01*
X317185190Y-185000812D01*
X317304888Y-184964502D01*
X317415202Y-184905537D01*
X317511893Y-184826185D01*
X317591245Y-184729494D01*
X317650210Y-184619180D01*
X317686520Y-184499482D01*
X317698780Y-184375000D01*
X317695708Y-183785750D01*
X317536958Y-183627000D01*
X316587708Y-183627000D01*
X316333708Y-183627000D01*
X316313708Y-183627000D01*
X316313708Y-183373000D01*
X316333708Y-183373000D01*
X316333708Y-182148750D01*
X316587708Y-182148750D01*
X316587708Y-183373000D01*
X317536958Y-183373000D01*
X317695708Y-183214250D01*
X317698780Y-182625000D01*
X317686520Y-182500518D01*
X317650210Y-182380820D01*
X317591245Y-182270506D01*
X317511893Y-182173815D01*
X317415202Y-182094463D01*
X317304888Y-182035498D01*
X317185190Y-181999188D01*
X317060708Y-181986928D01*
X316746458Y-181990000D01*
X316587708Y-182148750D01*
X316333708Y-182148750D01*
X316174958Y-181990000D01*
X315922973Y-181987537D01*
X317442656Y-180467854D01*
X317504793Y-180467854D01*
X317704752Y-180428080D01*
X317893110Y-180350059D01*
X318062628Y-180236791D01*
X318206791Y-180092628D01*
X318320059Y-179923110D01*
X318398080Y-179734752D01*
X318437854Y-179534793D01*
X318437854Y-179330915D01*
X318398080Y-179130956D01*
X318337150Y-178983859D01*
X326104053Y-178987902D01*
X326090795Y-179007744D01*
X326012774Y-179196102D01*
X325973000Y-179396061D01*
X325973000Y-179599939D01*
X326012774Y-179799898D01*
X326090795Y-179988256D01*
X326204063Y-180157774D01*
X326248001Y-180201712D01*
X326248000Y-188097000D01*
X294867801Y-188097000D01*
X297694004Y-185270798D01*
X297723001Y-185247001D01*
X297817974Y-185131276D01*
X297888546Y-184999247D01*
X297932003Y-184855986D01*
X297943000Y-184744333D01*
X297943000Y-184744324D01*
X297946676Y-184707001D01*
X297943000Y-184669678D01*
X297943000Y-180026711D01*
X297986937Y-179982774D01*
X298100205Y-179813256D01*
X298178226Y-179624898D01*
X298218000Y-179424939D01*
X298218000Y-179221061D01*
X298178226Y-179021102D01*
X298158448Y-178973354D01*
X301480366Y-178975083D01*
G36*
X271567536Y-178959510D02*
G01*
X271499774Y-179123102D01*
X271462840Y-179308782D01*
X268960422Y-181811201D01*
X268931424Y-181834999D01*
X268907626Y-181863997D01*
X268907625Y-181863998D01*
X268836450Y-181950724D01*
X268765878Y-182082754D01*
X268745859Y-182148750D01*
X268722422Y-182226014D01*
X268721788Y-182232447D01*
X268720705Y-182243451D01*
X268593923Y-182347498D01*
X268439592Y-182535551D01*
X268324913Y-182750099D01*
X268254294Y-182982898D01*
X268236424Y-183164335D01*
X268236424Y-183835664D01*
X268254294Y-184017101D01*
X268324913Y-184249900D01*
X268439591Y-184464448D01*
X268593922Y-184652502D01*
X268781975Y-184806833D01*
X268996523Y-184921511D01*
X269229322Y-184992130D01*
X269471424Y-185015975D01*
X269713525Y-184992130D01*
X269946324Y-184921511D01*
X270160872Y-184806833D01*
X270314733Y-184680564D01*
X270340887Y-184729494D01*
X270420239Y-184826185D01*
X270516930Y-184905537D01*
X270627244Y-184964502D01*
X270746942Y-185000812D01*
X270871424Y-185013072D01*
X271185674Y-185010000D01*
X271344424Y-184851250D01*
X271344424Y-183627000D01*
X271598424Y-183627000D01*
X271598424Y-184851250D01*
X271757174Y-185010000D01*
X272071424Y-185013072D01*
X272195906Y-185000812D01*
X272315604Y-184964502D01*
X272425918Y-184905537D01*
X272522609Y-184826185D01*
X272601961Y-184729494D01*
X272660926Y-184619180D01*
X272697236Y-184499482D01*
X272709496Y-184375000D01*
X272706424Y-183785750D01*
X272547674Y-183627000D01*
X271598424Y-183627000D01*
X271344424Y-183627000D01*
X271324424Y-183627000D01*
X271324424Y-183373000D01*
X271344424Y-183373000D01*
X271344424Y-182148750D01*
X271598424Y-182148750D01*
X271598424Y-183373000D01*
X272547674Y-183373000D01*
X272706424Y-183214250D01*
X272709496Y-182625000D01*
X272697236Y-182500518D01*
X272660926Y-182380820D01*
X272601961Y-182270506D01*
X272522609Y-182173815D01*
X272425918Y-182094463D01*
X272315604Y-182035498D01*
X272195906Y-181999188D01*
X272071424Y-181986928D01*
X271757174Y-181990000D01*
X271598424Y-182148750D01*
X271344424Y-182148750D01*
X271185674Y-181990000D01*
X270933689Y-181987537D01*
X272461226Y-180460000D01*
X272596939Y-180460000D01*
X272796898Y-180420226D01*
X272985256Y-180342205D01*
X273154774Y-180228937D01*
X273298937Y-180084774D01*
X273412205Y-179915256D01*
X273490226Y-179726898D01*
X273530000Y-179526939D01*
X273530000Y-179323061D01*
X273490226Y-179123102D01*
X273422864Y-178960476D01*
X286461853Y-178967264D01*
X286449221Y-178986170D01*
X286371200Y-179174528D01*
X286331426Y-179374487D01*
X286331426Y-179436624D01*
X283956850Y-181811201D01*
X283927852Y-181834999D01*
X283904054Y-181863997D01*
X283904053Y-181863998D01*
X283832878Y-181950724D01*
X283762306Y-182082754D01*
X283742287Y-182148750D01*
X283718850Y-182226014D01*
X283718216Y-182232447D01*
X283717133Y-182243451D01*
X283590351Y-182347498D01*
X283436020Y-182535551D01*
X283321341Y-182750099D01*
X283250722Y-182982898D01*
X283232852Y-183164335D01*
X283232852Y-183835664D01*
X283250722Y-184017101D01*
X283321341Y-184249900D01*
X283436019Y-184464448D01*
X283590350Y-184652502D01*
X283778403Y-184806833D01*
X283992951Y-184921511D01*
X284225750Y-184992130D01*
X284467852Y-185015975D01*
X284709953Y-184992130D01*
X284942752Y-184921511D01*
X285157300Y-184806833D01*
X285311161Y-184680564D01*
X285337315Y-184729494D01*
X285416667Y-184826185D01*
X285513358Y-184905537D01*
X285623672Y-184964502D01*
X285743370Y-185000812D01*
X285867852Y-185013072D01*
X286182102Y-185010000D01*
X286340852Y-184851250D01*
X286340852Y-183627000D01*
X286594852Y-183627000D01*
X286594852Y-184851250D01*
X286753602Y-185010000D01*
X287067852Y-185013072D01*
X287192334Y-185000812D01*
X287312032Y-184964502D01*
X287422346Y-184905537D01*
X287519037Y-184826185D01*
X287598389Y-184729494D01*
X287657354Y-184619180D01*
X287693664Y-184499482D01*
X287705924Y-184375000D01*
X287702852Y-183785750D01*
X287544102Y-183627000D01*
X286594852Y-183627000D01*
X286340852Y-183627000D01*
X286320852Y-183627000D01*
X286320852Y-183373000D01*
X286340852Y-183373000D01*
X286340852Y-182148750D01*
X286594852Y-182148750D01*
X286594852Y-183373000D01*
X287544102Y-183373000D01*
X287702852Y-183214250D01*
X287705924Y-182625000D01*
X287693664Y-182500518D01*
X287657354Y-182380820D01*
X287598389Y-182270506D01*
X287519037Y-182173815D01*
X287422346Y-182094463D01*
X287312032Y-182035498D01*
X287192334Y-181999188D01*
X287067852Y-181986928D01*
X286753602Y-181990000D01*
X286594852Y-182148750D01*
X286340852Y-182148750D01*
X286182102Y-181990000D01*
X285930117Y-181987537D01*
X287406228Y-180511426D01*
X287468365Y-180511426D01*
X287668324Y-180471652D01*
X287856682Y-180393631D01*
X288026200Y-180280363D01*
X288170363Y-180136200D01*
X288283631Y-179966682D01*
X288361652Y-179778324D01*
X288401426Y-179578365D01*
X288401426Y-179374487D01*
X288361652Y-179174528D01*
X288283631Y-178986170D01*
X288271628Y-178968206D01*
X296207973Y-178972338D01*
X296187774Y-179021102D01*
X296148000Y-179221061D01*
X296148000Y-179424939D01*
X296187774Y-179624898D01*
X296265795Y-179813256D01*
X296379063Y-179982774D01*
X296423001Y-180026712D01*
X296423000Y-184392198D01*
X293493200Y-187321999D01*
X265124791Y-187321999D01*
X267609008Y-184837784D01*
X267638001Y-184813990D01*
X267661795Y-184784997D01*
X267661799Y-184784993D01*
X267723343Y-184710000D01*
X267732974Y-184698265D01*
X267803546Y-184566236D01*
X267847003Y-184422975D01*
X267858000Y-184311322D01*
X267858000Y-184311313D01*
X267861676Y-184273990D01*
X267858000Y-184236667D01*
X267858000Y-180111711D01*
X267901937Y-180067774D01*
X268015205Y-179898256D01*
X268093226Y-179709898D01*
X268133000Y-179509939D01*
X268133000Y-179306061D01*
X268093226Y-179106102D01*
X268031743Y-178957669D01*
X271567536Y-178959510D01*
G37*
X271567536Y-178959510D02*
X271499774Y-179123102D01*
X271462840Y-179308782D01*
X268960422Y-181811201D01*
X268931424Y-181834999D01*
X268907626Y-181863997D01*
X268907625Y-181863998D01*
X268836450Y-181950724D01*
X268765878Y-182082754D01*
X268745859Y-182148750D01*
X268722422Y-182226014D01*
X268721788Y-182232447D01*
X268720705Y-182243451D01*
X268593923Y-182347498D01*
X268439592Y-182535551D01*
X268324913Y-182750099D01*
X268254294Y-182982898D01*
X268236424Y-183164335D01*
X268236424Y-183835664D01*
X268254294Y-184017101D01*
X268324913Y-184249900D01*
X268439591Y-184464448D01*
X268593922Y-184652502D01*
X268781975Y-184806833D01*
X268996523Y-184921511D01*
X269229322Y-184992130D01*
X269471424Y-185015975D01*
X269713525Y-184992130D01*
X269946324Y-184921511D01*
X270160872Y-184806833D01*
X270314733Y-184680564D01*
X270340887Y-184729494D01*
X270420239Y-184826185D01*
X270516930Y-184905537D01*
X270627244Y-184964502D01*
X270746942Y-185000812D01*
X270871424Y-185013072D01*
X271185674Y-185010000D01*
X271344424Y-184851250D01*
X271344424Y-183627000D01*
X271598424Y-183627000D01*
X271598424Y-184851250D01*
X271757174Y-185010000D01*
X272071424Y-185013072D01*
X272195906Y-185000812D01*
X272315604Y-184964502D01*
X272425918Y-184905537D01*
X272522609Y-184826185D01*
X272601961Y-184729494D01*
X272660926Y-184619180D01*
X272697236Y-184499482D01*
X272709496Y-184375000D01*
X272706424Y-183785750D01*
X272547674Y-183627000D01*
X271598424Y-183627000D01*
X271344424Y-183627000D01*
X271324424Y-183627000D01*
X271324424Y-183373000D01*
X271344424Y-183373000D01*
X271344424Y-182148750D01*
X271598424Y-182148750D01*
X271598424Y-183373000D01*
X272547674Y-183373000D01*
X272706424Y-183214250D01*
X272709496Y-182625000D01*
X272697236Y-182500518D01*
X272660926Y-182380820D01*
X272601961Y-182270506D01*
X272522609Y-182173815D01*
X272425918Y-182094463D01*
X272315604Y-182035498D01*
X272195906Y-181999188D01*
X272071424Y-181986928D01*
X271757174Y-181990000D01*
X271598424Y-182148750D01*
X271344424Y-182148750D01*
X271185674Y-181990000D01*
X270933689Y-181987537D01*
X272461226Y-180460000D01*
X272596939Y-180460000D01*
X272796898Y-180420226D01*
X272985256Y-180342205D01*
X273154774Y-180228937D01*
X273298937Y-180084774D01*
X273412205Y-179915256D01*
X273490226Y-179726898D01*
X273530000Y-179526939D01*
X273530000Y-179323061D01*
X273490226Y-179123102D01*
X273422864Y-178960476D01*
X286461853Y-178967264D01*
X286449221Y-178986170D01*
X286371200Y-179174528D01*
X286331426Y-179374487D01*
X286331426Y-179436624D01*
X283956850Y-181811201D01*
X283927852Y-181834999D01*
X283904054Y-181863997D01*
X283904053Y-181863998D01*
X283832878Y-181950724D01*
X283762306Y-182082754D01*
X283742287Y-182148750D01*
X283718850Y-182226014D01*
X283718216Y-182232447D01*
X283717133Y-182243451D01*
X283590351Y-182347498D01*
X283436020Y-182535551D01*
X283321341Y-182750099D01*
X283250722Y-182982898D01*
X283232852Y-183164335D01*
X283232852Y-183835664D01*
X283250722Y-184017101D01*
X283321341Y-184249900D01*
X283436019Y-184464448D01*
X283590350Y-184652502D01*
X283778403Y-184806833D01*
X283992951Y-184921511D01*
X284225750Y-184992130D01*
X284467852Y-185015975D01*
X284709953Y-184992130D01*
X284942752Y-184921511D01*
X285157300Y-184806833D01*
X285311161Y-184680564D01*
X285337315Y-184729494D01*
X285416667Y-184826185D01*
X285513358Y-184905537D01*
X285623672Y-184964502D01*
X285743370Y-185000812D01*
X285867852Y-185013072D01*
X286182102Y-185010000D01*
X286340852Y-184851250D01*
X286340852Y-183627000D01*
X286594852Y-183627000D01*
X286594852Y-184851250D01*
X286753602Y-185010000D01*
X287067852Y-185013072D01*
X287192334Y-185000812D01*
X287312032Y-184964502D01*
X287422346Y-184905537D01*
X287519037Y-184826185D01*
X287598389Y-184729494D01*
X287657354Y-184619180D01*
X287693664Y-184499482D01*
X287705924Y-184375000D01*
X287702852Y-183785750D01*
X287544102Y-183627000D01*
X286594852Y-183627000D01*
X286340852Y-183627000D01*
X286320852Y-183627000D01*
X286320852Y-183373000D01*
X286340852Y-183373000D01*
X286340852Y-182148750D01*
X286594852Y-182148750D01*
X286594852Y-183373000D01*
X287544102Y-183373000D01*
X287702852Y-183214250D01*
X287705924Y-182625000D01*
X287693664Y-182500518D01*
X287657354Y-182380820D01*
X287598389Y-182270506D01*
X287519037Y-182173815D01*
X287422346Y-182094463D01*
X287312032Y-182035498D01*
X287192334Y-181999188D01*
X287067852Y-181986928D01*
X286753602Y-181990000D01*
X286594852Y-182148750D01*
X286340852Y-182148750D01*
X286182102Y-181990000D01*
X285930117Y-181987537D01*
X287406228Y-180511426D01*
X287468365Y-180511426D01*
X287668324Y-180471652D01*
X287856682Y-180393631D01*
X288026200Y-180280363D01*
X288170363Y-180136200D01*
X288283631Y-179966682D01*
X288361652Y-179778324D01*
X288401426Y-179578365D01*
X288401426Y-179374487D01*
X288361652Y-179174528D01*
X288283631Y-178986170D01*
X288271628Y-178968206D01*
X296207973Y-178972338D01*
X296187774Y-179021102D01*
X296148000Y-179221061D01*
X296148000Y-179424939D01*
X296187774Y-179624898D01*
X296265795Y-179813256D01*
X296379063Y-179982774D01*
X296423001Y-180026712D01*
X296423000Y-184392198D01*
X293493200Y-187321999D01*
X265124791Y-187321999D01*
X267609008Y-184837784D01*
X267638001Y-184813990D01*
X267661795Y-184784997D01*
X267661799Y-184784993D01*
X267723343Y-184710000D01*
X267732974Y-184698265D01*
X267803546Y-184566236D01*
X267847003Y-184422975D01*
X267858000Y-184311322D01*
X267858000Y-184311313D01*
X267861676Y-184273990D01*
X267858000Y-184236667D01*
X267858000Y-180111711D01*
X267901937Y-180067774D01*
X268015205Y-179898256D01*
X268093226Y-179709898D01*
X268133000Y-179509939D01*
X268133000Y-179306061D01*
X268093226Y-179106102D01*
X268031743Y-178957669D01*
X271567536Y-178959510D01*
G36*
X256491998Y-178951662D02*
G01*
X256414772Y-179138100D01*
X256374998Y-179338059D01*
X256374998Y-179400196D01*
X253963994Y-181811201D01*
X253934996Y-181834999D01*
X253911198Y-181863997D01*
X253911197Y-181863998D01*
X253840022Y-181950724D01*
X253769450Y-182082754D01*
X253749431Y-182148750D01*
X253725994Y-182226014D01*
X253725360Y-182232447D01*
X253724277Y-182243451D01*
X253597495Y-182347498D01*
X253443164Y-182535551D01*
X253328485Y-182750099D01*
X253257866Y-182982898D01*
X253239996Y-183164335D01*
X253239996Y-183835664D01*
X253257866Y-184017101D01*
X253328485Y-184249900D01*
X253443163Y-184464448D01*
X253597494Y-184652502D01*
X253785547Y-184806833D01*
X254000095Y-184921511D01*
X254232894Y-184992130D01*
X254474996Y-185015975D01*
X254717097Y-184992130D01*
X254949896Y-184921511D01*
X255164444Y-184806833D01*
X255318305Y-184680564D01*
X255344459Y-184729494D01*
X255423811Y-184826185D01*
X255520502Y-184905537D01*
X255630816Y-184964502D01*
X255750514Y-185000812D01*
X255874996Y-185013072D01*
X256189246Y-185010000D01*
X256347996Y-184851250D01*
X256347996Y-183627000D01*
X256601996Y-183627000D01*
X256601996Y-184851250D01*
X256760746Y-185010000D01*
X257074996Y-185013072D01*
X257199478Y-185000812D01*
X257319176Y-184964502D01*
X257429490Y-184905537D01*
X257526181Y-184826185D01*
X257605533Y-184729494D01*
X257664498Y-184619180D01*
X257700808Y-184499482D01*
X257713068Y-184375000D01*
X257709996Y-183785750D01*
X257551246Y-183627000D01*
X256601996Y-183627000D01*
X256347996Y-183627000D01*
X256327996Y-183627000D01*
X256327996Y-183373000D01*
X256347996Y-183373000D01*
X256347996Y-182148750D01*
X256601996Y-182148750D01*
X256601996Y-183373000D01*
X257551246Y-183373000D01*
X257709996Y-183214250D01*
X257713068Y-182625000D01*
X257700808Y-182500518D01*
X257664498Y-182380820D01*
X257605533Y-182270506D01*
X257526181Y-182173815D01*
X257429490Y-182094463D01*
X257319176Y-182035498D01*
X257199478Y-181999188D01*
X257074996Y-181986928D01*
X256760746Y-181990000D01*
X256601996Y-182148750D01*
X256347996Y-182148750D01*
X256189246Y-181990000D01*
X255937261Y-181987537D01*
X257449800Y-180474998D01*
X257511937Y-180474998D01*
X257711896Y-180435224D01*
X257900254Y-180357203D01*
X258069772Y-180243935D01*
X258213935Y-180099772D01*
X258327203Y-179930254D01*
X258405224Y-179741896D01*
X258444998Y-179541937D01*
X258444998Y-179338059D01*
X258405224Y-179138100D01*
X258328394Y-178952618D01*
X266164660Y-178956697D01*
X266102774Y-179106102D01*
X266063000Y-179306061D01*
X266063000Y-179509939D01*
X266102774Y-179709898D01*
X266180795Y-179898256D01*
X266294063Y-180067774D01*
X266338000Y-180111711D01*
X266338001Y-183959185D01*
X263475199Y-186821989D01*
X237472812Y-186821989D01*
X238261004Y-186033798D01*
X238290001Y-186010001D01*
X238352563Y-185933769D01*
X238384974Y-185894277D01*
X238455546Y-185762247D01*
X238468059Y-185720995D01*
X238499003Y-185618986D01*
X238510000Y-185507333D01*
X238510000Y-185507323D01*
X238513676Y-185470000D01*
X238510000Y-185432678D01*
X238510000Y-184541537D01*
X238601066Y-184652502D01*
X238789119Y-184806833D01*
X239003667Y-184921511D01*
X239236466Y-184992130D01*
X239478568Y-185015975D01*
X239720669Y-184992130D01*
X239953468Y-184921511D01*
X240168016Y-184806833D01*
X240321877Y-184680564D01*
X240348031Y-184729494D01*
X240427383Y-184826185D01*
X240524074Y-184905537D01*
X240634388Y-184964502D01*
X240754086Y-185000812D01*
X240878568Y-185013072D01*
X241192818Y-185010000D01*
X241351568Y-184851250D01*
X241351568Y-183627000D01*
X241605568Y-183627000D01*
X241605568Y-184851250D01*
X241764318Y-185010000D01*
X242078568Y-185013072D01*
X242203050Y-185000812D01*
X242322748Y-184964502D01*
X242433062Y-184905537D01*
X242529753Y-184826185D01*
X242609105Y-184729494D01*
X242668070Y-184619180D01*
X242704380Y-184499482D01*
X242716640Y-184375000D01*
X242713568Y-183785750D01*
X242554818Y-183627000D01*
X241605568Y-183627000D01*
X241351568Y-183627000D01*
X241331568Y-183627000D01*
X241331568Y-183373000D01*
X241351568Y-183373000D01*
X241351568Y-182148750D01*
X241605568Y-182148750D01*
X241605568Y-183373000D01*
X242554818Y-183373000D01*
X242713568Y-183214250D01*
X242716640Y-182625000D01*
X242704380Y-182500518D01*
X242668070Y-182380820D01*
X242609105Y-182270506D01*
X242529753Y-182173815D01*
X242433062Y-182094463D01*
X242322748Y-182035498D01*
X242203050Y-181999188D01*
X242078568Y-181986928D01*
X241764318Y-181990000D01*
X241605568Y-182148750D01*
X241351568Y-182148750D01*
X241192818Y-181990000D01*
X240947202Y-181987599D01*
X242474802Y-180460000D01*
X242536939Y-180460000D01*
X242736898Y-180420226D01*
X242925256Y-180342205D01*
X243094774Y-180228937D01*
X243238937Y-180084774D01*
X243352205Y-179915256D01*
X243430226Y-179726898D01*
X243470000Y-179526939D01*
X243470000Y-179323061D01*
X243430226Y-179123102D01*
X243356380Y-178944823D01*
X256491998Y-178951662D01*
G37*
X256491998Y-178951662D02*
X256414772Y-179138100D01*
X256374998Y-179338059D01*
X256374998Y-179400196D01*
X253963994Y-181811201D01*
X253934996Y-181834999D01*
X253911198Y-181863997D01*
X253911197Y-181863998D01*
X253840022Y-181950724D01*
X253769450Y-182082754D01*
X253749431Y-182148750D01*
X253725994Y-182226014D01*
X253725360Y-182232447D01*
X253724277Y-182243451D01*
X253597495Y-182347498D01*
X253443164Y-182535551D01*
X253328485Y-182750099D01*
X253257866Y-182982898D01*
X253239996Y-183164335D01*
X253239996Y-183835664D01*
X253257866Y-184017101D01*
X253328485Y-184249900D01*
X253443163Y-184464448D01*
X253597494Y-184652502D01*
X253785547Y-184806833D01*
X254000095Y-184921511D01*
X254232894Y-184992130D01*
X254474996Y-185015975D01*
X254717097Y-184992130D01*
X254949896Y-184921511D01*
X255164444Y-184806833D01*
X255318305Y-184680564D01*
X255344459Y-184729494D01*
X255423811Y-184826185D01*
X255520502Y-184905537D01*
X255630816Y-184964502D01*
X255750514Y-185000812D01*
X255874996Y-185013072D01*
X256189246Y-185010000D01*
X256347996Y-184851250D01*
X256347996Y-183627000D01*
X256601996Y-183627000D01*
X256601996Y-184851250D01*
X256760746Y-185010000D01*
X257074996Y-185013072D01*
X257199478Y-185000812D01*
X257319176Y-184964502D01*
X257429490Y-184905537D01*
X257526181Y-184826185D01*
X257605533Y-184729494D01*
X257664498Y-184619180D01*
X257700808Y-184499482D01*
X257713068Y-184375000D01*
X257709996Y-183785750D01*
X257551246Y-183627000D01*
X256601996Y-183627000D01*
X256347996Y-183627000D01*
X256327996Y-183627000D01*
X256327996Y-183373000D01*
X256347996Y-183373000D01*
X256347996Y-182148750D01*
X256601996Y-182148750D01*
X256601996Y-183373000D01*
X257551246Y-183373000D01*
X257709996Y-183214250D01*
X257713068Y-182625000D01*
X257700808Y-182500518D01*
X257664498Y-182380820D01*
X257605533Y-182270506D01*
X257526181Y-182173815D01*
X257429490Y-182094463D01*
X257319176Y-182035498D01*
X257199478Y-181999188D01*
X257074996Y-181986928D01*
X256760746Y-181990000D01*
X256601996Y-182148750D01*
X256347996Y-182148750D01*
X256189246Y-181990000D01*
X255937261Y-181987537D01*
X257449800Y-180474998D01*
X257511937Y-180474998D01*
X257711896Y-180435224D01*
X257900254Y-180357203D01*
X258069772Y-180243935D01*
X258213935Y-180099772D01*
X258327203Y-179930254D01*
X258405224Y-179741896D01*
X258444998Y-179541937D01*
X258444998Y-179338059D01*
X258405224Y-179138100D01*
X258328394Y-178952618D01*
X266164660Y-178956697D01*
X266102774Y-179106102D01*
X266063000Y-179306061D01*
X266063000Y-179509939D01*
X266102774Y-179709898D01*
X266180795Y-179898256D01*
X266294063Y-180067774D01*
X266338000Y-180111711D01*
X266338001Y-183959185D01*
X263475199Y-186821989D01*
X237472812Y-186821989D01*
X238261004Y-186033798D01*
X238290001Y-186010001D01*
X238352563Y-185933769D01*
X238384974Y-185894277D01*
X238455546Y-185762247D01*
X238468059Y-185720995D01*
X238499003Y-185618986D01*
X238510000Y-185507333D01*
X238510000Y-185507323D01*
X238513676Y-185470000D01*
X238510000Y-185432678D01*
X238510000Y-184541537D01*
X238601066Y-184652502D01*
X238789119Y-184806833D01*
X239003667Y-184921511D01*
X239236466Y-184992130D01*
X239478568Y-185015975D01*
X239720669Y-184992130D01*
X239953468Y-184921511D01*
X240168016Y-184806833D01*
X240321877Y-184680564D01*
X240348031Y-184729494D01*
X240427383Y-184826185D01*
X240524074Y-184905537D01*
X240634388Y-184964502D01*
X240754086Y-185000812D01*
X240878568Y-185013072D01*
X241192818Y-185010000D01*
X241351568Y-184851250D01*
X241351568Y-183627000D01*
X241605568Y-183627000D01*
X241605568Y-184851250D01*
X241764318Y-185010000D01*
X242078568Y-185013072D01*
X242203050Y-185000812D01*
X242322748Y-184964502D01*
X242433062Y-184905537D01*
X242529753Y-184826185D01*
X242609105Y-184729494D01*
X242668070Y-184619180D01*
X242704380Y-184499482D01*
X242716640Y-184375000D01*
X242713568Y-183785750D01*
X242554818Y-183627000D01*
X241605568Y-183627000D01*
X241351568Y-183627000D01*
X241331568Y-183627000D01*
X241331568Y-183373000D01*
X241351568Y-183373000D01*
X241351568Y-182148750D01*
X241605568Y-182148750D01*
X241605568Y-183373000D01*
X242554818Y-183373000D01*
X242713568Y-183214250D01*
X242716640Y-182625000D01*
X242704380Y-182500518D01*
X242668070Y-182380820D01*
X242609105Y-182270506D01*
X242529753Y-182173815D01*
X242433062Y-182094463D01*
X242322748Y-182035498D01*
X242203050Y-181999188D01*
X242078568Y-181986928D01*
X241764318Y-181990000D01*
X241605568Y-182148750D01*
X241351568Y-182148750D01*
X241192818Y-181990000D01*
X240947202Y-181987599D01*
X242474802Y-180460000D01*
X242536939Y-180460000D01*
X242736898Y-180420226D01*
X242925256Y-180342205D01*
X243094774Y-180228937D01*
X243238937Y-180084774D01*
X243352205Y-179915256D01*
X243430226Y-179726898D01*
X243470000Y-179526939D01*
X243470000Y-179323061D01*
X243430226Y-179123102D01*
X243356380Y-178944823D01*
X256491998Y-178951662D01*
G36*
X211509459Y-178928244D02*
G01*
X211478151Y-178975100D01*
X211400130Y-179163458D01*
X211360356Y-179363417D01*
X211360356Y-179425554D01*
X208974710Y-181811201D01*
X208945712Y-181834999D01*
X208921914Y-181863997D01*
X208921913Y-181863998D01*
X208850738Y-181950724D01*
X208780166Y-182082754D01*
X208760147Y-182148750D01*
X208736710Y-182226014D01*
X208736076Y-182232447D01*
X208734993Y-182243451D01*
X208608211Y-182347498D01*
X208453880Y-182535551D01*
X208339201Y-182750099D01*
X208268582Y-182982898D01*
X208250712Y-183164335D01*
X208250712Y-183835664D01*
X208268582Y-184017101D01*
X208339201Y-184249900D01*
X208453879Y-184464448D01*
X208608210Y-184652502D01*
X208796263Y-184806833D01*
X209010811Y-184921511D01*
X209243610Y-184992130D01*
X209485712Y-185015975D01*
X209727813Y-184992130D01*
X209960612Y-184921511D01*
X210175160Y-184806833D01*
X210329021Y-184680564D01*
X210355175Y-184729494D01*
X210434527Y-184826185D01*
X210531218Y-184905537D01*
X210641532Y-184964502D01*
X210761230Y-185000812D01*
X210885712Y-185013072D01*
X211199962Y-185010000D01*
X211358712Y-184851250D01*
X211358712Y-183627000D01*
X211612712Y-183627000D01*
X211612712Y-184851250D01*
X211771462Y-185010000D01*
X212085712Y-185013072D01*
X212210194Y-185000812D01*
X212329892Y-184964502D01*
X212440206Y-184905537D01*
X212536897Y-184826185D01*
X212616249Y-184729494D01*
X212675214Y-184619180D01*
X212711524Y-184499482D01*
X212723784Y-184375000D01*
X212720712Y-183785750D01*
X212561962Y-183627000D01*
X211612712Y-183627000D01*
X211358712Y-183627000D01*
X211338712Y-183627000D01*
X211338712Y-183373000D01*
X211358712Y-183373000D01*
X211358712Y-182148750D01*
X211612712Y-182148750D01*
X211612712Y-183373000D01*
X212561962Y-183373000D01*
X212720712Y-183214250D01*
X212723784Y-182625000D01*
X212711524Y-182500518D01*
X212675214Y-182380820D01*
X212616249Y-182270506D01*
X212536897Y-182173815D01*
X212440206Y-182094463D01*
X212329892Y-182035498D01*
X212210194Y-181999188D01*
X212085712Y-181986928D01*
X211771462Y-181990000D01*
X211612712Y-182148750D01*
X211358712Y-182148750D01*
X211199962Y-181990000D01*
X210947977Y-181987537D01*
X212435158Y-180500356D01*
X212497295Y-180500356D01*
X212697254Y-180460582D01*
X212885612Y-180382561D01*
X213055130Y-180269293D01*
X213199293Y-180125130D01*
X213312561Y-179955612D01*
X213390582Y-179767254D01*
X213430356Y-179567295D01*
X213430356Y-179363417D01*
X213390582Y-179163458D01*
X213312561Y-178975100D01*
X213281869Y-178929166D01*
X226607232Y-178936104D01*
X226529774Y-179123102D01*
X226497628Y-179284710D01*
X223971138Y-181811201D01*
X223942140Y-181834999D01*
X223918342Y-181863997D01*
X223918341Y-181863998D01*
X223847166Y-181950724D01*
X223776594Y-182082754D01*
X223756575Y-182148750D01*
X223733138Y-182226014D01*
X223732504Y-182232447D01*
X223731421Y-182243451D01*
X223604639Y-182347498D01*
X223450308Y-182535551D01*
X223335629Y-182750099D01*
X223265010Y-182982898D01*
X223247140Y-183164335D01*
X223247140Y-183835664D01*
X223265010Y-184017101D01*
X223335629Y-184249900D01*
X223450307Y-184464448D01*
X223604638Y-184652502D01*
X223792691Y-184806833D01*
X224007239Y-184921511D01*
X224240038Y-184992130D01*
X224482140Y-185015975D01*
X224724241Y-184992130D01*
X224957040Y-184921511D01*
X225171588Y-184806833D01*
X225325449Y-184680564D01*
X225351603Y-184729494D01*
X225430955Y-184826185D01*
X225527646Y-184905537D01*
X225637960Y-184964502D01*
X225757658Y-185000812D01*
X225882140Y-185013072D01*
X226196390Y-185010000D01*
X226355140Y-184851250D01*
X226355140Y-183627000D01*
X226609140Y-183627000D01*
X226609140Y-184851250D01*
X226767890Y-185010000D01*
X227082140Y-185013072D01*
X227206622Y-185000812D01*
X227326320Y-184964502D01*
X227436634Y-184905537D01*
X227533325Y-184826185D01*
X227612677Y-184729494D01*
X227671642Y-184619180D01*
X227707952Y-184499482D01*
X227720212Y-184375000D01*
X227717140Y-183785750D01*
X227558390Y-183627000D01*
X226609140Y-183627000D01*
X226355140Y-183627000D01*
X226335140Y-183627000D01*
X226335140Y-183373000D01*
X226355140Y-183373000D01*
X226355140Y-182148750D01*
X226609140Y-182148750D01*
X226609140Y-183373000D01*
X227558390Y-183373000D01*
X227717140Y-183214250D01*
X227720212Y-182625000D01*
X227707952Y-182500518D01*
X227671642Y-182380820D01*
X227612677Y-182270506D01*
X227533325Y-182173815D01*
X227436634Y-182094463D01*
X227326320Y-182035498D01*
X227206622Y-181999188D01*
X227082140Y-181986928D01*
X226767890Y-181990000D01*
X226609140Y-182148750D01*
X226355140Y-182148750D01*
X226196390Y-181990000D01*
X225944405Y-181987537D01*
X227471942Y-180460000D01*
X227626939Y-180460000D01*
X227826898Y-180420226D01*
X228015256Y-180342205D01*
X228184774Y-180228937D01*
X228328937Y-180084774D01*
X228442205Y-179915256D01*
X228520226Y-179726898D01*
X228560000Y-179526939D01*
X228560000Y-179323061D01*
X228520226Y-179123102D01*
X228443164Y-178937059D01*
X236794827Y-178941407D01*
X236754774Y-179038102D01*
X236715000Y-179238061D01*
X236715000Y-179441939D01*
X236754774Y-179641898D01*
X236832795Y-179830256D01*
X236946063Y-179999774D01*
X236990001Y-180043712D01*
X236990000Y-185155198D01*
X236035199Y-186110000D01*
X206284801Y-186110000D01*
X207639004Y-184755798D01*
X207668001Y-184732001D01*
X207723460Y-184664424D01*
X207762974Y-184616277D01*
X207833546Y-184484247D01*
X207838781Y-184466990D01*
X207877003Y-184340986D01*
X207888000Y-184229333D01*
X207888000Y-184229323D01*
X207891676Y-184192000D01*
X207888000Y-184154678D01*
X207888000Y-180081711D01*
X207931937Y-180037774D01*
X208045205Y-179868256D01*
X208123226Y-179679898D01*
X208163000Y-179479939D01*
X208163000Y-179276061D01*
X208123226Y-179076102D01*
X208061237Y-178926448D01*
X211509459Y-178928244D01*
G37*
X211509459Y-178928244D02*
X211478151Y-178975100D01*
X211400130Y-179163458D01*
X211360356Y-179363417D01*
X211360356Y-179425554D01*
X208974710Y-181811201D01*
X208945712Y-181834999D01*
X208921914Y-181863997D01*
X208921913Y-181863998D01*
X208850738Y-181950724D01*
X208780166Y-182082754D01*
X208760147Y-182148750D01*
X208736710Y-182226014D01*
X208736076Y-182232447D01*
X208734993Y-182243451D01*
X208608211Y-182347498D01*
X208453880Y-182535551D01*
X208339201Y-182750099D01*
X208268582Y-182982898D01*
X208250712Y-183164335D01*
X208250712Y-183835664D01*
X208268582Y-184017101D01*
X208339201Y-184249900D01*
X208453879Y-184464448D01*
X208608210Y-184652502D01*
X208796263Y-184806833D01*
X209010811Y-184921511D01*
X209243610Y-184992130D01*
X209485712Y-185015975D01*
X209727813Y-184992130D01*
X209960612Y-184921511D01*
X210175160Y-184806833D01*
X210329021Y-184680564D01*
X210355175Y-184729494D01*
X210434527Y-184826185D01*
X210531218Y-184905537D01*
X210641532Y-184964502D01*
X210761230Y-185000812D01*
X210885712Y-185013072D01*
X211199962Y-185010000D01*
X211358712Y-184851250D01*
X211358712Y-183627000D01*
X211612712Y-183627000D01*
X211612712Y-184851250D01*
X211771462Y-185010000D01*
X212085712Y-185013072D01*
X212210194Y-185000812D01*
X212329892Y-184964502D01*
X212440206Y-184905537D01*
X212536897Y-184826185D01*
X212616249Y-184729494D01*
X212675214Y-184619180D01*
X212711524Y-184499482D01*
X212723784Y-184375000D01*
X212720712Y-183785750D01*
X212561962Y-183627000D01*
X211612712Y-183627000D01*
X211358712Y-183627000D01*
X211338712Y-183627000D01*
X211338712Y-183373000D01*
X211358712Y-183373000D01*
X211358712Y-182148750D01*
X211612712Y-182148750D01*
X211612712Y-183373000D01*
X212561962Y-183373000D01*
X212720712Y-183214250D01*
X212723784Y-182625000D01*
X212711524Y-182500518D01*
X212675214Y-182380820D01*
X212616249Y-182270506D01*
X212536897Y-182173815D01*
X212440206Y-182094463D01*
X212329892Y-182035498D01*
X212210194Y-181999188D01*
X212085712Y-181986928D01*
X211771462Y-181990000D01*
X211612712Y-182148750D01*
X211358712Y-182148750D01*
X211199962Y-181990000D01*
X210947977Y-181987537D01*
X212435158Y-180500356D01*
X212497295Y-180500356D01*
X212697254Y-180460582D01*
X212885612Y-180382561D01*
X213055130Y-180269293D01*
X213199293Y-180125130D01*
X213312561Y-179955612D01*
X213390582Y-179767254D01*
X213430356Y-179567295D01*
X213430356Y-179363417D01*
X213390582Y-179163458D01*
X213312561Y-178975100D01*
X213281869Y-178929166D01*
X226607232Y-178936104D01*
X226529774Y-179123102D01*
X226497628Y-179284710D01*
X223971138Y-181811201D01*
X223942140Y-181834999D01*
X223918342Y-181863997D01*
X223918341Y-181863998D01*
X223847166Y-181950724D01*
X223776594Y-182082754D01*
X223756575Y-182148750D01*
X223733138Y-182226014D01*
X223732504Y-182232447D01*
X223731421Y-182243451D01*
X223604639Y-182347498D01*
X223450308Y-182535551D01*
X223335629Y-182750099D01*
X223265010Y-182982898D01*
X223247140Y-183164335D01*
X223247140Y-183835664D01*
X223265010Y-184017101D01*
X223335629Y-184249900D01*
X223450307Y-184464448D01*
X223604638Y-184652502D01*
X223792691Y-184806833D01*
X224007239Y-184921511D01*
X224240038Y-184992130D01*
X224482140Y-185015975D01*
X224724241Y-184992130D01*
X224957040Y-184921511D01*
X225171588Y-184806833D01*
X225325449Y-184680564D01*
X225351603Y-184729494D01*
X225430955Y-184826185D01*
X225527646Y-184905537D01*
X225637960Y-184964502D01*
X225757658Y-185000812D01*
X225882140Y-185013072D01*
X226196390Y-185010000D01*
X226355140Y-184851250D01*
X226355140Y-183627000D01*
X226609140Y-183627000D01*
X226609140Y-184851250D01*
X226767890Y-185010000D01*
X227082140Y-185013072D01*
X227206622Y-185000812D01*
X227326320Y-184964502D01*
X227436634Y-184905537D01*
X227533325Y-184826185D01*
X227612677Y-184729494D01*
X227671642Y-184619180D01*
X227707952Y-184499482D01*
X227720212Y-184375000D01*
X227717140Y-183785750D01*
X227558390Y-183627000D01*
X226609140Y-183627000D01*
X226355140Y-183627000D01*
X226335140Y-183627000D01*
X226335140Y-183373000D01*
X226355140Y-183373000D01*
X226355140Y-182148750D01*
X226609140Y-182148750D01*
X226609140Y-183373000D01*
X227558390Y-183373000D01*
X227717140Y-183214250D01*
X227720212Y-182625000D01*
X227707952Y-182500518D01*
X227671642Y-182380820D01*
X227612677Y-182270506D01*
X227533325Y-182173815D01*
X227436634Y-182094463D01*
X227326320Y-182035498D01*
X227206622Y-181999188D01*
X227082140Y-181986928D01*
X226767890Y-181990000D01*
X226609140Y-182148750D01*
X226355140Y-182148750D01*
X226196390Y-181990000D01*
X225944405Y-181987537D01*
X227471942Y-180460000D01*
X227626939Y-180460000D01*
X227826898Y-180420226D01*
X228015256Y-180342205D01*
X228184774Y-180228937D01*
X228328937Y-180084774D01*
X228442205Y-179915256D01*
X228520226Y-179726898D01*
X228560000Y-179526939D01*
X228560000Y-179323061D01*
X228520226Y-179123102D01*
X228443164Y-178937059D01*
X236794827Y-178941407D01*
X236754774Y-179038102D01*
X236715000Y-179238061D01*
X236715000Y-179441939D01*
X236754774Y-179641898D01*
X236832795Y-179830256D01*
X236946063Y-179999774D01*
X236990001Y-180043712D01*
X236990000Y-185155198D01*
X236035199Y-186110000D01*
X206284801Y-186110000D01*
X207639004Y-184755798D01*
X207668001Y-184732001D01*
X207723460Y-184664424D01*
X207762974Y-184616277D01*
X207833546Y-184484247D01*
X207838781Y-184466990D01*
X207877003Y-184340986D01*
X207888000Y-184229333D01*
X207888000Y-184229323D01*
X207891676Y-184192000D01*
X207888000Y-184154678D01*
X207888000Y-180081711D01*
X207931937Y-180037774D01*
X208045205Y-179868256D01*
X208123226Y-179679898D01*
X208163000Y-179479939D01*
X208163000Y-179276061D01*
X208123226Y-179076102D01*
X208061237Y-178926448D01*
X211509459Y-178928244D01*
G36*
X181534141Y-178912638D02*
G01*
X181506723Y-178953672D01*
X181428702Y-179142030D01*
X181388928Y-179341989D01*
X181388928Y-179404126D01*
X178981854Y-181811201D01*
X178952856Y-181834999D01*
X178929058Y-181863997D01*
X178929057Y-181863998D01*
X178857882Y-181950724D01*
X178787310Y-182082754D01*
X178767291Y-182148750D01*
X178743854Y-182226014D01*
X178743220Y-182232447D01*
X178742137Y-182243451D01*
X178615355Y-182347498D01*
X178461024Y-182535551D01*
X178346345Y-182750099D01*
X178275726Y-182982898D01*
X178257856Y-183164335D01*
X178257856Y-183835664D01*
X178275726Y-184017101D01*
X178346345Y-184249900D01*
X178461023Y-184464448D01*
X178615354Y-184652502D01*
X178803407Y-184806833D01*
X179017955Y-184921511D01*
X179250754Y-184992130D01*
X179492856Y-185015975D01*
X179734957Y-184992130D01*
X179967756Y-184921511D01*
X180182304Y-184806833D01*
X180336165Y-184680564D01*
X180362319Y-184729494D01*
X180441671Y-184826185D01*
X180538362Y-184905537D01*
X180648676Y-184964502D01*
X180768374Y-185000812D01*
X180892856Y-185013072D01*
X181207106Y-185010000D01*
X181365856Y-184851250D01*
X181365856Y-183627000D01*
X181619856Y-183627000D01*
X181619856Y-184851250D01*
X181778606Y-185010000D01*
X182092856Y-185013072D01*
X182217338Y-185000812D01*
X182337036Y-184964502D01*
X182447350Y-184905537D01*
X182544041Y-184826185D01*
X182623393Y-184729494D01*
X182682358Y-184619180D01*
X182718668Y-184499482D01*
X182730928Y-184375000D01*
X182727856Y-183785750D01*
X182569106Y-183627000D01*
X181619856Y-183627000D01*
X181365856Y-183627000D01*
X181345856Y-183627000D01*
X181345856Y-183373000D01*
X181365856Y-183373000D01*
X181365856Y-182148750D01*
X181619856Y-182148750D01*
X181619856Y-183373000D01*
X182569106Y-183373000D01*
X182727856Y-183214250D01*
X182730928Y-182625000D01*
X182718668Y-182500518D01*
X182682358Y-182380820D01*
X182623393Y-182270506D01*
X182544041Y-182173815D01*
X182447350Y-182094463D01*
X182337036Y-182035498D01*
X182217338Y-181999188D01*
X182092856Y-181986928D01*
X181778606Y-181990000D01*
X181619856Y-182148750D01*
X181365856Y-182148750D01*
X181207106Y-181990000D01*
X180955121Y-181987537D01*
X182463730Y-180478928D01*
X182525867Y-180478928D01*
X182725826Y-180439154D01*
X182914184Y-180361133D01*
X183083702Y-180247865D01*
X183227865Y-180103702D01*
X183341133Y-179934184D01*
X183419154Y-179745826D01*
X183458928Y-179545867D01*
X183458928Y-179341989D01*
X183419154Y-179142030D01*
X183341133Y-178953672D01*
X183314334Y-178913565D01*
X196530922Y-178920446D01*
X196519937Y-178936886D01*
X196441916Y-179125244D01*
X196402142Y-179325203D01*
X196402142Y-179387340D01*
X193978282Y-181811201D01*
X193949284Y-181834999D01*
X193925486Y-181863997D01*
X193925485Y-181863998D01*
X193854310Y-181950724D01*
X193783738Y-182082754D01*
X193763719Y-182148750D01*
X193740282Y-182226014D01*
X193739648Y-182232447D01*
X193738565Y-182243451D01*
X193611783Y-182347498D01*
X193457452Y-182535551D01*
X193342773Y-182750099D01*
X193272154Y-182982898D01*
X193254284Y-183164335D01*
X193254284Y-183835664D01*
X193272154Y-184017101D01*
X193342773Y-184249900D01*
X193457451Y-184464448D01*
X193611782Y-184652502D01*
X193799835Y-184806833D01*
X194014383Y-184921511D01*
X194247182Y-184992130D01*
X194489284Y-185015975D01*
X194731385Y-184992130D01*
X194964184Y-184921511D01*
X195178732Y-184806833D01*
X195332593Y-184680564D01*
X195358747Y-184729494D01*
X195438099Y-184826185D01*
X195534790Y-184905537D01*
X195645104Y-184964502D01*
X195764802Y-185000812D01*
X195889284Y-185013072D01*
X196203534Y-185010000D01*
X196362284Y-184851250D01*
X196362284Y-183627000D01*
X196616284Y-183627000D01*
X196616284Y-184851250D01*
X196775034Y-185010000D01*
X197089284Y-185013072D01*
X197213766Y-185000812D01*
X197333464Y-184964502D01*
X197443778Y-184905537D01*
X197540469Y-184826185D01*
X197619821Y-184729494D01*
X197678786Y-184619180D01*
X197715096Y-184499482D01*
X197727356Y-184375000D01*
X197724284Y-183785750D01*
X197565534Y-183627000D01*
X196616284Y-183627000D01*
X196362284Y-183627000D01*
X196342284Y-183627000D01*
X196342284Y-183373000D01*
X196362284Y-183373000D01*
X196362284Y-182148750D01*
X196616284Y-182148750D01*
X196616284Y-183373000D01*
X197565534Y-183373000D01*
X197724284Y-183214250D01*
X197727356Y-182625000D01*
X197715096Y-182500518D01*
X197678786Y-182380820D01*
X197619821Y-182270506D01*
X197540469Y-182173815D01*
X197443778Y-182094463D01*
X197333464Y-182035498D01*
X197213766Y-181999188D01*
X197089284Y-181986928D01*
X196775034Y-181990000D01*
X196616284Y-182148750D01*
X196362284Y-182148750D01*
X196203534Y-181990000D01*
X195951549Y-181987537D01*
X197476944Y-180462142D01*
X197539081Y-180462142D01*
X197739040Y-180422368D01*
X197927398Y-180344347D01*
X198096916Y-180231079D01*
X198241079Y-180086916D01*
X198354347Y-179917398D01*
X198432368Y-179729040D01*
X198472142Y-179529081D01*
X198472142Y-179325203D01*
X198432368Y-179125244D01*
X198354347Y-178936886D01*
X198343993Y-178921390D01*
X206195165Y-178925477D01*
X206132774Y-179076102D01*
X206093000Y-179276061D01*
X206093000Y-179479939D01*
X206132774Y-179679898D01*
X206210795Y-179868256D01*
X206324063Y-180037774D01*
X206368001Y-180081712D01*
X206368000Y-183877198D01*
X204635209Y-185609990D01*
X175544812Y-185609990D01*
X177529009Y-183625794D01*
X177558001Y-183602001D01*
X177581795Y-183573008D01*
X177581799Y-183573004D01*
X177652973Y-183486277D01*
X177652974Y-183486276D01*
X177723546Y-183354247D01*
X177767003Y-183210986D01*
X177778000Y-183099333D01*
X177778000Y-183099324D01*
X177781676Y-183062001D01*
X177778000Y-183024678D01*
X177778000Y-180191711D01*
X177821937Y-180147774D01*
X177935205Y-179978256D01*
X178013226Y-179789898D01*
X178053000Y-179589939D01*
X178053000Y-179386061D01*
X178013226Y-179186102D01*
X177935205Y-178997744D01*
X177877067Y-178910734D01*
X181534141Y-178912638D01*
G37*
X181534141Y-178912638D02*
X181506723Y-178953672D01*
X181428702Y-179142030D01*
X181388928Y-179341989D01*
X181388928Y-179404126D01*
X178981854Y-181811201D01*
X178952856Y-181834999D01*
X178929058Y-181863997D01*
X178929057Y-181863998D01*
X178857882Y-181950724D01*
X178787310Y-182082754D01*
X178767291Y-182148750D01*
X178743854Y-182226014D01*
X178743220Y-182232447D01*
X178742137Y-182243451D01*
X178615355Y-182347498D01*
X178461024Y-182535551D01*
X178346345Y-182750099D01*
X178275726Y-182982898D01*
X178257856Y-183164335D01*
X178257856Y-183835664D01*
X178275726Y-184017101D01*
X178346345Y-184249900D01*
X178461023Y-184464448D01*
X178615354Y-184652502D01*
X178803407Y-184806833D01*
X179017955Y-184921511D01*
X179250754Y-184992130D01*
X179492856Y-185015975D01*
X179734957Y-184992130D01*
X179967756Y-184921511D01*
X180182304Y-184806833D01*
X180336165Y-184680564D01*
X180362319Y-184729494D01*
X180441671Y-184826185D01*
X180538362Y-184905537D01*
X180648676Y-184964502D01*
X180768374Y-185000812D01*
X180892856Y-185013072D01*
X181207106Y-185010000D01*
X181365856Y-184851250D01*
X181365856Y-183627000D01*
X181619856Y-183627000D01*
X181619856Y-184851250D01*
X181778606Y-185010000D01*
X182092856Y-185013072D01*
X182217338Y-185000812D01*
X182337036Y-184964502D01*
X182447350Y-184905537D01*
X182544041Y-184826185D01*
X182623393Y-184729494D01*
X182682358Y-184619180D01*
X182718668Y-184499482D01*
X182730928Y-184375000D01*
X182727856Y-183785750D01*
X182569106Y-183627000D01*
X181619856Y-183627000D01*
X181365856Y-183627000D01*
X181345856Y-183627000D01*
X181345856Y-183373000D01*
X181365856Y-183373000D01*
X181365856Y-182148750D01*
X181619856Y-182148750D01*
X181619856Y-183373000D01*
X182569106Y-183373000D01*
X182727856Y-183214250D01*
X182730928Y-182625000D01*
X182718668Y-182500518D01*
X182682358Y-182380820D01*
X182623393Y-182270506D01*
X182544041Y-182173815D01*
X182447350Y-182094463D01*
X182337036Y-182035498D01*
X182217338Y-181999188D01*
X182092856Y-181986928D01*
X181778606Y-181990000D01*
X181619856Y-182148750D01*
X181365856Y-182148750D01*
X181207106Y-181990000D01*
X180955121Y-181987537D01*
X182463730Y-180478928D01*
X182525867Y-180478928D01*
X182725826Y-180439154D01*
X182914184Y-180361133D01*
X183083702Y-180247865D01*
X183227865Y-180103702D01*
X183341133Y-179934184D01*
X183419154Y-179745826D01*
X183458928Y-179545867D01*
X183458928Y-179341989D01*
X183419154Y-179142030D01*
X183341133Y-178953672D01*
X183314334Y-178913565D01*
X196530922Y-178920446D01*
X196519937Y-178936886D01*
X196441916Y-179125244D01*
X196402142Y-179325203D01*
X196402142Y-179387340D01*
X193978282Y-181811201D01*
X193949284Y-181834999D01*
X193925486Y-181863997D01*
X193925485Y-181863998D01*
X193854310Y-181950724D01*
X193783738Y-182082754D01*
X193763719Y-182148750D01*
X193740282Y-182226014D01*
X193739648Y-182232447D01*
X193738565Y-182243451D01*
X193611783Y-182347498D01*
X193457452Y-182535551D01*
X193342773Y-182750099D01*
X193272154Y-182982898D01*
X193254284Y-183164335D01*
X193254284Y-183835664D01*
X193272154Y-184017101D01*
X193342773Y-184249900D01*
X193457451Y-184464448D01*
X193611782Y-184652502D01*
X193799835Y-184806833D01*
X194014383Y-184921511D01*
X194247182Y-184992130D01*
X194489284Y-185015975D01*
X194731385Y-184992130D01*
X194964184Y-184921511D01*
X195178732Y-184806833D01*
X195332593Y-184680564D01*
X195358747Y-184729494D01*
X195438099Y-184826185D01*
X195534790Y-184905537D01*
X195645104Y-184964502D01*
X195764802Y-185000812D01*
X195889284Y-185013072D01*
X196203534Y-185010000D01*
X196362284Y-184851250D01*
X196362284Y-183627000D01*
X196616284Y-183627000D01*
X196616284Y-184851250D01*
X196775034Y-185010000D01*
X197089284Y-185013072D01*
X197213766Y-185000812D01*
X197333464Y-184964502D01*
X197443778Y-184905537D01*
X197540469Y-184826185D01*
X197619821Y-184729494D01*
X197678786Y-184619180D01*
X197715096Y-184499482D01*
X197727356Y-184375000D01*
X197724284Y-183785750D01*
X197565534Y-183627000D01*
X196616284Y-183627000D01*
X196362284Y-183627000D01*
X196342284Y-183627000D01*
X196342284Y-183373000D01*
X196362284Y-183373000D01*
X196362284Y-182148750D01*
X196616284Y-182148750D01*
X196616284Y-183373000D01*
X197565534Y-183373000D01*
X197724284Y-183214250D01*
X197727356Y-182625000D01*
X197715096Y-182500518D01*
X197678786Y-182380820D01*
X197619821Y-182270506D01*
X197540469Y-182173815D01*
X197443778Y-182094463D01*
X197333464Y-182035498D01*
X197213766Y-181999188D01*
X197089284Y-181986928D01*
X196775034Y-181990000D01*
X196616284Y-182148750D01*
X196362284Y-182148750D01*
X196203534Y-181990000D01*
X195951549Y-181987537D01*
X197476944Y-180462142D01*
X197539081Y-180462142D01*
X197739040Y-180422368D01*
X197927398Y-180344347D01*
X198096916Y-180231079D01*
X198241079Y-180086916D01*
X198354347Y-179917398D01*
X198432368Y-179729040D01*
X198472142Y-179529081D01*
X198472142Y-179325203D01*
X198432368Y-179125244D01*
X198354347Y-178936886D01*
X198343993Y-178921390D01*
X206195165Y-178925477D01*
X206132774Y-179076102D01*
X206093000Y-179276061D01*
X206093000Y-179479939D01*
X206132774Y-179679898D01*
X206210795Y-179868256D01*
X206324063Y-180037774D01*
X206368001Y-180081712D01*
X206368000Y-183877198D01*
X204635209Y-185609990D01*
X175544812Y-185609990D01*
X177529009Y-183625794D01*
X177558001Y-183602001D01*
X177581795Y-183573008D01*
X177581799Y-183573004D01*
X177652973Y-183486277D01*
X177652974Y-183486276D01*
X177723546Y-183354247D01*
X177767003Y-183210986D01*
X177778000Y-183099333D01*
X177778000Y-183099324D01*
X177781676Y-183062001D01*
X177778000Y-183024678D01*
X177778000Y-180191711D01*
X177821937Y-180147774D01*
X177935205Y-179978256D01*
X178013226Y-179789898D01*
X178053000Y-179589939D01*
X178053000Y-179386061D01*
X178013226Y-179186102D01*
X177935205Y-178997744D01*
X177877067Y-178910734D01*
X181534141Y-178912638D01*
G36*
X164379645Y-178903708D02*
G01*
X164371200Y-178913998D01*
X163985430Y-179299769D01*
X163956427Y-179323571D01*
X163917777Y-179370667D01*
X163861454Y-179439296D01*
X163808692Y-179538007D01*
X163790882Y-179571326D01*
X163747425Y-179714587D01*
X163736428Y-179826240D01*
X163736428Y-179826250D01*
X163732752Y-179863572D01*
X163736428Y-179900895D01*
X163736429Y-182251067D01*
X163618927Y-182347498D01*
X163464596Y-182535551D01*
X163349917Y-182750099D01*
X163279298Y-182982898D01*
X163261428Y-183164335D01*
X163261428Y-183835664D01*
X163279298Y-184017101D01*
X163349917Y-184249900D01*
X163464595Y-184464448D01*
X163618926Y-184652502D01*
X163806979Y-184806833D01*
X164021527Y-184921511D01*
X164254326Y-184992130D01*
X164496428Y-185015975D01*
X164738529Y-184992130D01*
X164971328Y-184921511D01*
X165185876Y-184806833D01*
X165339737Y-184680564D01*
X165365891Y-184729494D01*
X165445243Y-184826185D01*
X165541934Y-184905537D01*
X165652248Y-184964502D01*
X165771946Y-185000812D01*
X165896428Y-185013072D01*
X166210678Y-185010000D01*
X166369428Y-184851250D01*
X166369428Y-183627000D01*
X166623428Y-183627000D01*
X166623428Y-184851250D01*
X166782178Y-185010000D01*
X167096428Y-185013072D01*
X167220910Y-185000812D01*
X167340608Y-184964502D01*
X167450922Y-184905537D01*
X167547613Y-184826185D01*
X167626965Y-184729494D01*
X167685930Y-184619180D01*
X167722240Y-184499482D01*
X167734500Y-184375000D01*
X167731428Y-183785750D01*
X167572678Y-183627000D01*
X166623428Y-183627000D01*
X166369428Y-183627000D01*
X166349428Y-183627000D01*
X166349428Y-183373000D01*
X166369428Y-183373000D01*
X166369428Y-182148750D01*
X166623428Y-182148750D01*
X166623428Y-183373000D01*
X167572678Y-183373000D01*
X167731428Y-183214250D01*
X167734500Y-182625000D01*
X167722240Y-182500518D01*
X167685930Y-182380820D01*
X167626965Y-182270506D01*
X167547613Y-182173815D01*
X167450922Y-182094463D01*
X167340608Y-182035498D01*
X167220910Y-181999188D01*
X167096428Y-181986928D01*
X166782178Y-181990000D01*
X166623428Y-182148750D01*
X166369428Y-182148750D01*
X166210678Y-181990000D01*
X165896428Y-181986928D01*
X165771946Y-181999188D01*
X165652248Y-182035498D01*
X165541934Y-182094463D01*
X165445243Y-182173815D01*
X165365891Y-182270506D01*
X165339737Y-182319436D01*
X165256428Y-182251067D01*
X165256428Y-180185000D01*
X166751289Y-180185000D01*
X166795226Y-180228937D01*
X166964744Y-180342205D01*
X167153102Y-180420226D01*
X167353061Y-180460000D01*
X167556939Y-180460000D01*
X167756898Y-180420226D01*
X167945256Y-180342205D01*
X168114774Y-180228937D01*
X168258937Y-180084774D01*
X168372205Y-179915256D01*
X168450226Y-179726898D01*
X168490000Y-179526939D01*
X168490000Y-179323061D01*
X168450226Y-179123102D01*
X168372205Y-178934744D01*
X168352849Y-178905776D01*
X176159530Y-178909840D01*
X176100795Y-178997744D01*
X176022774Y-179186102D01*
X175983000Y-179386061D01*
X175983000Y-179589939D01*
X176022774Y-179789898D01*
X176100795Y-179978256D01*
X176214063Y-180147774D01*
X176258001Y-180191712D01*
X176258000Y-182747197D01*
X173895219Y-185109980D01*
X146254821Y-185109980D01*
X148272050Y-183092751D01*
X148265000Y-183164335D01*
X148265000Y-183835664D01*
X148282870Y-184017101D01*
X148353489Y-184249900D01*
X148468167Y-184464448D01*
X148622498Y-184652502D01*
X148810551Y-184806833D01*
X149025099Y-184921511D01*
X149257898Y-184992130D01*
X149500000Y-185015975D01*
X149742101Y-184992130D01*
X149974900Y-184921511D01*
X150189448Y-184806833D01*
X150343309Y-184680564D01*
X150369463Y-184729494D01*
X150448815Y-184826185D01*
X150545506Y-184905537D01*
X150655820Y-184964502D01*
X150775518Y-185000812D01*
X150900000Y-185013072D01*
X151214250Y-185010000D01*
X151373000Y-184851250D01*
X151373000Y-183627000D01*
X151627000Y-183627000D01*
X151627000Y-184851250D01*
X151785750Y-185010000D01*
X152100000Y-185013072D01*
X152224482Y-185000812D01*
X152344180Y-184964502D01*
X152454494Y-184905537D01*
X152551185Y-184826185D01*
X152630537Y-184729494D01*
X152689502Y-184619180D01*
X152725812Y-184499482D01*
X152738072Y-184375000D01*
X152735000Y-183785750D01*
X152576250Y-183627000D01*
X151627000Y-183627000D01*
X151373000Y-183627000D01*
X151353000Y-183627000D01*
X151353000Y-183373000D01*
X151373000Y-183373000D01*
X151373000Y-182148750D01*
X151627000Y-182148750D01*
X151627000Y-183373000D01*
X152576250Y-183373000D01*
X152735000Y-183214250D01*
X152738072Y-182625000D01*
X152725812Y-182500518D01*
X152689502Y-182380820D01*
X152630537Y-182270506D01*
X152551185Y-182173815D01*
X152454494Y-182094463D01*
X152344180Y-182035498D01*
X152224482Y-181999188D01*
X152100000Y-181986928D01*
X151785750Y-181990000D01*
X151627000Y-182148750D01*
X151373000Y-182148750D01*
X151214250Y-181990000D01*
X150962265Y-181987537D01*
X152489802Y-180460000D01*
X152676939Y-180460000D01*
X152876898Y-180420226D01*
X153065256Y-180342205D01*
X153234774Y-180228937D01*
X153378937Y-180084774D01*
X153492205Y-179915256D01*
X153570226Y-179726898D01*
X153610000Y-179526939D01*
X153610000Y-179323061D01*
X153570226Y-179123102D01*
X153492205Y-178934744D01*
X153467671Y-178898027D01*
X164379645Y-178903708D01*
G37*
X164379645Y-178903708D02*
X164371200Y-178913998D01*
X163985430Y-179299769D01*
X163956427Y-179323571D01*
X163917777Y-179370667D01*
X163861454Y-179439296D01*
X163808692Y-179538007D01*
X163790882Y-179571326D01*
X163747425Y-179714587D01*
X163736428Y-179826240D01*
X163736428Y-179826250D01*
X163732752Y-179863572D01*
X163736428Y-179900895D01*
X163736429Y-182251067D01*
X163618927Y-182347498D01*
X163464596Y-182535551D01*
X163349917Y-182750099D01*
X163279298Y-182982898D01*
X163261428Y-183164335D01*
X163261428Y-183835664D01*
X163279298Y-184017101D01*
X163349917Y-184249900D01*
X163464595Y-184464448D01*
X163618926Y-184652502D01*
X163806979Y-184806833D01*
X164021527Y-184921511D01*
X164254326Y-184992130D01*
X164496428Y-185015975D01*
X164738529Y-184992130D01*
X164971328Y-184921511D01*
X165185876Y-184806833D01*
X165339737Y-184680564D01*
X165365891Y-184729494D01*
X165445243Y-184826185D01*
X165541934Y-184905537D01*
X165652248Y-184964502D01*
X165771946Y-185000812D01*
X165896428Y-185013072D01*
X166210678Y-185010000D01*
X166369428Y-184851250D01*
X166369428Y-183627000D01*
X166623428Y-183627000D01*
X166623428Y-184851250D01*
X166782178Y-185010000D01*
X167096428Y-185013072D01*
X167220910Y-185000812D01*
X167340608Y-184964502D01*
X167450922Y-184905537D01*
X167547613Y-184826185D01*
X167626965Y-184729494D01*
X167685930Y-184619180D01*
X167722240Y-184499482D01*
X167734500Y-184375000D01*
X167731428Y-183785750D01*
X167572678Y-183627000D01*
X166623428Y-183627000D01*
X166369428Y-183627000D01*
X166349428Y-183627000D01*
X166349428Y-183373000D01*
X166369428Y-183373000D01*
X166369428Y-182148750D01*
X166623428Y-182148750D01*
X166623428Y-183373000D01*
X167572678Y-183373000D01*
X167731428Y-183214250D01*
X167734500Y-182625000D01*
X167722240Y-182500518D01*
X167685930Y-182380820D01*
X167626965Y-182270506D01*
X167547613Y-182173815D01*
X167450922Y-182094463D01*
X167340608Y-182035498D01*
X167220910Y-181999188D01*
X167096428Y-181986928D01*
X166782178Y-181990000D01*
X166623428Y-182148750D01*
X166369428Y-182148750D01*
X166210678Y-181990000D01*
X165896428Y-181986928D01*
X165771946Y-181999188D01*
X165652248Y-182035498D01*
X165541934Y-182094463D01*
X165445243Y-182173815D01*
X165365891Y-182270506D01*
X165339737Y-182319436D01*
X165256428Y-182251067D01*
X165256428Y-180185000D01*
X166751289Y-180185000D01*
X166795226Y-180228937D01*
X166964744Y-180342205D01*
X167153102Y-180420226D01*
X167353061Y-180460000D01*
X167556939Y-180460000D01*
X167756898Y-180420226D01*
X167945256Y-180342205D01*
X168114774Y-180228937D01*
X168258937Y-180084774D01*
X168372205Y-179915256D01*
X168450226Y-179726898D01*
X168490000Y-179526939D01*
X168490000Y-179323061D01*
X168450226Y-179123102D01*
X168372205Y-178934744D01*
X168352849Y-178905776D01*
X176159530Y-178909840D01*
X176100795Y-178997744D01*
X176022774Y-179186102D01*
X175983000Y-179386061D01*
X175983000Y-179589939D01*
X176022774Y-179789898D01*
X176100795Y-179978256D01*
X176214063Y-180147774D01*
X176258001Y-180191712D01*
X176258000Y-182747197D01*
X173895219Y-185109980D01*
X146254821Y-185109980D01*
X148272050Y-183092751D01*
X148265000Y-183164335D01*
X148265000Y-183835664D01*
X148282870Y-184017101D01*
X148353489Y-184249900D01*
X148468167Y-184464448D01*
X148622498Y-184652502D01*
X148810551Y-184806833D01*
X149025099Y-184921511D01*
X149257898Y-184992130D01*
X149500000Y-185015975D01*
X149742101Y-184992130D01*
X149974900Y-184921511D01*
X150189448Y-184806833D01*
X150343309Y-184680564D01*
X150369463Y-184729494D01*
X150448815Y-184826185D01*
X150545506Y-184905537D01*
X150655820Y-184964502D01*
X150775518Y-185000812D01*
X150900000Y-185013072D01*
X151214250Y-185010000D01*
X151373000Y-184851250D01*
X151373000Y-183627000D01*
X151627000Y-183627000D01*
X151627000Y-184851250D01*
X151785750Y-185010000D01*
X152100000Y-185013072D01*
X152224482Y-185000812D01*
X152344180Y-184964502D01*
X152454494Y-184905537D01*
X152551185Y-184826185D01*
X152630537Y-184729494D01*
X152689502Y-184619180D01*
X152725812Y-184499482D01*
X152738072Y-184375000D01*
X152735000Y-183785750D01*
X152576250Y-183627000D01*
X151627000Y-183627000D01*
X151373000Y-183627000D01*
X151353000Y-183627000D01*
X151353000Y-183373000D01*
X151373000Y-183373000D01*
X151373000Y-182148750D01*
X151627000Y-182148750D01*
X151627000Y-183373000D01*
X152576250Y-183373000D01*
X152735000Y-183214250D01*
X152738072Y-182625000D01*
X152725812Y-182500518D01*
X152689502Y-182380820D01*
X152630537Y-182270506D01*
X152551185Y-182173815D01*
X152454494Y-182094463D01*
X152344180Y-182035498D01*
X152224482Y-181999188D01*
X152100000Y-181986928D01*
X151785750Y-181990000D01*
X151627000Y-182148750D01*
X151373000Y-182148750D01*
X151214250Y-181990000D01*
X150962265Y-181987537D01*
X152489802Y-180460000D01*
X152676939Y-180460000D01*
X152876898Y-180420226D01*
X153065256Y-180342205D01*
X153234774Y-180228937D01*
X153378937Y-180084774D01*
X153492205Y-179915256D01*
X153570226Y-179726898D01*
X153610000Y-179526939D01*
X153610000Y-179323061D01*
X153570226Y-179123102D01*
X153492205Y-178934744D01*
X153467671Y-178898027D01*
X164379645Y-178903708D01*
M02*
