G04 #@! TF.GenerationSoftware,KiCad,Pcbnew,(5.1.5-0-10_14)*
G04 #@! TF.CreationDate,2020-05-15T23:00:51+01:00*
G04 #@! TF.ProjectId,Solenoid_Array,536f6c65-6e6f-4696-945f-41727261792e,1*
G04 #@! TF.SameCoordinates,Original*
G04 #@! TF.FileFunction,Legend,Top*
G04 #@! TF.FilePolarity,Positive*
%FSLAX46Y46*%
G04 Gerber Fmt 4.6, Leading zero omitted, Abs format (unit mm)*
G04 Created by KiCad (PCBNEW (5.1.5-0-10_14)) date 2020-05-15 23:00:51*
%MOMM*%
%LPD*%
G04 APERTURE LIST*
%ADD10C,2.100000*%
%ADD11R,2.100000X2.100000*%
%ADD12C,0.152400*%
%ADD13O,1.200000X1.750000*%
%ADD14R,1.727200X1.727200*%
%ADD15O,1.727200X1.727200*%
G04 APERTURE END LIST*
%LPC*%
D10*
X373920000Y-173820000D03*
D11*
X376460000Y-173820000D03*
D12*
G36*
X151874505Y-182626204D02*
G01*
X151898773Y-182629804D01*
X151922572Y-182635765D01*
X151945671Y-182644030D01*
X151967850Y-182654520D01*
X151988893Y-182667132D01*
X152008599Y-182681747D01*
X152026777Y-182698223D01*
X152043253Y-182716401D01*
X152057868Y-182736107D01*
X152070480Y-182757150D01*
X152080970Y-182779329D01*
X152089235Y-182802428D01*
X152095196Y-182826227D01*
X152098796Y-182850495D01*
X152100000Y-182874999D01*
X152100000Y-184125001D01*
X152098796Y-184149505D01*
X152095196Y-184173773D01*
X152089235Y-184197572D01*
X152080970Y-184220671D01*
X152070480Y-184242850D01*
X152057868Y-184263893D01*
X152043253Y-184283599D01*
X152026777Y-184301777D01*
X152008599Y-184318253D01*
X151988893Y-184332868D01*
X151967850Y-184345480D01*
X151945671Y-184355970D01*
X151922572Y-184364235D01*
X151898773Y-184370196D01*
X151874505Y-184373796D01*
X151850001Y-184375000D01*
X151149999Y-184375000D01*
X151125495Y-184373796D01*
X151101227Y-184370196D01*
X151077428Y-184364235D01*
X151054329Y-184355970D01*
X151032150Y-184345480D01*
X151011107Y-184332868D01*
X150991401Y-184318253D01*
X150973223Y-184301777D01*
X150956747Y-184283599D01*
X150942132Y-184263893D01*
X150929520Y-184242850D01*
X150919030Y-184220671D01*
X150910765Y-184197572D01*
X150904804Y-184173773D01*
X150901204Y-184149505D01*
X150900000Y-184125001D01*
X150900000Y-182874999D01*
X150901204Y-182850495D01*
X150904804Y-182826227D01*
X150910765Y-182802428D01*
X150919030Y-182779329D01*
X150929520Y-182757150D01*
X150942132Y-182736107D01*
X150956747Y-182716401D01*
X150973223Y-182698223D01*
X150991401Y-182681747D01*
X151011107Y-182667132D01*
X151032150Y-182654520D01*
X151054329Y-182644030D01*
X151077428Y-182635765D01*
X151101227Y-182629804D01*
X151125495Y-182626204D01*
X151149999Y-182625000D01*
X151850001Y-182625000D01*
X151874505Y-182626204D01*
G37*
D13*
X149500000Y-183500000D03*
D12*
G36*
X166870933Y-182626204D02*
G01*
X166895201Y-182629804D01*
X166919000Y-182635765D01*
X166942099Y-182644030D01*
X166964278Y-182654520D01*
X166985321Y-182667132D01*
X167005027Y-182681747D01*
X167023205Y-182698223D01*
X167039681Y-182716401D01*
X167054296Y-182736107D01*
X167066908Y-182757150D01*
X167077398Y-182779329D01*
X167085663Y-182802428D01*
X167091624Y-182826227D01*
X167095224Y-182850495D01*
X167096428Y-182874999D01*
X167096428Y-184125001D01*
X167095224Y-184149505D01*
X167091624Y-184173773D01*
X167085663Y-184197572D01*
X167077398Y-184220671D01*
X167066908Y-184242850D01*
X167054296Y-184263893D01*
X167039681Y-184283599D01*
X167023205Y-184301777D01*
X167005027Y-184318253D01*
X166985321Y-184332868D01*
X166964278Y-184345480D01*
X166942099Y-184355970D01*
X166919000Y-184364235D01*
X166895201Y-184370196D01*
X166870933Y-184373796D01*
X166846429Y-184375000D01*
X166146427Y-184375000D01*
X166121923Y-184373796D01*
X166097655Y-184370196D01*
X166073856Y-184364235D01*
X166050757Y-184355970D01*
X166028578Y-184345480D01*
X166007535Y-184332868D01*
X165987829Y-184318253D01*
X165969651Y-184301777D01*
X165953175Y-184283599D01*
X165938560Y-184263893D01*
X165925948Y-184242850D01*
X165915458Y-184220671D01*
X165907193Y-184197572D01*
X165901232Y-184173773D01*
X165897632Y-184149505D01*
X165896428Y-184125001D01*
X165896428Y-182874999D01*
X165897632Y-182850495D01*
X165901232Y-182826227D01*
X165907193Y-182802428D01*
X165915458Y-182779329D01*
X165925948Y-182757150D01*
X165938560Y-182736107D01*
X165953175Y-182716401D01*
X165969651Y-182698223D01*
X165987829Y-182681747D01*
X166007535Y-182667132D01*
X166028578Y-182654520D01*
X166050757Y-182644030D01*
X166073856Y-182635765D01*
X166097655Y-182629804D01*
X166121923Y-182626204D01*
X166146427Y-182625000D01*
X166846429Y-182625000D01*
X166870933Y-182626204D01*
G37*
D13*
X164496428Y-183500000D03*
D12*
G36*
X181867361Y-182626204D02*
G01*
X181891629Y-182629804D01*
X181915428Y-182635765D01*
X181938527Y-182644030D01*
X181960706Y-182654520D01*
X181981749Y-182667132D01*
X182001455Y-182681747D01*
X182019633Y-182698223D01*
X182036109Y-182716401D01*
X182050724Y-182736107D01*
X182063336Y-182757150D01*
X182073826Y-182779329D01*
X182082091Y-182802428D01*
X182088052Y-182826227D01*
X182091652Y-182850495D01*
X182092856Y-182874999D01*
X182092856Y-184125001D01*
X182091652Y-184149505D01*
X182088052Y-184173773D01*
X182082091Y-184197572D01*
X182073826Y-184220671D01*
X182063336Y-184242850D01*
X182050724Y-184263893D01*
X182036109Y-184283599D01*
X182019633Y-184301777D01*
X182001455Y-184318253D01*
X181981749Y-184332868D01*
X181960706Y-184345480D01*
X181938527Y-184355970D01*
X181915428Y-184364235D01*
X181891629Y-184370196D01*
X181867361Y-184373796D01*
X181842857Y-184375000D01*
X181142855Y-184375000D01*
X181118351Y-184373796D01*
X181094083Y-184370196D01*
X181070284Y-184364235D01*
X181047185Y-184355970D01*
X181025006Y-184345480D01*
X181003963Y-184332868D01*
X180984257Y-184318253D01*
X180966079Y-184301777D01*
X180949603Y-184283599D01*
X180934988Y-184263893D01*
X180922376Y-184242850D01*
X180911886Y-184220671D01*
X180903621Y-184197572D01*
X180897660Y-184173773D01*
X180894060Y-184149505D01*
X180892856Y-184125001D01*
X180892856Y-182874999D01*
X180894060Y-182850495D01*
X180897660Y-182826227D01*
X180903621Y-182802428D01*
X180911886Y-182779329D01*
X180922376Y-182757150D01*
X180934988Y-182736107D01*
X180949603Y-182716401D01*
X180966079Y-182698223D01*
X180984257Y-182681747D01*
X181003963Y-182667132D01*
X181025006Y-182654520D01*
X181047185Y-182644030D01*
X181070284Y-182635765D01*
X181094083Y-182629804D01*
X181118351Y-182626204D01*
X181142855Y-182625000D01*
X181842857Y-182625000D01*
X181867361Y-182626204D01*
G37*
D13*
X179492856Y-183500000D03*
D12*
G36*
X196863789Y-182626204D02*
G01*
X196888057Y-182629804D01*
X196911856Y-182635765D01*
X196934955Y-182644030D01*
X196957134Y-182654520D01*
X196978177Y-182667132D01*
X196997883Y-182681747D01*
X197016061Y-182698223D01*
X197032537Y-182716401D01*
X197047152Y-182736107D01*
X197059764Y-182757150D01*
X197070254Y-182779329D01*
X197078519Y-182802428D01*
X197084480Y-182826227D01*
X197088080Y-182850495D01*
X197089284Y-182874999D01*
X197089284Y-184125001D01*
X197088080Y-184149505D01*
X197084480Y-184173773D01*
X197078519Y-184197572D01*
X197070254Y-184220671D01*
X197059764Y-184242850D01*
X197047152Y-184263893D01*
X197032537Y-184283599D01*
X197016061Y-184301777D01*
X196997883Y-184318253D01*
X196978177Y-184332868D01*
X196957134Y-184345480D01*
X196934955Y-184355970D01*
X196911856Y-184364235D01*
X196888057Y-184370196D01*
X196863789Y-184373796D01*
X196839285Y-184375000D01*
X196139283Y-184375000D01*
X196114779Y-184373796D01*
X196090511Y-184370196D01*
X196066712Y-184364235D01*
X196043613Y-184355970D01*
X196021434Y-184345480D01*
X196000391Y-184332868D01*
X195980685Y-184318253D01*
X195962507Y-184301777D01*
X195946031Y-184283599D01*
X195931416Y-184263893D01*
X195918804Y-184242850D01*
X195908314Y-184220671D01*
X195900049Y-184197572D01*
X195894088Y-184173773D01*
X195890488Y-184149505D01*
X195889284Y-184125001D01*
X195889284Y-182874999D01*
X195890488Y-182850495D01*
X195894088Y-182826227D01*
X195900049Y-182802428D01*
X195908314Y-182779329D01*
X195918804Y-182757150D01*
X195931416Y-182736107D01*
X195946031Y-182716401D01*
X195962507Y-182698223D01*
X195980685Y-182681747D01*
X196000391Y-182667132D01*
X196021434Y-182654520D01*
X196043613Y-182644030D01*
X196066712Y-182635765D01*
X196090511Y-182629804D01*
X196114779Y-182626204D01*
X196139283Y-182625000D01*
X196839285Y-182625000D01*
X196863789Y-182626204D01*
G37*
D13*
X194489284Y-183500000D03*
D12*
G36*
X211860217Y-182626204D02*
G01*
X211884485Y-182629804D01*
X211908284Y-182635765D01*
X211931383Y-182644030D01*
X211953562Y-182654520D01*
X211974605Y-182667132D01*
X211994311Y-182681747D01*
X212012489Y-182698223D01*
X212028965Y-182716401D01*
X212043580Y-182736107D01*
X212056192Y-182757150D01*
X212066682Y-182779329D01*
X212074947Y-182802428D01*
X212080908Y-182826227D01*
X212084508Y-182850495D01*
X212085712Y-182874999D01*
X212085712Y-184125001D01*
X212084508Y-184149505D01*
X212080908Y-184173773D01*
X212074947Y-184197572D01*
X212066682Y-184220671D01*
X212056192Y-184242850D01*
X212043580Y-184263893D01*
X212028965Y-184283599D01*
X212012489Y-184301777D01*
X211994311Y-184318253D01*
X211974605Y-184332868D01*
X211953562Y-184345480D01*
X211931383Y-184355970D01*
X211908284Y-184364235D01*
X211884485Y-184370196D01*
X211860217Y-184373796D01*
X211835713Y-184375000D01*
X211135711Y-184375000D01*
X211111207Y-184373796D01*
X211086939Y-184370196D01*
X211063140Y-184364235D01*
X211040041Y-184355970D01*
X211017862Y-184345480D01*
X210996819Y-184332868D01*
X210977113Y-184318253D01*
X210958935Y-184301777D01*
X210942459Y-184283599D01*
X210927844Y-184263893D01*
X210915232Y-184242850D01*
X210904742Y-184220671D01*
X210896477Y-184197572D01*
X210890516Y-184173773D01*
X210886916Y-184149505D01*
X210885712Y-184125001D01*
X210885712Y-182874999D01*
X210886916Y-182850495D01*
X210890516Y-182826227D01*
X210896477Y-182802428D01*
X210904742Y-182779329D01*
X210915232Y-182757150D01*
X210927844Y-182736107D01*
X210942459Y-182716401D01*
X210958935Y-182698223D01*
X210977113Y-182681747D01*
X210996819Y-182667132D01*
X211017862Y-182654520D01*
X211040041Y-182644030D01*
X211063140Y-182635765D01*
X211086939Y-182629804D01*
X211111207Y-182626204D01*
X211135711Y-182625000D01*
X211835713Y-182625000D01*
X211860217Y-182626204D01*
G37*
D13*
X209485712Y-183500000D03*
D12*
G36*
X226856645Y-182626204D02*
G01*
X226880913Y-182629804D01*
X226904712Y-182635765D01*
X226927811Y-182644030D01*
X226949990Y-182654520D01*
X226971033Y-182667132D01*
X226990739Y-182681747D01*
X227008917Y-182698223D01*
X227025393Y-182716401D01*
X227040008Y-182736107D01*
X227052620Y-182757150D01*
X227063110Y-182779329D01*
X227071375Y-182802428D01*
X227077336Y-182826227D01*
X227080936Y-182850495D01*
X227082140Y-182874999D01*
X227082140Y-184125001D01*
X227080936Y-184149505D01*
X227077336Y-184173773D01*
X227071375Y-184197572D01*
X227063110Y-184220671D01*
X227052620Y-184242850D01*
X227040008Y-184263893D01*
X227025393Y-184283599D01*
X227008917Y-184301777D01*
X226990739Y-184318253D01*
X226971033Y-184332868D01*
X226949990Y-184345480D01*
X226927811Y-184355970D01*
X226904712Y-184364235D01*
X226880913Y-184370196D01*
X226856645Y-184373796D01*
X226832141Y-184375000D01*
X226132139Y-184375000D01*
X226107635Y-184373796D01*
X226083367Y-184370196D01*
X226059568Y-184364235D01*
X226036469Y-184355970D01*
X226014290Y-184345480D01*
X225993247Y-184332868D01*
X225973541Y-184318253D01*
X225955363Y-184301777D01*
X225938887Y-184283599D01*
X225924272Y-184263893D01*
X225911660Y-184242850D01*
X225901170Y-184220671D01*
X225892905Y-184197572D01*
X225886944Y-184173773D01*
X225883344Y-184149505D01*
X225882140Y-184125001D01*
X225882140Y-182874999D01*
X225883344Y-182850495D01*
X225886944Y-182826227D01*
X225892905Y-182802428D01*
X225901170Y-182779329D01*
X225911660Y-182757150D01*
X225924272Y-182736107D01*
X225938887Y-182716401D01*
X225955363Y-182698223D01*
X225973541Y-182681747D01*
X225993247Y-182667132D01*
X226014290Y-182654520D01*
X226036469Y-182644030D01*
X226059568Y-182635765D01*
X226083367Y-182629804D01*
X226107635Y-182626204D01*
X226132139Y-182625000D01*
X226832141Y-182625000D01*
X226856645Y-182626204D01*
G37*
D13*
X224482140Y-183500000D03*
D12*
G36*
X241853073Y-182626204D02*
G01*
X241877341Y-182629804D01*
X241901140Y-182635765D01*
X241924239Y-182644030D01*
X241946418Y-182654520D01*
X241967461Y-182667132D01*
X241987167Y-182681747D01*
X242005345Y-182698223D01*
X242021821Y-182716401D01*
X242036436Y-182736107D01*
X242049048Y-182757150D01*
X242059538Y-182779329D01*
X242067803Y-182802428D01*
X242073764Y-182826227D01*
X242077364Y-182850495D01*
X242078568Y-182874999D01*
X242078568Y-184125001D01*
X242077364Y-184149505D01*
X242073764Y-184173773D01*
X242067803Y-184197572D01*
X242059538Y-184220671D01*
X242049048Y-184242850D01*
X242036436Y-184263893D01*
X242021821Y-184283599D01*
X242005345Y-184301777D01*
X241987167Y-184318253D01*
X241967461Y-184332868D01*
X241946418Y-184345480D01*
X241924239Y-184355970D01*
X241901140Y-184364235D01*
X241877341Y-184370196D01*
X241853073Y-184373796D01*
X241828569Y-184375000D01*
X241128567Y-184375000D01*
X241104063Y-184373796D01*
X241079795Y-184370196D01*
X241055996Y-184364235D01*
X241032897Y-184355970D01*
X241010718Y-184345480D01*
X240989675Y-184332868D01*
X240969969Y-184318253D01*
X240951791Y-184301777D01*
X240935315Y-184283599D01*
X240920700Y-184263893D01*
X240908088Y-184242850D01*
X240897598Y-184220671D01*
X240889333Y-184197572D01*
X240883372Y-184173773D01*
X240879772Y-184149505D01*
X240878568Y-184125001D01*
X240878568Y-182874999D01*
X240879772Y-182850495D01*
X240883372Y-182826227D01*
X240889333Y-182802428D01*
X240897598Y-182779329D01*
X240908088Y-182757150D01*
X240920700Y-182736107D01*
X240935315Y-182716401D01*
X240951791Y-182698223D01*
X240969969Y-182681747D01*
X240989675Y-182667132D01*
X241010718Y-182654520D01*
X241032897Y-182644030D01*
X241055996Y-182635765D01*
X241079795Y-182629804D01*
X241104063Y-182626204D01*
X241128567Y-182625000D01*
X241828569Y-182625000D01*
X241853073Y-182626204D01*
G37*
D13*
X239478568Y-183500000D03*
D12*
G36*
X256849501Y-182626204D02*
G01*
X256873769Y-182629804D01*
X256897568Y-182635765D01*
X256920667Y-182644030D01*
X256942846Y-182654520D01*
X256963889Y-182667132D01*
X256983595Y-182681747D01*
X257001773Y-182698223D01*
X257018249Y-182716401D01*
X257032864Y-182736107D01*
X257045476Y-182757150D01*
X257055966Y-182779329D01*
X257064231Y-182802428D01*
X257070192Y-182826227D01*
X257073792Y-182850495D01*
X257074996Y-182874999D01*
X257074996Y-184125001D01*
X257073792Y-184149505D01*
X257070192Y-184173773D01*
X257064231Y-184197572D01*
X257055966Y-184220671D01*
X257045476Y-184242850D01*
X257032864Y-184263893D01*
X257018249Y-184283599D01*
X257001773Y-184301777D01*
X256983595Y-184318253D01*
X256963889Y-184332868D01*
X256942846Y-184345480D01*
X256920667Y-184355970D01*
X256897568Y-184364235D01*
X256873769Y-184370196D01*
X256849501Y-184373796D01*
X256824997Y-184375000D01*
X256124995Y-184375000D01*
X256100491Y-184373796D01*
X256076223Y-184370196D01*
X256052424Y-184364235D01*
X256029325Y-184355970D01*
X256007146Y-184345480D01*
X255986103Y-184332868D01*
X255966397Y-184318253D01*
X255948219Y-184301777D01*
X255931743Y-184283599D01*
X255917128Y-184263893D01*
X255904516Y-184242850D01*
X255894026Y-184220671D01*
X255885761Y-184197572D01*
X255879800Y-184173773D01*
X255876200Y-184149505D01*
X255874996Y-184125001D01*
X255874996Y-182874999D01*
X255876200Y-182850495D01*
X255879800Y-182826227D01*
X255885761Y-182802428D01*
X255894026Y-182779329D01*
X255904516Y-182757150D01*
X255917128Y-182736107D01*
X255931743Y-182716401D01*
X255948219Y-182698223D01*
X255966397Y-182681747D01*
X255986103Y-182667132D01*
X256007146Y-182654520D01*
X256029325Y-182644030D01*
X256052424Y-182635765D01*
X256076223Y-182629804D01*
X256100491Y-182626204D01*
X256124995Y-182625000D01*
X256824997Y-182625000D01*
X256849501Y-182626204D01*
G37*
D13*
X254474996Y-183500000D03*
D12*
G36*
X271845929Y-182626204D02*
G01*
X271870197Y-182629804D01*
X271893996Y-182635765D01*
X271917095Y-182644030D01*
X271939274Y-182654520D01*
X271960317Y-182667132D01*
X271980023Y-182681747D01*
X271998201Y-182698223D01*
X272014677Y-182716401D01*
X272029292Y-182736107D01*
X272041904Y-182757150D01*
X272052394Y-182779329D01*
X272060659Y-182802428D01*
X272066620Y-182826227D01*
X272070220Y-182850495D01*
X272071424Y-182874999D01*
X272071424Y-184125001D01*
X272070220Y-184149505D01*
X272066620Y-184173773D01*
X272060659Y-184197572D01*
X272052394Y-184220671D01*
X272041904Y-184242850D01*
X272029292Y-184263893D01*
X272014677Y-184283599D01*
X271998201Y-184301777D01*
X271980023Y-184318253D01*
X271960317Y-184332868D01*
X271939274Y-184345480D01*
X271917095Y-184355970D01*
X271893996Y-184364235D01*
X271870197Y-184370196D01*
X271845929Y-184373796D01*
X271821425Y-184375000D01*
X271121423Y-184375000D01*
X271096919Y-184373796D01*
X271072651Y-184370196D01*
X271048852Y-184364235D01*
X271025753Y-184355970D01*
X271003574Y-184345480D01*
X270982531Y-184332868D01*
X270962825Y-184318253D01*
X270944647Y-184301777D01*
X270928171Y-184283599D01*
X270913556Y-184263893D01*
X270900944Y-184242850D01*
X270890454Y-184220671D01*
X270882189Y-184197572D01*
X270876228Y-184173773D01*
X270872628Y-184149505D01*
X270871424Y-184125001D01*
X270871424Y-182874999D01*
X270872628Y-182850495D01*
X270876228Y-182826227D01*
X270882189Y-182802428D01*
X270890454Y-182779329D01*
X270900944Y-182757150D01*
X270913556Y-182736107D01*
X270928171Y-182716401D01*
X270944647Y-182698223D01*
X270962825Y-182681747D01*
X270982531Y-182667132D01*
X271003574Y-182654520D01*
X271025753Y-182644030D01*
X271048852Y-182635765D01*
X271072651Y-182629804D01*
X271096919Y-182626204D01*
X271121423Y-182625000D01*
X271821425Y-182625000D01*
X271845929Y-182626204D01*
G37*
D13*
X269471424Y-183500000D03*
D12*
G36*
X286842357Y-182626204D02*
G01*
X286866625Y-182629804D01*
X286890424Y-182635765D01*
X286913523Y-182644030D01*
X286935702Y-182654520D01*
X286956745Y-182667132D01*
X286976451Y-182681747D01*
X286994629Y-182698223D01*
X287011105Y-182716401D01*
X287025720Y-182736107D01*
X287038332Y-182757150D01*
X287048822Y-182779329D01*
X287057087Y-182802428D01*
X287063048Y-182826227D01*
X287066648Y-182850495D01*
X287067852Y-182874999D01*
X287067852Y-184125001D01*
X287066648Y-184149505D01*
X287063048Y-184173773D01*
X287057087Y-184197572D01*
X287048822Y-184220671D01*
X287038332Y-184242850D01*
X287025720Y-184263893D01*
X287011105Y-184283599D01*
X286994629Y-184301777D01*
X286976451Y-184318253D01*
X286956745Y-184332868D01*
X286935702Y-184345480D01*
X286913523Y-184355970D01*
X286890424Y-184364235D01*
X286866625Y-184370196D01*
X286842357Y-184373796D01*
X286817853Y-184375000D01*
X286117851Y-184375000D01*
X286093347Y-184373796D01*
X286069079Y-184370196D01*
X286045280Y-184364235D01*
X286022181Y-184355970D01*
X286000002Y-184345480D01*
X285978959Y-184332868D01*
X285959253Y-184318253D01*
X285941075Y-184301777D01*
X285924599Y-184283599D01*
X285909984Y-184263893D01*
X285897372Y-184242850D01*
X285886882Y-184220671D01*
X285878617Y-184197572D01*
X285872656Y-184173773D01*
X285869056Y-184149505D01*
X285867852Y-184125001D01*
X285867852Y-182874999D01*
X285869056Y-182850495D01*
X285872656Y-182826227D01*
X285878617Y-182802428D01*
X285886882Y-182779329D01*
X285897372Y-182757150D01*
X285909984Y-182736107D01*
X285924599Y-182716401D01*
X285941075Y-182698223D01*
X285959253Y-182681747D01*
X285978959Y-182667132D01*
X286000002Y-182654520D01*
X286022181Y-182644030D01*
X286045280Y-182635765D01*
X286069079Y-182629804D01*
X286093347Y-182626204D01*
X286117851Y-182625000D01*
X286817853Y-182625000D01*
X286842357Y-182626204D01*
G37*
D13*
X284467852Y-183500000D03*
D12*
G36*
X301838785Y-182626204D02*
G01*
X301863053Y-182629804D01*
X301886852Y-182635765D01*
X301909951Y-182644030D01*
X301932130Y-182654520D01*
X301953173Y-182667132D01*
X301972879Y-182681747D01*
X301991057Y-182698223D01*
X302007533Y-182716401D01*
X302022148Y-182736107D01*
X302034760Y-182757150D01*
X302045250Y-182779329D01*
X302053515Y-182802428D01*
X302059476Y-182826227D01*
X302063076Y-182850495D01*
X302064280Y-182874999D01*
X302064280Y-184125001D01*
X302063076Y-184149505D01*
X302059476Y-184173773D01*
X302053515Y-184197572D01*
X302045250Y-184220671D01*
X302034760Y-184242850D01*
X302022148Y-184263893D01*
X302007533Y-184283599D01*
X301991057Y-184301777D01*
X301972879Y-184318253D01*
X301953173Y-184332868D01*
X301932130Y-184345480D01*
X301909951Y-184355970D01*
X301886852Y-184364235D01*
X301863053Y-184370196D01*
X301838785Y-184373796D01*
X301814281Y-184375000D01*
X301114279Y-184375000D01*
X301089775Y-184373796D01*
X301065507Y-184370196D01*
X301041708Y-184364235D01*
X301018609Y-184355970D01*
X300996430Y-184345480D01*
X300975387Y-184332868D01*
X300955681Y-184318253D01*
X300937503Y-184301777D01*
X300921027Y-184283599D01*
X300906412Y-184263893D01*
X300893800Y-184242850D01*
X300883310Y-184220671D01*
X300875045Y-184197572D01*
X300869084Y-184173773D01*
X300865484Y-184149505D01*
X300864280Y-184125001D01*
X300864280Y-182874999D01*
X300865484Y-182850495D01*
X300869084Y-182826227D01*
X300875045Y-182802428D01*
X300883310Y-182779329D01*
X300893800Y-182757150D01*
X300906412Y-182736107D01*
X300921027Y-182716401D01*
X300937503Y-182698223D01*
X300955681Y-182681747D01*
X300975387Y-182667132D01*
X300996430Y-182654520D01*
X301018609Y-182644030D01*
X301041708Y-182635765D01*
X301065507Y-182629804D01*
X301089775Y-182626204D01*
X301114279Y-182625000D01*
X301814281Y-182625000D01*
X301838785Y-182626204D01*
G37*
D13*
X299464280Y-183500000D03*
D12*
G36*
X316835213Y-182626204D02*
G01*
X316859481Y-182629804D01*
X316883280Y-182635765D01*
X316906379Y-182644030D01*
X316928558Y-182654520D01*
X316949601Y-182667132D01*
X316969307Y-182681747D01*
X316987485Y-182698223D01*
X317003961Y-182716401D01*
X317018576Y-182736107D01*
X317031188Y-182757150D01*
X317041678Y-182779329D01*
X317049943Y-182802428D01*
X317055904Y-182826227D01*
X317059504Y-182850495D01*
X317060708Y-182874999D01*
X317060708Y-184125001D01*
X317059504Y-184149505D01*
X317055904Y-184173773D01*
X317049943Y-184197572D01*
X317041678Y-184220671D01*
X317031188Y-184242850D01*
X317018576Y-184263893D01*
X317003961Y-184283599D01*
X316987485Y-184301777D01*
X316969307Y-184318253D01*
X316949601Y-184332868D01*
X316928558Y-184345480D01*
X316906379Y-184355970D01*
X316883280Y-184364235D01*
X316859481Y-184370196D01*
X316835213Y-184373796D01*
X316810709Y-184375000D01*
X316110707Y-184375000D01*
X316086203Y-184373796D01*
X316061935Y-184370196D01*
X316038136Y-184364235D01*
X316015037Y-184355970D01*
X315992858Y-184345480D01*
X315971815Y-184332868D01*
X315952109Y-184318253D01*
X315933931Y-184301777D01*
X315917455Y-184283599D01*
X315902840Y-184263893D01*
X315890228Y-184242850D01*
X315879738Y-184220671D01*
X315871473Y-184197572D01*
X315865512Y-184173773D01*
X315861912Y-184149505D01*
X315860708Y-184125001D01*
X315860708Y-182874999D01*
X315861912Y-182850495D01*
X315865512Y-182826227D01*
X315871473Y-182802428D01*
X315879738Y-182779329D01*
X315890228Y-182757150D01*
X315902840Y-182736107D01*
X315917455Y-182716401D01*
X315933931Y-182698223D01*
X315952109Y-182681747D01*
X315971815Y-182667132D01*
X315992858Y-182654520D01*
X316015037Y-182644030D01*
X316038136Y-182635765D01*
X316061935Y-182629804D01*
X316086203Y-182626204D01*
X316110707Y-182625000D01*
X316810709Y-182625000D01*
X316835213Y-182626204D01*
G37*
D13*
X314460708Y-183500000D03*
D12*
G36*
X331831641Y-182626204D02*
G01*
X331855909Y-182629804D01*
X331879708Y-182635765D01*
X331902807Y-182644030D01*
X331924986Y-182654520D01*
X331946029Y-182667132D01*
X331965735Y-182681747D01*
X331983913Y-182698223D01*
X332000389Y-182716401D01*
X332015004Y-182736107D01*
X332027616Y-182757150D01*
X332038106Y-182779329D01*
X332046371Y-182802428D01*
X332052332Y-182826227D01*
X332055932Y-182850495D01*
X332057136Y-182874999D01*
X332057136Y-184125001D01*
X332055932Y-184149505D01*
X332052332Y-184173773D01*
X332046371Y-184197572D01*
X332038106Y-184220671D01*
X332027616Y-184242850D01*
X332015004Y-184263893D01*
X332000389Y-184283599D01*
X331983913Y-184301777D01*
X331965735Y-184318253D01*
X331946029Y-184332868D01*
X331924986Y-184345480D01*
X331902807Y-184355970D01*
X331879708Y-184364235D01*
X331855909Y-184370196D01*
X331831641Y-184373796D01*
X331807137Y-184375000D01*
X331107135Y-184375000D01*
X331082631Y-184373796D01*
X331058363Y-184370196D01*
X331034564Y-184364235D01*
X331011465Y-184355970D01*
X330989286Y-184345480D01*
X330968243Y-184332868D01*
X330948537Y-184318253D01*
X330930359Y-184301777D01*
X330913883Y-184283599D01*
X330899268Y-184263893D01*
X330886656Y-184242850D01*
X330876166Y-184220671D01*
X330867901Y-184197572D01*
X330861940Y-184173773D01*
X330858340Y-184149505D01*
X330857136Y-184125001D01*
X330857136Y-182874999D01*
X330858340Y-182850495D01*
X330861940Y-182826227D01*
X330867901Y-182802428D01*
X330876166Y-182779329D01*
X330886656Y-182757150D01*
X330899268Y-182736107D01*
X330913883Y-182716401D01*
X330930359Y-182698223D01*
X330948537Y-182681747D01*
X330968243Y-182667132D01*
X330989286Y-182654520D01*
X331011465Y-182644030D01*
X331034564Y-182635765D01*
X331058363Y-182629804D01*
X331082631Y-182626204D01*
X331107135Y-182625000D01*
X331807137Y-182625000D01*
X331831641Y-182626204D01*
G37*
D13*
X329457136Y-183500000D03*
D12*
G36*
X346828069Y-182626204D02*
G01*
X346852337Y-182629804D01*
X346876136Y-182635765D01*
X346899235Y-182644030D01*
X346921414Y-182654520D01*
X346942457Y-182667132D01*
X346962163Y-182681747D01*
X346980341Y-182698223D01*
X346996817Y-182716401D01*
X347011432Y-182736107D01*
X347024044Y-182757150D01*
X347034534Y-182779329D01*
X347042799Y-182802428D01*
X347048760Y-182826227D01*
X347052360Y-182850495D01*
X347053564Y-182874999D01*
X347053564Y-184125001D01*
X347052360Y-184149505D01*
X347048760Y-184173773D01*
X347042799Y-184197572D01*
X347034534Y-184220671D01*
X347024044Y-184242850D01*
X347011432Y-184263893D01*
X346996817Y-184283599D01*
X346980341Y-184301777D01*
X346962163Y-184318253D01*
X346942457Y-184332868D01*
X346921414Y-184345480D01*
X346899235Y-184355970D01*
X346876136Y-184364235D01*
X346852337Y-184370196D01*
X346828069Y-184373796D01*
X346803565Y-184375000D01*
X346103563Y-184375000D01*
X346079059Y-184373796D01*
X346054791Y-184370196D01*
X346030992Y-184364235D01*
X346007893Y-184355970D01*
X345985714Y-184345480D01*
X345964671Y-184332868D01*
X345944965Y-184318253D01*
X345926787Y-184301777D01*
X345910311Y-184283599D01*
X345895696Y-184263893D01*
X345883084Y-184242850D01*
X345872594Y-184220671D01*
X345864329Y-184197572D01*
X345858368Y-184173773D01*
X345854768Y-184149505D01*
X345853564Y-184125001D01*
X345853564Y-182874999D01*
X345854768Y-182850495D01*
X345858368Y-182826227D01*
X345864329Y-182802428D01*
X345872594Y-182779329D01*
X345883084Y-182757150D01*
X345895696Y-182736107D01*
X345910311Y-182716401D01*
X345926787Y-182698223D01*
X345944965Y-182681747D01*
X345964671Y-182667132D01*
X345985714Y-182654520D01*
X346007893Y-182644030D01*
X346030992Y-182635765D01*
X346054791Y-182629804D01*
X346079059Y-182626204D01*
X346103563Y-182625000D01*
X346803565Y-182625000D01*
X346828069Y-182626204D01*
G37*
D13*
X344453564Y-183500000D03*
D12*
G36*
X361824505Y-182626204D02*
G01*
X361848773Y-182629804D01*
X361872572Y-182635765D01*
X361895671Y-182644030D01*
X361917850Y-182654520D01*
X361938893Y-182667132D01*
X361958599Y-182681747D01*
X361976777Y-182698223D01*
X361993253Y-182716401D01*
X362007868Y-182736107D01*
X362020480Y-182757150D01*
X362030970Y-182779329D01*
X362039235Y-182802428D01*
X362045196Y-182826227D01*
X362048796Y-182850495D01*
X362050000Y-182874999D01*
X362050000Y-184125001D01*
X362048796Y-184149505D01*
X362045196Y-184173773D01*
X362039235Y-184197572D01*
X362030970Y-184220671D01*
X362020480Y-184242850D01*
X362007868Y-184263893D01*
X361993253Y-184283599D01*
X361976777Y-184301777D01*
X361958599Y-184318253D01*
X361938893Y-184332868D01*
X361917850Y-184345480D01*
X361895671Y-184355970D01*
X361872572Y-184364235D01*
X361848773Y-184370196D01*
X361824505Y-184373796D01*
X361800001Y-184375000D01*
X361099999Y-184375000D01*
X361075495Y-184373796D01*
X361051227Y-184370196D01*
X361027428Y-184364235D01*
X361004329Y-184355970D01*
X360982150Y-184345480D01*
X360961107Y-184332868D01*
X360941401Y-184318253D01*
X360923223Y-184301777D01*
X360906747Y-184283599D01*
X360892132Y-184263893D01*
X360879520Y-184242850D01*
X360869030Y-184220671D01*
X360860765Y-184197572D01*
X360854804Y-184173773D01*
X360851204Y-184149505D01*
X360850000Y-184125001D01*
X360850000Y-182874999D01*
X360851204Y-182850495D01*
X360854804Y-182826227D01*
X360860765Y-182802428D01*
X360869030Y-182779329D01*
X360879520Y-182757150D01*
X360892132Y-182736107D01*
X360906747Y-182716401D01*
X360923223Y-182698223D01*
X360941401Y-182681747D01*
X360961107Y-182667132D01*
X360982150Y-182654520D01*
X361004329Y-182644030D01*
X361027428Y-182635765D01*
X361051227Y-182629804D01*
X361075495Y-182626204D01*
X361099999Y-182625000D01*
X361800001Y-182625000D01*
X361824505Y-182626204D01*
G37*
D13*
X359450000Y-183500000D03*
D12*
G36*
X390104505Y-182156204D02*
G01*
X390128773Y-182159804D01*
X390152572Y-182165765D01*
X390175671Y-182174030D01*
X390197850Y-182184520D01*
X390218893Y-182197132D01*
X390238599Y-182211747D01*
X390256777Y-182228223D01*
X390273253Y-182246401D01*
X390287868Y-182266107D01*
X390300480Y-182287150D01*
X390310970Y-182309329D01*
X390319235Y-182332428D01*
X390325196Y-182356227D01*
X390328796Y-182380495D01*
X390330000Y-182404999D01*
X390330000Y-183655001D01*
X390328796Y-183679505D01*
X390325196Y-183703773D01*
X390319235Y-183727572D01*
X390310970Y-183750671D01*
X390300480Y-183772850D01*
X390287868Y-183793893D01*
X390273253Y-183813599D01*
X390256777Y-183831777D01*
X390238599Y-183848253D01*
X390218893Y-183862868D01*
X390197850Y-183875480D01*
X390175671Y-183885970D01*
X390152572Y-183894235D01*
X390128773Y-183900196D01*
X390104505Y-183903796D01*
X390080001Y-183905000D01*
X389379999Y-183905000D01*
X389355495Y-183903796D01*
X389331227Y-183900196D01*
X389307428Y-183894235D01*
X389284329Y-183885970D01*
X389262150Y-183875480D01*
X389241107Y-183862868D01*
X389221401Y-183848253D01*
X389203223Y-183831777D01*
X389186747Y-183813599D01*
X389172132Y-183793893D01*
X389159520Y-183772850D01*
X389149030Y-183750671D01*
X389140765Y-183727572D01*
X389134804Y-183703773D01*
X389131204Y-183679505D01*
X389130000Y-183655001D01*
X389130000Y-182404999D01*
X389131204Y-182380495D01*
X389134804Y-182356227D01*
X389140765Y-182332428D01*
X389149030Y-182309329D01*
X389159520Y-182287150D01*
X389172132Y-182266107D01*
X389186747Y-182246401D01*
X389203223Y-182228223D01*
X389221401Y-182211747D01*
X389241107Y-182197132D01*
X389262150Y-182184520D01*
X389284329Y-182174030D01*
X389307428Y-182165765D01*
X389331227Y-182159804D01*
X389355495Y-182156204D01*
X389379999Y-182155000D01*
X390080001Y-182155000D01*
X390104505Y-182156204D01*
G37*
D13*
X387730000Y-183030000D03*
D12*
G36*
X388104505Y-176156204D02*
G01*
X388128773Y-176159804D01*
X388152572Y-176165765D01*
X388175671Y-176174030D01*
X388197850Y-176184520D01*
X388218893Y-176197132D01*
X388238599Y-176211747D01*
X388256777Y-176228223D01*
X388273253Y-176246401D01*
X388287868Y-176266107D01*
X388300480Y-176287150D01*
X388310970Y-176309329D01*
X388319235Y-176332428D01*
X388325196Y-176356227D01*
X388328796Y-176380495D01*
X388330000Y-176404999D01*
X388330000Y-177655001D01*
X388328796Y-177679505D01*
X388325196Y-177703773D01*
X388319235Y-177727572D01*
X388310970Y-177750671D01*
X388300480Y-177772850D01*
X388287868Y-177793893D01*
X388273253Y-177813599D01*
X388256777Y-177831777D01*
X388238599Y-177848253D01*
X388218893Y-177862868D01*
X388197850Y-177875480D01*
X388175671Y-177885970D01*
X388152572Y-177894235D01*
X388128773Y-177900196D01*
X388104505Y-177903796D01*
X388080001Y-177905000D01*
X387379999Y-177905000D01*
X387355495Y-177903796D01*
X387331227Y-177900196D01*
X387307428Y-177894235D01*
X387284329Y-177885970D01*
X387262150Y-177875480D01*
X387241107Y-177862868D01*
X387221401Y-177848253D01*
X387203223Y-177831777D01*
X387186747Y-177813599D01*
X387172132Y-177793893D01*
X387159520Y-177772850D01*
X387149030Y-177750671D01*
X387140765Y-177727572D01*
X387134804Y-177703773D01*
X387131204Y-177679505D01*
X387130000Y-177655001D01*
X387130000Y-176404999D01*
X387131204Y-176380495D01*
X387134804Y-176356227D01*
X387140765Y-176332428D01*
X387149030Y-176309329D01*
X387159520Y-176287150D01*
X387172132Y-176266107D01*
X387186747Y-176246401D01*
X387203223Y-176228223D01*
X387221401Y-176211747D01*
X387241107Y-176197132D01*
X387262150Y-176184520D01*
X387284329Y-176174030D01*
X387307428Y-176165765D01*
X387331227Y-176159804D01*
X387355495Y-176156204D01*
X387379999Y-176155000D01*
X388080001Y-176155000D01*
X388104505Y-176156204D01*
G37*
D13*
X389730000Y-177030000D03*
D14*
X141000000Y-181300000D03*
D15*
X141000000Y-178760000D03*
X138460000Y-181300000D03*
X138460000Y-178760000D03*
X135920000Y-181300000D03*
X135920000Y-178760000D03*
X133380000Y-181300000D03*
X133380000Y-178760000D03*
X130840000Y-181300000D03*
X130840000Y-178760000D03*
X128300000Y-181300000D03*
X128300000Y-178760000D03*
X125760000Y-181300000D03*
X125760000Y-178760000D03*
X123220000Y-181300000D03*
X123220000Y-178760000D03*
M02*
