M48
; DRILL file {KiCad (5.1.5-0-10_14)} date Friday, 15 May 2020 at 23:00:58
; FORMAT={-:-/ absolute / inch / decimal}
; #@! TF.CreationDate,2020-05-15T23:00:58+01:00
; #@! TF.GenerationSoftware,Kicad,Pcbnew,(5.1.5-0-10_14)
; #@! TF.FileFunction,Plated,1,2,PTH
FMAT,2
INCH
T1C0.0157
T2C0.0295
T3C0.0400
T4C0.0433
%
G90
G05
T1
X4.0748Y-6.7386
X4.0791Y-7.4366
X4.237Y-7.1457
X4.3246Y-6.7386
X4.327Y-7.4353
X4.5744Y-6.7386
X4.577Y-7.4353
X4.6161Y-7.1457
X4.8242Y-6.7386
X4.832Y-7.4353
X5.074Y-6.7386
X5.077Y-7.4353
X5.3238Y-6.7386
X5.327Y-7.4353
X5.5736Y-6.7386
X5.577Y-7.4353
X5.7195Y-7.2326
X5.8169Y-6.8171
X5.9398Y-7.0638
X6.0069Y-7.064
X6.4173Y-6.9815
X6.5927Y-7.064
X6.9692Y-7.0665
X7.182Y-7.0647
X7.5886Y-6.9815
X7.7731Y-7.0641
X8.1546Y-7.0621
X8.362Y-7.0656
X8.7791Y-6.9803
X8.9577Y-7.064
X9.3602Y-7.0606
X9.5447Y-7.064
X9.9583Y-6.9827
X10.1343Y-7.0646
X10.5157Y-7.0633
X10.7281Y-7.064
X11.128Y-6.9819
X11.3136Y-7.066
X11.7001Y-7.06
X11.9061Y-7.064
X12.3083Y-6.9815
X12.4962Y-7.0643
X12.8743Y-7.0669
X13.0865Y-7.0644
X13.4894Y-6.9811
X13.6748Y-7.0665
X14.082Y-6.9803
X14.2676Y-7.0641
X14.8346Y-7.0177
T2
X14.1516Y-7.2244
X14.2303Y-7.2244
X7.6571Y-7.2244
X7.7358Y-7.2244
X10.0187Y-7.2244
X10.0974Y-7.2244
X11.1995Y-7.2244
X11.2783Y-7.2244
X12.9708Y-7.2244
X13.0495Y-7.2244
X6.4762Y-7.2244
X6.555Y-7.2244
X7.0666Y-7.2244
X7.1454Y-7.2244
X8.8379Y-7.2244
X8.9166Y-7.2244
X15.265Y-6.9697
X15.3437Y-6.9697
X9.4283Y-7.2244
X9.507Y-7.2244
X13.5612Y-7.2244
X13.6399Y-7.2244
X10.6091Y-7.2244
X10.6879Y-7.2244
X5.8858Y-7.2244
X5.9646Y-7.2244
X15.265Y-7.2059
X15.3437Y-7.2059
X12.3803Y-7.2244
X12.4591Y-7.2244
X11.7899Y-7.2244
X11.8687Y-7.2244
X8.2475Y-7.2244
X8.3262Y-7.2244
T3
X4.8512Y-7.0378
X4.8512Y-7.1378
X4.9512Y-7.0378
X4.9512Y-7.1378
X5.0512Y-7.0378
X5.0512Y-7.1378
X5.1512Y-7.0378
X5.1512Y-7.1378
X5.2512Y-7.0378
X5.2512Y-7.1378
X5.3512Y-7.0378
X5.3512Y-7.1378
X5.4512Y-7.0378
X5.4512Y-7.1378
X5.5512Y-7.0378
X5.5512Y-7.1378
T4
X14.7213Y-6.8433
X14.8213Y-6.8433
T0
M30
