G04 #@! TF.GenerationSoftware,KiCad,Pcbnew,(5.1.5-0-10_14)*
G04 #@! TF.CreationDate,2020-05-17T17:17:15+01:00*
G04 #@! TF.ProjectId,Test_Traces,54657374-5f54-4726-9163-65732e6b6963,rev?*
G04 #@! TF.SameCoordinates,Original*
G04 #@! TF.FileFunction,Copper,L1,Top*
G04 #@! TF.FilePolarity,Positive*
%FSLAX46Y46*%
G04 Gerber Fmt 4.6, Leading zero omitted, Abs format (unit mm)*
G04 Created by KiCad (PCBNEW (5.1.5-0-10_14)) date 2020-05-17 17:17:15*
%MOMM*%
%LPD*%
G04 APERTURE LIST*
%ADD10R,1.700000X1.700000*%
%ADD11O,1.600000X1.000000*%
%ADD12C,0.250000*%
%ADD13C,0.600000*%
%ADD14C,0.800000*%
%ADD15C,1.000000*%
G04 APERTURE END LIST*
D10*
X78840000Y-85330000D03*
D11*
X81380000Y-85330000D03*
X78840000Y-87870000D03*
X81380000Y-87870000D03*
X78840000Y-90410000D03*
X81380000Y-90410000D03*
X78840000Y-92950000D03*
X81380000Y-92950000D03*
X71280000Y-92950000D03*
X68740000Y-92950000D03*
X71280000Y-90410000D03*
X68740000Y-90410000D03*
X71280000Y-87870000D03*
X68740000Y-87870000D03*
X71280000Y-85330000D03*
D10*
X68740000Y-85330000D03*
D12*
X72330000Y-92950000D02*
X78840000Y-92950000D01*
X71280000Y-92950000D02*
X72330000Y-92950000D01*
X80890000Y-91710000D02*
X81380000Y-92200000D01*
X81380000Y-92200000D02*
X81380000Y-92950000D01*
X69230000Y-91710000D02*
X80890000Y-91710000D01*
X68740000Y-92200000D02*
X69230000Y-91710000D01*
X68740000Y-92950000D02*
X68740000Y-92200000D01*
D13*
X71280000Y-90410000D02*
X78840000Y-90410000D01*
X81380000Y-89310000D02*
X81380000Y-90410000D01*
X81230000Y-89160000D02*
X81380000Y-89310000D01*
X68740000Y-89310000D02*
X68890000Y-89160000D01*
X68890000Y-89160000D02*
X81230000Y-89160000D01*
X68740000Y-90410000D02*
X68740000Y-89310000D01*
D14*
X71280000Y-87870000D02*
X78840000Y-87870000D01*
X68740000Y-87870000D02*
X68740000Y-87060000D01*
X68740000Y-87060000D02*
X68950000Y-86850000D01*
X68950000Y-86850000D02*
X80790000Y-86850000D01*
X81380000Y-87440000D02*
X81380000Y-87870000D01*
X80790000Y-86850000D02*
X81380000Y-87440000D01*
D15*
X71280000Y-85330000D02*
X78840000Y-85330000D01*
X81380000Y-83830000D02*
X81380000Y-85330000D01*
X80980000Y-83430000D02*
X81380000Y-83830000D01*
X68790000Y-83430000D02*
X80980000Y-83430000D01*
X68740000Y-83480000D02*
X68790000Y-83430000D01*
X68740000Y-85330000D02*
X68740000Y-83480000D01*
M02*
